SplineFontDB: 3.0
FontName: Muli-Regular
FullName: Muli
FamilyName: Muli
Weight: Regular
Copyright: Digitized data Copyright (c) 2011-2014, vernon adams.
Version: 2
ItalicAngle: 0
UnderlinePosition: 0
UnderlineWidth: 0
Ascent: 1638
Descent: 410
sfntRevision: 0x00000000
UFOAscent: 1560
UFODescent: -556
LayerCount: 2
Layer: 0 0 "Back"  1
Layer: 1 0 "Fore"  0
FSType: 0
OS2Version: 0
OS2_WeightWidthSlopeOnly: 0
OS2_UseTypoMetrics: 1
CreationTime: 1391649518
ModificationTime: 1391665254
PfmFamily: 17
TTFWeight: 400
TTFWidth: 5
LineGap: 0
VLineGap: 0
OS2TypoAscent: 2364
OS2TypoAOffset: 0
OS2TypoDescent: -582
OS2TypoDOffset: 0
OS2TypoLinegap: 0
OS2WinAscent: 2364
OS2WinAOffset: 0
OS2WinDescent: 582
OS2WinDOffset: 0
HheadAscent: 2364
HheadAOffset: 0
HheadDescent: -582
HheadDOffset: 0
OS2Vendor: 'NeWT'
Lookup: 258 0 0 "'kern' Horizontal Kerning in Latin lookup 0"  {"'kern' Horizontal Kerning in Latin lookup 0 subtable"  } ['kern' ('latn' <'dflt' > ) ]
MarkAttachClasses: 1
DEI: 91125
LangName: 1033 "" "" "" "" "" "Version 2" "" "Muli is a trademark of Vernon Adams and may be registered in certain jurisdictions." "newtypography" "Vernon Adams" "" "newtypography.co.uk" "newtypography.co.uk" "Copyright (c) 2014, vernon adams.+AAoACgAA-This Font Software is licensed under the SIL Open Font License, Version 1.1.+AAoA-This license is available with a FAQ at:+AAoA-http://scripts.sil.org/OFL+AAoA" "http://scripts.sil.org/OFL" "" "Muli" "Bold" 
PickledData: "(dp1
S'com.typemytype.robofont.foreground.layerStrokeColor'
p2
(F0.5
F0
F0.5
F0.69999999999999996
tp3
sS'com.schriftgestaltung.fontMasterID'
p4
S'CAA31E91-2985-420A-82BA-6B4D8404D924'
p5
sS'GSDimensionPlugin.Dimensions'
p6
(dp7
S'CAA31E91-2985-420A-82BA-6B4D8404D924'
p8
(dp9
ssS'com.superpolator.editor.generateInfo'
p10
S'Generated with LTR Superpolator version 120823_1018_beta_'
p11
sS'com.typemytype.robofont.b.layerStrokeColor'
p12
(F1
F0.75
F0
F0.69999999999999996
tp13
sS'com.schriftgestaltung.useNiceNames'
p14
I01

StartChar: A
Encoding: 65 65 0
Width: 1399
VWidth: 0
Flags: HW
PickledData: "(dp1
S'org.robofab.postScriptHintData'
p2
(dp3
sS'com.typemytype.robofont.layerData'
p4
(dp5
s."
AnchorPoint: "top" 699 1456 basechar 0
LayerCount: 2
Fore
SplineSet
438 545 m 1
 952 545 l 1
 867.568453199 782.901786532 782.244796289 1019.91146296 696 1256 c 1
 609.861632987 1019.13836701 523.860147229 782.139852771 438 545 c 1
31 0 m 1
 596 1456 l 1
 800 1456 l 1
 1368 0 l 1
 1159 0 l 1
 1009 389 l 1
 386 389 l 1
 239 0 l 1
 31 0 l 1
EndSplineSet
EndChar

StartChar: AE
Encoding: 198 198 1
Width: 2062
VWidth: 0
Flags: HW
PickledData: "(dp1
S'org.robofab.postScriptHintData'
p2
(dp3
sS'com.typemytype.robofont.layerData'
p4
(dp5
S'b'
(dp6
S'name'
p7
S'AE'
p8
sS'lib'
p9
(dp10
sS'unicodes'
p11
(tsS'width'
p12
F2073.5500000000002
sS'contours'
p13
(tsS'components'
p14
(tsS'anchors'
p15
(tsss."
AnchorPoint: "top" 1350 1456 basechar 0
LayerCount: 2
Fore
SplineSet
546 548 m 1
 1069 548 l 1
 1014 1291 l 1
 966 1291 l 1
 546 548 l 1
25 0 m 1
 869 1456 l 1
 1887 1456 l 1
 1887 1291 l 1
 1198 1291 l 1
 1237 829 l 1
 1855 829 l 1
 1855 671 l 1
 1253 671 l 1
 1299 163 l 1
 1912 163 l 1
 1912 0 l 1
 1118 0 l 1
 1083 401 l 1
 471 401 l 1
 243 0 l 1
 25 0 l 1
EndSplineSet
EndChar

StartChar: B
Encoding: 66 66 18
Width: 1356
VWidth: 0
Flags: HW
PickledData: "(dp1
S'org.robofab.postScriptHintData'
p2
(dp3
sS'com.typemytype.robofont.layerData'
p4
(dp5
S'b'
(dp6
S'name'
p7
S'B'
sS'lib'
p8
(dp9
sS'unicodes'
p10
(tsS'width'
p11
F1346.45
sS'contours'
p12
(tsS'components'
p13
(tsS'anchors'
p14
(tsss."
AnchorPoint: "top" 647 1456 basechar 0
LayerCount: 2
Fore
SplineSet
393 840 m 1
 646 840 l 2
 828 840 968 897 968 1078 c 0
 968 1252 834 1295 614 1295 c 2
 393 1295 l 1
 393 840 l 1
394 163 m 1
 688 163 l 2
 914 163 1036 254 1036 419 c 0
 1036 615 930 682 662 682 c 2
 394 682 l 1
 394 163 l 1
202 0 m 1
 202 1456 l 1
 587 1456 l 2
 866 1456 1169 1410 1169 1101 c 0
 1169 944 1092 822 929 777 c 1
 1126 743 1239 608 1239 414 c 0
 1239 186 1067 0 719 0 c 2
 202 0 l 1
EndSplineSet
EndChar

StartChar: C
Encoding: 67 67 20
Width: 1399
VWidth: 0
Flags: HW
PickledData: "(dp1
S'org.robofab.postScriptHintData'
p2
(dp3
sS'com.typemytype.robofont.guides'
p4
(tsS'com.typemytype.robofont.layerData'
p5
(dp6
S'b'
(dp7
S'name'
p8
S'C'
sS'lib'
p9
(dp10
sS'unicodes'
p11
(tsS'width'
p12
F1394.1500000000001
sS'contours'
p13
((dp14
S'points'
p15
((dp16
S'segmentType'
p17
S'curve'
p18
sS'x'
F785
sS'smooth'
p19
I01
sS'y'
F-23
s(dp20
S'y'
F-23
sS'x'
F346
sg19
I00
s(dp21
S'y'
F309
sS'x'
F108
sg19
I00
s(dp22
g17
S'curve'
p23
sS'x'
F108
sg19
I01
sS'y'
F713
s(dp24
S'y'
F1125
sS'x'
F108
sg19
I00
s(dp25
S'y'
F1483
sS'x'
F371
sg19
I00
s(dp26
g17
S'curve'
p27
sS'x'
F814
sg19
I01
sS'y'
F1483
s(dp28
S'y'
F1483
sS'x'
F995
sg19
I00
s(dp29
S'y'
F1437
sS'x'
F1144
sg19
I00
s(dp30
g17
S'curve'
p31
sS'x'
F1265
sg19
I00
sS'y'
F1329
s(dp32
g17
S'line'
p33
sS'x'
F1200
sg19
I00
sS'y'
F1219
s(dp34
S'y'
F1295
sS'x'
F1099
sg19
I00
s(dp35
S'y'
F1334
sS'x'
F969
sg19
I00
s(dp36
g17
S'curve'
p37
sS'x'
F833
sg19
I01
sS'y'
F1334
s(dp38
S'y'
F1334
sS'x'
F464
sg19
I00
s(dp39
S'y'
F1022
sS'x'
F291
sg19
I00
s(dp40
g17
S'curve'
p41
sS'x'
F291
sg19
I01
sS'y'
F712
s(dp42
S'y'
F398
sS'x'
F291
sg19
I00
s(dp43
S'y'
F125
sS'x'
F453
sg19
I00
s(dp44
g17
S'curve'
p45
sS'x'
F811
sg19
I01
sS'y'
F125
s(dp46
S'y'
F125
sS'x'
F974
sg19
I00
s(dp47
S'y'
F172
sS'x'
F1134
sg19
I00
s(dp48
g17
S'curve'
p49
sS'x'
F1243
sg19
I00
sS'y'
F268
s(dp50
g17
S'line'
p51
sS'x'
F1301
sg19
I00
sS'y'
F127
s(dp52
S'y'
F28
sS'x'
F1178
sg19
I00
s(dp53
S'y'
F-23
sS'x'
F996
sg19
I00
stp54
stp55
sS'components'
p56
(tsS'anchors'
p57
(tsss."
AnchorPoint: "bot" 808 0 basechar 0
AnchorPoint: "top" 815 1456 basechar 0
LayerCount: 2
Fore
SplineSet
824 -22 m 0
 441 -22 107 234 107 716 c 0
 107 1179 414 1482 817 1482 c 0
 989 1482 1143 1440 1275 1332 c 1
 1199 1202 l 1
 1084 1287 960 1321 831 1321 c 0
 512 1321 308 1059 308 718 c 0
 308 359 528 139 833 139 c 0
 972 139 1112 183 1245 283 c 1
 1309 131 l 1
 1164 25 996 -22 824 -22 c 0
EndSplineSet
EndChar

StartChar: D
Encoding: 68 68 27
Width: 1539
VWidth: 0
Flags: HW
PickledData: "(dp1
S'org.robofab.postScriptHintData'
p2
(dp3
sS'com.typemytype.robofont.layerData'
p4
(dp5
S'b'
(dp6
S'name'
p7
S'D'
sS'lib'
p8
(dp9
sS'unicodes'
p10
(tsS'width'
p11
F1526.5999999999999
sS'contours'
p12
(tsS'components'
p13
(tsS'anchors'
p14
(tsss."
AnchorPoint: "top" 697 1456 basechar 0
LayerCount: 2
Fore
SplineSet
202 0 m 1
 202 1456 l 1
 560 1456 l 2
 1108 1456 1428 1233 1428 726 c 0
 1428 264 1146 0 625 0 c 2
 202 0 l 1
393 161 m 1
 635 161 l 2
 1031 161 1226 372 1226 726 c 0
 1226 1115 1015 1295 578 1295 c 2
 393 1295 l 1
 393 161 l 1
EndSplineSet
EndChar

StartChar: DEL
Encoding: 127 127 28
Width: 1521
VWidth: 0
Flags: HW
PickledData: "(dp1
S'org.robofab.postScriptHintData'
p2
(dp3
s."
LayerCount: 2
Fore
SplineSet
188 0 m 1
 188 1456 l 1
 1333 1456 l 1
 1333 0 l 1
 188 0 l 1
360 124 m 1
 1161 124 l 1
 1161 1330 l 1
 360 1330 l 1
 360 124 l 1
EndSplineSet
EndChar

StartChar: Delta
Encoding: 916 916 32
Width: 1305
VWidth: 0
Flags: HW
PickledData: "(dp1
S'org.robofab.postScriptHintData'
p2
(dp3
s."
LayerCount: 2
Fore
SplineSet
254 142 m 1
 1047 142 l 1
 657 1237 l 1
 254 142 l 1
56 0 m 1
 56 84 l 1
 584 1455 l 1
 738 1455 l 1
 1249 84 l 1
 1249 0 l 1
 56 0 l 1
EndSplineSet
EndChar

StartChar: E
Encoding: 69 69 35
Width: 1204
VWidth: 0
Flags: HW
PickledData: "(dp1
S'org.robofab.postScriptHintData'
p2
(dp3
sS'com.typemytype.robofont.layerData'
p4
(dp5
s."
AnchorPoint: "bot" 663 0 basechar 0
AnchorPoint: "top" 645 1456 basechar 0
LayerCount: 2
Fore
SplineSet
202 0 m 1
 202 1456 l 1
 1074 1456 l 1
 1074 1295 l 1
 393 1295 l 1
 393 837 l 1
 1036 837 l 1
 1036 675 l 1
 393 675 l 1
 393 161 l 1
 1103 161 l 1
 1103 0 l 1
 202 0 l 1
EndSplineSet
EndChar

StartChar: Eng
Encoding: 330 330 46
Width: 1570
VWidth: 0
Flags: HW
PickledData: "(dp1
S'org.robofab.postScriptHintData'
p2
(dp3
sS'com.typemytype.robofont.layerData'
p4
(dp5
s."
LayerCount: 2
Fore
SplineSet
1391 1456 m 1
 1391 56 l 1
 1390 -259 1261 -436 924 -436 c 5
 924 -289 l 5
 1102 -289 1205 -215 1205 -28 c 2
 1205 55 l 1
 486 1044 l 1
 384 1200 l 1
 384 0 l 1
 200 0 l 1
 200 1456 l 1
 407 1456 l 1
 1098 488 l 1
 1205 327 l 1
 1205 1456 l 1
 1391 1456 l 1
EndSplineSet
EndChar

StartChar: Euro
Encoding: 8364 8364 50
Width: 1480
VWidth: 0
Flags: HW
PickledData: "(dp1
S'org.robofab.postScriptHintData'
p2
(dp3
sS'com.typemytype.robofont.layerData'
p4
(dp5
S'b'
(dp6
S'name'
p7
S'Euro'
p8
sS'lib'
p9
(dp10
sS'unicodes'
p11
(tsS'width'
p12
I1190
sS'contours'
p13
(tsS'components'
p14
(tsS'anchors'
p15
(tsss."
LayerCount: 2
Fore
SplineSet
916 -22 m 0
 1088 -22 1256 25 1401 131 c 1
 1337 283 l 1
 1204 183 1064 139 925 139 c 0
 679.961316156 139 489.786768935 281.001294787 424.482832272 523 c 1
 905 523 l 1
 912 627 l 1
 404.963742111 627 l 1
 401.684736905 656.232698484 400 686.584125538 400 718 c 0
 400 759.264957185 402.987336926 799.373053501 408.804296479 838 c 1
 941 838 l 1
 948 948 l 1
 434.230908428 948 l 1
 504.893042422 1169.96868725 680.800336161 1321 923 1321 c 0
 1052 1321 1176 1287 1291 1202 c 1
 1367 1332 l 1
 1235 1440 1081 1482 909 1482 c 0
 577.992634672 1482 311.749685641 1277.58731106 227.188859899 948 c 1
 34 948 l 1
 29 838 l 1
 206.428278682 838 l 1
 201.528669399 798.722471473 199 758.020172388 199 716 c 0
 199 685.421167985 200.344293741 655.751947902 202.960108869 627 c 1
 35 627 l 1
 30 523 l 1
 218.694000386 523 l 1
 295.621007357 165.957825806 587.822352381 -22 916 -22 c 0
EndSplineSet
EndChar

StartChar: F
Encoding: 70 70 51
Width: 1117
VWidth: 0
Flags: HW
PickledData: "(dp1
S'org.robofab.postScriptHintData'
p2
(dp3
sS'com.typemytype.robofont.layerData'
p4
(dp5
s."
AnchorPoint: "top" 639 1456 basechar 0
LayerCount: 2
Fore
SplineSet
202 0 m 1
 202 1456 l 1
 1042 1456 l 1
 1042 1295 l 1
 393 1295 l 1
 393 837 l 1
 997 837 l 1
 997 675 l 1
 393 675 l 1
 393 0 l 1
 202 0 l 1
EndSplineSet
EndChar

StartChar: G
Encoding: 71 71 53
Width: 1527
VWidth: 0
Flags: HW
PickledData: "(dp1
S'org.robofab.postScriptHintData'
p2
(dp3
sS'com.typemytype.robofont.layerData'
p4
(dp5
S'b'
(dp6
S'name'
p7
S'G'
sS'lib'
p8
(dp9
sS'unicodes'
p10
(tsS'width'
p11
F1528.2
sS'contours'
p12
((dp13
S'points'
p14
((dp15
S'segmentType'
p16
S'curve'
p17
sS'x'
F841
sS'smooth'
p18
I01
sS'y'
F-23
s(dp19
S'y'
F-23
sS'x'
F361
sg18
I00
s(dp20
S'y'
F267
sS'x'
F108
sg18
I00
s(dp21
g16
S'curve'
p22
sS'x'
F108
sg18
I01
sS'y'
F701
s(dp23
S'y'
F1129
sS'x'
F108
sg18
I00
s(dp24
S'y'
F1483
sS'x'
F382
sg18
I00
s(dp25
g16
S'curve'
p26
sS'x'
F852
sg18
I01
sS'y'
F1483
s(dp27
S'y'
F1483
sS'x'
F1059
sg18
I00
s(dp28
S'y'
F1415
sS'x'
F1233
sg18
I00
s(dp29
g16
S'curve'
p30
sS'x'
F1334
sg18
I00
sS'y'
F1308
s(dp31
g16
S'line'
p32
sS'x'
F1262
sg18
I00
sS'y'
F1196
s(dp33
S'y'
F1291
sS'x'
F1164
sg18
I00
s(dp34
S'y'
F1334
sS'x'
F1034
sg18
I00
s(dp35
g16
S'curve'
p36
sS'x'
F848
sg18
I01
sS'y'
F1334
s(dp37
S'y'
F1334
sS'x'
F477
sg18
I00
s(dp38
S'y'
F1033
sS'x'
F286
sg18
I00
s(dp39
g16
S'curve'
p40
sS'x'
F286
sg18
I01
sS'y'
F714
s(dp41
S'y'
F365
sS'x'
F286
sg18
I00
s(dp42
S'y'
F125
sS'x'
F472
sg18
I00
s(dp43
g16
S'curve'
p44
sS'x'
F855
sg18
I01
sS'y'
F125
s(dp45
S'y'
F125
sS'x'
F968
sg18
I00
s(dp46
S'y'
F143
sS'x'
F1088
sg18
I00
s(dp47
g16
S'curve'
p48
sS'x'
F1184
sg18
I00
sS'y'
F182
s(dp49
g16
S'line'
p50
sS'x'
F1184
sg18
I00
sS'y'
F608
s(dp51
g16
S'line'
p52
sS'x'
F811
sg18
I00
sS'y'
F608
s(dp53
g16
S'line'
p54
sS'x'
F811
sg18
I00
sS'y'
F757
s(dp55
g16
S'line'
p56
sS'x'
F1356
sg18
I00
sS'y'
F757
s(dp57
g16
S'line'
p58
sS'x'
F1356
sg18
I00
sS'y'
F81
s(dp59
S'y'
F6
sS'x'
F1195
sg18
I00
s(dp60
S'y'
F-23
sS'x'
F1012
sg18
I00
stp61
stp62
sS'components'
p63
(tsS'anchors'
p64
(tsss."
AnchorPoint: "bot" 816 0 basechar 0
AnchorPoint: "top" 833 1456 basechar 0
LayerCount: 2
Fore
SplineSet
844 -22 m 0
 367 -22 108 266 108 704 c 0
 108 1156 414 1482 861 1482 c 0
 1054 1482 1210 1433 1340 1336 c 1
 1263 1203 l 1
 1146 1283 1017 1321 865 1321 c 0
 526 1321 306 1062 306 712 c 0
 306 373 488 139 852 139 c 0
 957 139 1078 156 1170 191 c 1
 1170 603 l 1
 802 603 l 1
 802 766 l 1
 1360 766 l 1
 1360 84 l 1
 1194 8 1014 -22 844 -22 c 0
EndSplineSet
EndChar

StartChar: H
Encoding: 72 72 60
Width: 1559
VWidth: 0
Flags: HW
PickledData: "(dp1
S'org.robofab.postScriptHintData'
p2
(dp3
sS'com.typemytype.robofont.layerData'
p4
(dp5
S'b'
(dp6
S'name'
p7
S'H'
sS'lib'
p8
(dp9
sS'unicodes'
p10
(tsS'width'
p11
F1576.45
sS'contours'
p12
(tsS'components'
p13
(tsS'anchors'
p14
(tsss."
AnchorPoint: "top" 780 1456 basechar 0
LayerCount: 2
Fore
SplineSet
202 0 m 1
 202 1456 l 1
 394 1456 l 1
 394 827 l 1
 1167 827 l 1
 1167 1456 l 1
 1357 1456 l 1
 1357 0 l 1
 1168 0 l 1
 1168 666 l 1
 394 666 l 1
 394 0 l 1
 202 0 l 1
EndSplineSet
EndChar

StartChar: Hbar
Encoding: 294 294 61
Width: 1566
VWidth: 0
Flags: HW
PickledData: "(dp1
S'org.robofab.postScriptHintData'
p2
(dp3
sS'com.typemytype.robofont.layerData'
p4
(dp5
S'b'
(dp6
S'name'
p7
S'Hbar'
p8
sS'lib'
p9
(dp10
sS'unicodes'
p11
(tsS'width'
p12
F1532.55
sS'contours'
p13
(tsS'components'
p14
(tsS'anchors'
p15
(tsss."
LayerCount: 2
Fore
SplineSet
98 1161 m 5
 97 1269 l 5
 1462 1269 l 5
 1462 1161 l 5
 98 1161 l 5
EndSplineSet
Refer: 60 72 N 1 0 0 1 0 0 2
EndChar

StartChar: I
Encoding: 73 73 63
Width: 602
VWidth: 0
Flags: HW
PickledData: "(dp1
S'org.robofab.postScriptHintData'
p2
(dp3
sS'com.typemytype.robofont.layerData'
p4
(dp5
s."
AnchorPoint: "top" 321 1456 basechar 0
LayerCount: 2
Fore
SplineSet
218 0 m 1
 218 1456 l 1
 409 1456 l 1
 409 0 l 1
 218 0 l 1
EndSplineSet
EndChar

StartChar: J
Encoding: 74 74 77
Width: 786
VWidth: 0
Flags: HW
PickledData: "(dp1
S'org.robofab.postScriptHintData'
p2
(dp3
sS'com.typemytype.robofont.layerData'
p4
(dp5
S'b'
(dp6
S'name'
p7
S'J'
sS'lib'
p8
(dp9
sS'unicodes'
p10
(tsS'width'
p11
F731.54999999999995
sS'contours'
p12
(tsS'components'
p13
(tsS'anchors'
p14
(tsss."
AnchorPoint: "top" 488 1456 basechar 0
LayerCount: 2
Fore
SplineSet
229 -326 m 0
 143 -326 56 -305 -7 -284 c 1
 20 -134 l 1
 71 -149 138 -165 204 -165 c 0
 357 -165 397 -78 397 120 c 2
 397 1456 l 1
 588 1456 l 1
 588 121 l 2
 588 -193 463 -326 229 -326 c 0
EndSplineSet
EndChar

StartChar: K
Encoding: 75 75 79
Width: 1296
VWidth: 0
Flags: HW
PickledData: "(dp1
S'org.robofab.postScriptHintData'
p2
(dp3
sS'com.typemytype.robofont.layerData'
p4
(dp5
S'b'
(dp6
S'name'
p7
S'K'
sS'lib'
p8
(dp9
sS'unicodes'
p10
(tsS'width'
p11
F1289.95
sS'contours'
p12
(tsS'components'
p13
(tsS'anchors'
p14
(tsss."
AnchorPoint: "bot" 716 0 basechar 0
AnchorPoint: "top" 671 1456 basechar 0
LayerCount: 2
Fore
SplineSet
202 0 m 1
 202 1456 l 1
 393 1456 l 1
 393 800 l 1
 1020 1456 l 1
 1257 1456 l 1
 584 755 l 1
 1305 0 l 1
 1063 0 l 1
 393 692 l 1
 393 0 l 1
 202 0 l 1
EndSplineSet
EndChar

StartChar: L
Encoding: 76 76 82
Width: 1109
VWidth: 0
Flags: HW
PickledData: "(dp1
S'org.robofab.postScriptHintData'
p2
(dp3
sS'com.typemytype.robofont.layerData'
p4
(dp5
s."
AnchorPoint: "bot" 673 0 basechar 0
AnchorPoint: "caron.alt" 313 1026 basechar 0
AnchorPoint: "top" 311 1456 basechar 0
LayerCount: 2
Fore
SplineSet
202 0 m 1
 202 1456 l 1
 393 1456 l 1
 393 161 l 1
 1070 161 l 1
 1070 0 l 1
 202 0 l 1
EndSplineSet
EndChar

StartChar: Lslash
Encoding: 321 321 88
Width: 1131
VWidth: 0
Flags: HW
PickledData: "(dp1
S'org.robofab.postScriptHintData'
p2
(dp3
sS'com.typemytype.robofont.layerData'
p4
(dp5
s."
LayerCount: 2
Fore
SplineSet
51 472 m 1
 51 631 l 1
 689 1038 l 1
 689 879 l 1
 51 472 l 1
EndSplineSet
Refer: 82 76 N 1 0 0 1 0 0 2
EndChar

StartChar: M
Encoding: 77 77 89
Width: 1923
VWidth: 0
Flags: HW
PickledData: "(dp1
S'org.robofab.postScriptHintData'
p2
(dp3
sS'com.typemytype.robofont.layerData'
p4
(dp5
S'b'
(dp6
S'name'
p7
S'M'
sS'lib'
p8
(dp9
sS'unicodes'
p10
(tsS'width'
p11
F1905.0999999999999
sS'contours'
p12
(tsS'components'
p13
(tsS'anchors'
p14
(tsss."
AnchorPoint: "top" 968 1456 basechar 0
LayerCount: 2
Fore
SplineSet
202 0 m 1
 202 1456 l 1
 434 1456 l 1
 609.823261655 1052.82326165 788.791143189 652.791143189 962 247 c 1
 1135.84200212 653.491331212 1316.89071064 1052.77595603 1494 1456 c 1
 1721 1456 l 1
 1721 0 l 1
 1539 0 l 1
 1539 1145 l 1
 1372.27516429 760.391502374 1199.33541548 381.997917849 1030 0 c 1
 893 0 l 1
 461 973 l 1
 386 1153 l 1
 386 0 l 1
 202 0 l 1
EndSplineSet
EndChar

StartChar: N
Encoding: 78 78 91
Width: 1598
VWidth: 0
Flags: HW
PickledData: "(dp1
S'org.robofab.postScriptHintData'
p2
(dp3
sS'com.typemytype.robofont.layerData'
p4
(dp5
S'b'
(dp6
S'name'
p7
S'N'
sS'lib'
p8
(dp9
sS'unicodes'
p10
(tsS'width'
p11
F1578.1500000000001
sS'contours'
p12
(tsS'components'
p13
(tsS'anchors'
p14
(tsss."
AnchorPoint: "bot" 841 0 basechar 0
AnchorPoint: "top" 809 1456 basechar 0
LayerCount: 2
Fore
SplineSet
202 0 m 1
 202 1456 l 1
 405 1456 l 1
 1107 432 l 1
 1215 262 l 1
 1215 1456 l 1
 1397 1456 l 1
 1397 0 l 1
 1193 0 l 1
 509 986 l 1
 381 1186 l 1
 381 0 l 1
 202 0 l 1
EndSplineSet
EndChar

StartChar: O
Encoding: 79 79 98
Width: 1626
VWidth: 0
Flags: HW
PickledData: "(dp1
S'org.robofab.postScriptHintData'
p2
(dp3
sS'com.typemytype.robofont.guides'
p4
((dp5
S'y'
I727
sS'x'
I231
sS'magnetic'
p6
I5
sS'angle'
p7
I0
sS'isGlobal'
p8
I00
s(dp9
S'y'
I1254
sS'x'
I804
sg6
I5
sg7
F90
sg8
I00
stp10
sS'com.typemytype.robofont.layerData'
p11
(dp12
S'b'
(dp13
S'name'
p14
S'O'
sS'lib'
p15
(dp16
sS'unicodes'
p17
(tsS'width'
p18
F1630.8
sS'contours'
p19
(tsS'components'
p20
(tsS'anchors'
p21
(tsss."
AnchorPoint: "top" 817 1456 basechar 0
LayerCount: 2
Fore
SplineSet
816 -22 m 0
 373 -22 107 272 107 729 c 0
 107 1175 371 1482 818 1482 c 0
 1250 1482 1520 1176 1520 729 c 0
 1520 273 1256 -22 816 -22 c 0
814 139 m 0
 1146 139 1312 372 1312 729 c 0
 1312 1076 1147 1321 816 1321 c 0
 488 1321 311 1075 311 729 c 0
 311 371 484 139 814 139 c 0
EndSplineSet
EndChar

StartChar: OE
Encoding: 338 338 99
Width: 2049
VWidth: 0
Flags: HW
PickledData: "(dp1
S'org.robofab.postScriptHintData'
p2
(dp3
sS'com.typemytype.robofont.layerData'
p4
(dp5
S'b'
(dp6
S'name'
p7
S'OE'
p8
sS'lib'
p9
(dp10
sS'unicodes'
p11
(tsS'width'
p12
F2049.1500000000001
sS'contours'
p13
(tsS'components'
p14
(tsS'anchors'
p15
(tsss."
LayerCount: 2
Fore
SplineSet
814.026303821 131.988225264 m 0
 991.150520261 131.988225264 1088.10657648 203.129414301 1130 254 c 1
 1130 1212 l 1
 1076.20742965 1265.79257035 980.555484297 1319.5851407 830.43653027 1319.5851407 c 0
 500.781613455 1319.5851407 312 1075.72187074 312 725 c 0
 312 384.342892776 478.683256985 131.988225264 814.026303821 131.988225264 c 0
1130 94 m 1
 1086.31533851 45.9468723612 961.853368375 -22.306238499 789.084813593 -22.306238499 c 0
 370.949184312 -22.306238499 108 261.844417345 108 729 c 0
 108 1176.95384803 388.275812117 1483.04720047 805.335119816 1483.04720047 c 0
 977.519693086 1483.04720047 1086.69469795 1422.33687923 1130 1381 c 1
 1130 1456 l 1
 1941 1456 l 1
 1941 1291 l 1
 1322 1291 l 1
 1322 829 l 1
 1902 829 l 1
 1902 663 l 1
 1322 663 l 1
 1322 165 l 1
 1971 165 l 1
 1971 0 l 1
 1130 0 l 1
 1130 94 l 1
EndSplineSet
EndChar

StartChar: Omega
Encoding: 937 937 111
Width: 1603
VWidth: 0
Flags: HW
PickledData: "(dp1
S'org.robofab.postScriptHintData'
p2
(dp3
sS'com.typemytype.robofont.layerData'
p4
(dp5
s."
LayerCount: 2
Fore
SplineSet
102 0 m 1
 81 144 l 1
 414 144 l 1
 235 285 106 531 106 798 c 0
 106 1208 404 1470 802 1470 c 0
 1216 1470 1476 1177 1476 793 c 0
 1476 519 1323 278 1163 144 c 1
 1476 144 l 1
 1461 0 l 1
 929 0 l 1
 929 133 l 1
 1129 269 1277 514 1277 776 c 0
 1277 1063 1116 1308 798 1308 c 0
 508 1308 306 1096 306 781 c 0
 306 519 445 266 649 133 c 1
 650 0 l 1
 102 0 l 1
EndSplineSet
EndChar

StartChar: Oslash
Encoding: 216 216 113
Width: 1626
VWidth: 0
Flags: HW
PickledData: "(dp1
S'org.robofab.postScriptHintData'
p2
(dp3
sS'com.typemytype.robofont.layerData'
p4
(dp5
S'b'
(dp6
S'name'
p7
S'Oslash'
p8
sS'lib'
p9
(dp10
sS'unicodes'
p11
(tsS'width'
p12
F1663
sS'contours'
p13
(tsS'components'
p14
(tsS'anchors'
p15
(tsss."
LayerCount: 2
Fore
SplineSet
816 -22 m 0
 1256 -22 1520 273 1520 729 c 0
 1520 1011.78027675 1411.94448234 1238.13156095 1223.17659618 1366.27959692 c 1
 1308 1525 l 1
 1216 1572 l 1
 1133.06809887 1417.08770162 l 1
 1041.55068293 1459.24743573 935.798079064 1482 818 1482 c 0
 371 1482 107 1175 107 729 c 0
 107 432.776442486 218.760522402 205.037716368 418.043377156 81.4602586836 c 1
 330 -83 l 1
 423 -131 l 1
 511.166204415 33.9754062266 l 1
 600.093131583 -2.60144359746 702.207204426 -22 816 -22 c 0
1138.62938271 1208.07599747 m 1
 1254.27876361 1103.79145735 1312 934.236838103 1312 729 c 0
 1312 372 1146 139 814 139 c 0
 729.171647944 139 654.717477174 154.330000372 590.909257527 183.189525948 c 1
 1138.62938271 1208.07599747 l 1
1053.02152268 1267.5650339 m 1
 501.653983882 237.640342353 l 1
 375.773190955 338.061360164 311 509.942755052 311 729 c 0
 311 1075 488 1321 816 1321 c 0
 907.756367679 1321 986.756441169 1302.1729393 1053.02152268 1267.5650339 c 1
EndSplineSet
EndChar

StartChar: P
Encoding: 80 80 116
Width: 1260
VWidth: 0
Flags: HW
PickledData: "(dp1
S'org.robofab.postScriptHintData'
p2
(dp3
sS'com.typemytype.robofont.layerData'
p4
(dp5
S'b'
(dp6
S'name'
p7
S'P'
sS'lib'
p8
(dp9
sS'unicodes'
p10
(tsS'width'
p11
F1252.6500000000001
sS'contours'
p12
((dp13
S'points'
p14
((dp15
S'segmentType'
p16
S'line'
p17
sS'x'
F360
sS'smooth'
p18
I00
sS'y'
F828
s(dp19
g16
S'line'
p20
sS'x'
F580
sg18
I01
sS'y'
F828
s(dp21
S'y'
F828
sS'x'
F775
sg18
I00
s(dp22
S'y'
F881
sS'x'
F973
sg18
I00
s(dp23
g16
S'curve'
p24
sS'x'
F973
sg18
I01
sS'y'
F1077
s(dp25
S'y'
F1272
sS'x'
F973
sg18
I00
s(dp26
S'y'
F1308
sS'x'
F807
sg18
I00
s(dp27
g16
S'curve'
p28
sS'x'
F592
sg18
I01
sS'y'
F1308
s(dp29
g16
S'line'
p30
sS'x'
F360
sg18
I00
sS'y'
F1308
stp31
s(dp32
g14
((dp33
g16
S'line'
p34
sS'x'
F360
sg18
I00
sS'y'
F148
s(dp35
g16
S'line'
p36
sS'x'
F667
sg18
I01
sS'y'
F148
s(dp37
S'y'
F148
sS'x'
F906
sg18
I00
s(dp38
S'y'
F230
sS'x'
F1041
sg18
I00
s(dp39
g16
S'curve'
p40
sS'x'
F1041
sg18
I01
sS'y'
F406
s(dp41
S'y'
F617
sS'x'
F1041
sg18
I00
s(dp42
S'y'
F680
sS'x'
F889
sg18
I00
s(dp43
g16
S'curve'
p44
sS'x'
F610
sg18
I01
sS'y'
F680
s(dp45
g16
S'line'
p46
sS'x'
F360
sg18
I00
sS'y'
F680
stp47
s(dp48
g14
((dp49
g16
S'line'
p50
sS'x'
F188
sg18
I00
sS'y'
F0
s(dp51
g16
S'line'
p52
sS'x'
F188
sg18
I00
sS'y'
F1456
s(dp53
g16
S'line'
p54
sS'x'
F502
sg18
I01
sS'y'
F1456
s(dp55
S'y'
F1456
sS'x'
F765
sg18
I00
s(dp56
S'y'
F1443
sS'x'
F1154
sg18
I00
s(dp57
g16
S'curve'
p58
sS'x'
F1154
sg18
I01
sS'y'
F1105
s(dp59
S'y'
F944
sS'x'
F1154
sg18
I00
s(dp60
S'y'
F814
sS'x'
F1045
sg18
I00
s(dp61
g16
S'curve'
p62
sS'x'
F889
sg18
I00
sS'y'
F769
s(dp63
S'y'
F734
sS'x'
F1086
sg18
I00
s(dp64
S'y'
F605
sS'x'
F1223
sg18
I00
s(dp65
g16
S'curve'
p66
sS'x'
F1223
sg18
I01
sS'y'
F403
s(dp67
S'y'
F189
sS'x'
F1223
sg18
I00
s(dp68
S'y'
F0
sS'x'
F1059
sg18
I00
s(dp69
g16
S'curve'
p70
sS'x'
F739
sg18
I01
sS'y'
F0
stp71
stp72
sS'components'
p73
(tsS'anchors'
p74
(tsss."
AnchorPoint: "top" 647 1456 basechar 0
LayerCount: 2
Fore
SplineSet
393 821 m 1
 658 821 l 2
 877 821 997 873 997 1056 c 0
 997 1254.97255098 871.425941039 1295.074891 642.546798918 1295.074891 c 0
 636.76369862 1295.074891 630.914645906 1295.04928872 625 1295 c 2
 393 1295 l 1
 393 821 l 1
202 0 m 1
 202 1456 l 1
 621 1456 l 2
 963 1456 1192 1392 1192 1057 c 0
 1192 758 991 660 661 660 c 2
 393 660 l 1
 393 0 l 1
 202 0 l 1
EndSplineSet
EndChar

StartChar: Q
Encoding: 81 81 118
Width: 1626
VWidth: 0
Flags: HW
PickledData: "(dp1
S'org.robofab.postScriptHintData'
p2
(dp3
sS'com.typemytype.robofont.layerData'
p4
(dp5
S'b'
(dp6
S'name'
p7
S'Q'
sS'lib'
p8
(dp9
sS'unicodes'
p10
(tsS'width'
p11
F1628.2
sS'contours'
p12
(tsS'components'
p13
(tsS'anchors'
p14
(tsss."
LayerCount: 2
Fore
SplineSet
814 139 m 0
 1146 139 1312 372 1312 729 c 0
 1312 1076 1147 1321 816 1321 c 0
 488 1321 311 1075 311 729 c 0
 311 371 484 139 814 139 c 0
816 -22 m 0
 373 -22 107 272 107 729 c 0
 107 1175 371 1482 818 1482 c 0
 1250 1482 1520 1176 1520 729 c 0
 1520 373.524885291 1359.56739047 115.889354423 1080.39062191 19.5735479198 c 1
 1177.08270604 -143.353609389 1335 -310 1335 -310 c 2
 1223 -428 l 1
 1223 -428 1029.72704268 -228.091061317 911.376395118 -17.1430903358 c 1
 880.585438423 -20.3625587417 848.781176265 -22 816 -22 c 0
EndSplineSet
EndChar

StartChar: R
Encoding: 82 82 119
Width: 1362
VWidth: 0
Flags: HW
PickledData: "(dp1
S'org.robofab.postScriptHintData'
p2
(dp3
sS'com.typemytype.robofont.guides'
p4
(tsS'com.typemytype.robofont.layerData'
p5
(dp6
S'b'
(dp7
S'name'
p8
S'R'
sS'lib'
p9
(dp10
sS'unicodes'
p11
(tsS'width'
p12
F1341
sS'contours'
p13
((dp14
S'points'
p15
((dp16
S'segmentType'
p17
S'line'
p18
sS'x'
F360
sS'smooth'
p19
I00
sS'y'
F799
s(dp20
g17
S'line'
p21
sS'x'
F615
sg19
I01
sS'y'
F799
s(dp22
S'y'
F799
sS'x'
F795
sg19
I00
s(dp23
S'y'
F854
sS'x'
F932
sg19
I00
s(dp24
g17
S'curve'
p25
sS'x'
F932
sg19
I01
sS'y'
F1058
s(dp26
S'y'
F1259
sS'x'
F932
sg19
I00
s(dp27
S'y'
F1308
sS'x'
F833
sg19
I00
s(dp28
g17
S'curve'
p29
sS'x'
F626
sg19
I01
sS'y'
F1308
s(dp30
g17
S'line'
p31
sS'x'
F360
sg19
I00
sS'y'
F1308
stp32
s(dp33
g15
((dp34
g17
S'line'
p35
sS'x'
F188
sg19
I00
sS'y'
F0
s(dp36
g17
S'line'
p37
sS'x'
F188
sg19
I00
sS'y'
F1456
s(dp38
g17
S'line'
p39
sS'x'
F533
sg19
I01
sS'y'
F1456
s(dp40
S'y'
F1456
sS'x'
F771
sg19
I00
s(dp41
S'y'
F1452
sS'x'
F1114
sg19
I00
s(dp42
g17
S'curve'
p43
sS'x'
F1114
sg19
I01
sS'y'
F1074
s(dp44
S'y'
F890
sS'x'
F1114
sg19
I00
s(dp45
S'y'
F762
sS'x'
F1035
sg19
I00
s(dp46
g17
S'curve'
p47
sS'x'
F847
sg19
I00
sS'y'
F715
s(dp48
g17
S'line'
p49
sS'x'
F848
sg19
I00
sS'y'
F715
s(dp50
S'y'
F662
sS'x'
F1012
sg19
I00
s(dp51
S'y'
F510
sS'x'
F1039
sg19
I00
s(dp52
g17
S'curve'
p53
sS'x'
F1159
sg19
I01
sS'y'
F214
s(dp54
g17
S'line'
p55
sS'x'
F1246
sg19
I00
sS'y'
F0
s(dp56
g17
S'line'
p57
sS'x'
F1061
sg19
I00
sS'y'
F0
s(dp58
g17
S'line'
p59
sS'x'
F896
sg19
I01
sS'y'
F419
s(dp60
S'y'
F600
sS'x'
F825
sg19
I00
s(dp61
S'y'
F652
sS'x'
F797
sg19
I00
s(dp62
g17
S'curve'
p63
sS'x'
F619
sg19
I01
sS'y'
F652
s(dp64
g17
S'line'
p65
sS'x'
F360
sg19
I00
sS'y'
F652
s(dp66
g17
S'line'
p67
sS'x'
F360
sg19
I00
sS'y'
F0
stp68
stp69
sS'components'
p70
(tsS'anchors'
p71
(tsss."
AnchorPoint: "bot" 729 0 basechar 0
AnchorPoint: "top" 652 1456 basechar 0
LayerCount: 2
Fore
SplineSet
392 808 m 1
 663 808 l 2
 842 808 968 868 968 1058 c 0
 968 1242.50433815 876.500004929 1295.05605184 683.102276469 1295.05605184 c 0
 679.438118395 1295.05605184 675.737383143 1295.03718789 672 1295 c 2
 392 1295 l 1
 392 808 l 1
202 0 m 1
 202 1456 l 1
 668 1456 l 2
 950 1456 1168 1386 1168 1069 c 0
 1168 894 1083 759 885 718 c 1
 1004 680 1054 584 1111 440 c 2
 1282 0 l 1
 1078 0 l 1
 918 428 l 2
 854 599 815 647 654 647 c 2
 393 647 l 1
 393 0 l 1
 202 0 l 1
EndSplineSet
EndChar

StartChar: S
Encoding: 83 83 125
Width: 1214
VWidth: 0
Flags: HW
PickledData: "(dp1
S'org.robofab.postScriptHintData'
p2
(dp3
sS'com.typemytype.robofont.layerData'
p4
(dp5
S'b'
(dp6
S'name'
p7
S'S'
sS'lib'
p8
(dp9
sS'unicodes'
p10
(tsS'width'
p11
F1211
sS'contours'
p12
((dp13
S'points'
p14
((dp15
S'segmentType'
p16
S'curve'
p17
sS'x'
F596
sS'smooth'
p18
I01
sS'y'
F-23
s(dp19
S'y'
F-23
sS'x'
F321
sg18
I00
s(dp20
S'y'
F120
sS'x'
F158
sg18
I00
s(dp21
g16
S'curve'
p22
sS'x'
F140
sg18
I00
sS'y'
F141
s(dp23
g16
S'line'
p24
sS'x'
F219
sg18
I00
sS'y'
F271
s(dp25
S'y'
F243
sS'x'
F256
sg18
I00
s(dp26
S'y'
F125
sS'x'
F393
sg18
I00
s(dp27
g16
S'curve'
p28
sS'x'
F595
sg18
I01
sS'y'
F125
s(dp29
S'y'
F125
sS'x'
F797
sg18
I00
s(dp30
S'y'
F204
sS'x'
F898
sg18
I00
s(dp31
g16
S'curve'
p32
sS'x'
F898
sg18
I01
sS'y'
F360
s(dp33
S'y'
F536
sS'x'
F898
sg18
I00
s(dp34
S'y'
F601
sS'x'
F709
sg18
I00
s(dp35
g16
S'curve'
p36
sS'x'
F521
sg18
I01
sS'y'
F681
s(dp37
S'y'
F761
sS'x'
F333
sg18
I00
s(dp38
S'y'
F857
sS'x'
F145
sg18
I00
s(dp39
g16
S'curve'
p40
sS'x'
F145
sg18
I01
sS'y'
F1095
s(dp41
S'y'
F1350
sS'x'
F145
sg18
I00
s(dp42
S'y'
F1483
sS'x'
F357
sg18
I00
s(dp43
g16
S'curve'
p44
sS'x'
F620
sg18
I01
sS'y'
F1483
s(dp45
S'y'
F1483
sS'x'
F891
sg18
I00
s(dp46
S'y'
F1362
sS'x'
F1009
sg18
I00
s(dp47
g16
S'curve'
p48
sS'x'
F1034
sg18
I00
sS'y'
F1335
s(dp49
g16
S'line'
p50
sS'x'
F951
sg18
I00
sS'y'
F1217
s(dp51
S'y'
F1242
sS'x'
F921
sg18
I00
s(dp52
S'y'
F1334
sS'x'
F819
sg18
I00
s(dp53
g16
S'curve'
p54
sS'x'
F640
sg18
I01
sS'y'
F1334
s(dp55
S'y'
F1334
sS'x'
F478
sg18
I00
s(dp56
S'y'
F1270
sS'x'
F328
sg18
I00
s(dp57
g16
S'curve'
p58
sS'x'
F328
sg18
I01
sS'y'
F1105
s(dp59
S'y'
F934
sS'x'
F328
sg18
I00
s(dp60
S'y'
F868
sS'x'
F515
sg18
I00
s(dp61
g16
S'curve'
p62
sS'x'
F703
sg18
I01
sS'y'
F785
s(dp63
S'y'
F702
sS'x'
F891
sg18
I00
s(dp64
S'y'
F602
sS'x'
F1078
sg18
I00
s(dp65
g16
S'curve'
p66
sS'x'
F1078
sg18
I01
sS'y'
F364
s(dp67
S'y'
F78
sS'x'
F1078
sg18
I00
s(dp68
S'y'
F-23
sS'x'
F868
sg18
I00
stp69
stp70
sS'components'
p71
(tsS'anchors'
p72
(tsss."
AnchorPoint: "bot" 638 0 basechar 0
AnchorPoint: "top" 623 1456 basechar 0
LayerCount: 2
Fore
SplineSet
600 139 m 0
 800.720624361 139 902.062506512 230.788837927 902.062506512 389.501856517 c 0
 902.062506512 522.521772415 854.132514759 582.526245372 623 655 c 0
 605 661 555 674 534 681 c 0
 271 757 134 857 134 1098 c 0
 134 1351 342 1482 617 1482 c 0
 886 1482 1003 1392 1066 1330 c 1
 971 1201 l 1
 911 1259 793 1321 640 1321 c 0
 464 1321 337 1251 337 1104 c 0
 337 965 379 917 583 853 c 0
 601 848 648 834 668 829 c 0
 1006.2179494 728.529373854 1101.00787286 616.184209857 1101.00787286 383.685095602 c 0
 1101.00787286 108.816571594 879.97379154 -22 608 -22 c 0
 363 -22 187 86 129 142 c 1
 214 280 l 1
 277 229 429 139 600 139 c 0
EndSplineSet
EndChar

StartChar: T
Encoding: 84 84 132
Width: 1145
VWidth: 0
Flags: HW
PickledData: "(dp1
S'org.robofab.postScriptHintData'
p2
(dp3
sS'com.typemytype.robofont.layerData'
p4
(dp5
s."
AnchorPoint: "bot" 580 0 basechar 0
AnchorPoint: "top" 571 1456 basechar 0
LayerCount: 2
Fore
SplineSet
475 0 m 1
 475 1295 l 1
 10 1295 l 1
 10 1456 l 1
 1134 1456 l 1
 1134 1295 l 1
 666 1295 l 1
 666 0 l 1
 475 0 l 1
EndSplineSet
EndChar

StartChar: Thorn
Encoding: 222 222 137
Width: 1280
VWidth: 0
Flags: HW
PickledData: "(dp1
S'org.robofab.postScriptHintData'
p2
(dp3
sS'com.typemytype.robofont.layerData'
p4
(dp5
s."
LayerCount: 2
Fore
SplineSet
391 508 m 1
 649 508 l 2
 857 508 1000 589 1000 776 c 0
 1000 998 852 1051 610 1051 c 2
 391 1051 l 1
 391 508 l 1
200 0 m 1
 200 1456 l 1
 391 1456 l 1
 391 1212 l 1
 598 1212 l 2
 938 1212 1205 1140 1205 777 c 0
 1205 471 960 347 642 347 c 2
 391 347 l 1
 391 0 l 1
 200 0 l 1
EndSplineSet
EndChar

StartChar: U
Encoding: 85 85 138
Width: 1495
VWidth: 0
Flags: HW
PickledData: "(dp1
S'org.robofab.postScriptHintData'
p2
(dp3
sS'com.typemytype.robofont.layerData'
p4
(dp5
S'b'
(dp6
S'name'
p7
S'U'
sS'lib'
p8
(dp9
sS'unicodes'
p10
(tsS'width'
p11
F1496.9000000000001
sS'contours'
p12
(tsS'components'
p13
(tsS'anchors'
p14
(tsss."
AnchorPoint: "top" 747 1456 basechar 0
LayerCount: 2
Fore
SplineSet
744 -22 m 0
 311 -22 170 225 170 560 c 2
 170 1456 l 1
 361 1456 l 1
 361 556 l 2
 361 267 495 139 746 139 c 0
 990 139 1132 265 1132 552 c 2
 1132 1456 l 1
 1322 1456 l 1
 1322 562 l 2
 1322 218 1164 -22 744 -22 c 0
EndSplineSet
EndChar

StartChar: V
Encoding: 86 86 152
Width: 1348
VWidth: 0
Flags: HW
PickledData: "(dp1
S'org.robofab.postScriptHintData'
p2
(dp3
sS'com.typemytype.robofont.layerData'
p4
(dp5
S'b'
(dp6
S'name'
p7
S'V'
sS'lib'
p8
(dp9
sS'unicodes'
p10
(tsS'width'
p11
F1320.1500000000001
sS'contours'
p12
(tsS'components'
p13
(tsS'anchors'
p14
(tsss."
LayerCount: 2
Fore
SplineSet
576 0 m 1
 30 1456 l 1
 243 1456 l 1
 388.404426673 1046.73776001 532.286690599 635.953357265 679 228 c 1
 823.433611758 638.899721576 971.097894353 1046.56877231 1117 1456 c 1
 1318 1456 l 1
 776 0 l 1
 576 0 l 1
EndSplineSet
EndChar

StartChar: W
Encoding: 87 87 153
Width: 2022
VWidth: 0
Flags: HW
PickledData: "(dp1
S'org.robofab.postScriptHintData'
p2
(dp3
sS'com.typemytype.robofont.layerData'
p4
(dp5
S'b'
(dp6
S'name'
p7
S'W'
sS'lib'
p8
(dp9
sS'unicodes'
p10
(tsS'width'
p11
F1988.8499999999999
sS'contours'
p12
(tsS'components'
p13
(tsS'anchors'
p14
(tsss."
AnchorPoint: "top" 1022 1456 basechar 0
LayerCount: 2
Fore
SplineSet
440 0 m 1
 42 1456 l 1
 247 1456 l 1
 504 452 l 1
 558 217 l 1
 671.632166464 638.034500203 801.874984272 1042.45834906 923 1456 c 1
 1114 1456 l 1
 1236.66492611 1043.66492611 1365.02891532 637.028915322 1483 220 c 1
 1576.92056128 638.079438719 1683.46983659 1043.53016341 1783 1456 c 1
 1980 1456 l 1
 1593 0 l 1
 1370 0 l 1
 1015 1199 l 1
 660 0 l 1
 440 0 l 1
EndSplineSet
EndChar

StartChar: X
Encoding: 88 88 158
Width: 1302
VWidth: 0
Flags: HW
PickledData: "(dp1
S'org.robofab.postScriptHintData'
p2
(dp3
sS'com.typemytype.robofont.layerData'
p4
(dp5
S'b'
(dp6
S'name'
p7
S'X'
sS'lib'
p8
(dp9
sS'unicodes'
p10
(tsS'width'
p11
F1257.7
sS'contours'
p12
(tsS'components'
p13
(tsS'anchors'
p14
(tsss."
LayerCount: 2
Fore
SplineSet
35 0 m 1
 545 740 l 1
 57 1456 l 1
 288 1456 l 1
 662 896 l 1
 1037 1456 l 1
 1254 1456 l 1
 770 747 l 1
 1272 0 l 1
 1045 0 l 1
 655 589 l 1
 256 0 l 1
 35 0 l 1
EndSplineSet
EndChar

StartChar: Y
Encoding: 89 89 159
Width: 1239
VWidth: 0
Flags: HW
PickledData: "(dp1
S'org.robofab.postScriptHintData'
p2
(dp3
sS'com.typemytype.robofont.layerData'
p4
(dp5
S'b'
(dp6
S'name'
p7
S'Y'
sS'lib'
p8
(dp9
sS'unicodes'
p10
(tsS'width'
p11
F1225.45
sS'contours'
p12
(tsS'components'
p13
(tsS'anchors'
p14
(tsss."
AnchorPoint: "top" 640 1456 basechar 0
LayerCount: 2
Fore
SplineSet
522 0 m 1
 522 575 l 1
 21 1456 l 1
 233 1456 l 1
 622 743 l 1
 1013 1456 l 1
 1226 1456 l 1
 714 578 l 1
 714 0 l 1
 522 0 l 1
EndSplineSet
EndChar

StartChar: Z
Encoding: 90 90 166
Width: 1185
VWidth: 0
Flags: HW
PickledData: "(dp1
S'org.robofab.postScriptHintData'
p2
(dp3
sS'com.typemytype.robofont.layerData'
p4
(dp5
S'b'
(dp6
S'name'
p7
S'Z'
sS'lib'
p8
(dp9
sS'unicodes'
p10
(tsS'width'
p11
F1179.45
sS'contours'
p12
(tsS'components'
p13
(tsS'anchors'
p14
(tsss."
AnchorPoint: "top" 610 1456 basechar 0
LayerCount: 2
Fore
SplineSet
97 0 m 1
 97 103 l 1
 835 1295 l 1
 128 1295 l 1
 128 1456 l 1
 1091 1456 l 1
 1091 1357 l 1
 347 161 l 1
 1087 161 l 1
 1087 0 l 1
 97 0 l 1
EndSplineSet
EndChar

StartChar: a
Encoding: 97 97 170
Width: 1273
VWidth: 0
Flags: HW
PickledData: "(dp1
S'org.robofab.postScriptHintData'
p2
(dp3
sS'com.typemytype.robofont.layerData'
p4
(dp5
S'b'
(dp6
S'name'
p7
S'a'
sS'lib'
p8
(dp9
sS'unicodes'
p10
(tsS'width'
p11
I1268
sS'contours'
p12
((dp13
S'points'
p14
((dp15
S'segmentType'
p16
S'curve'
p17
sS'x'
F595
sS'smooth'
p18
I01
sS'y'
F-22
s(dp19
S'y'
F-22
sS'x'
F262
sg18
I00
s(dp20
S'y'
F221
sS'x'
F100
sg18
I00
s(dp21
g16
S'curve'
p22
sS'x'
F100
sg18
I01
sS'y'
F518
s(dp23
S'y'
F824
sS'x'
F100
sg18
I00
s(dp24
S'y'
F1052
sS'x'
F287
sg18
I00
s(dp25
g16
S'curve'
p26
sS'x'
F603
sg18
I01
sS'y'
F1052
s(dp27
S'y'
F1052
sS'x'
F816
sg18
I00
s(dp28
S'y'
F903
sS'x'
F905
sg18
I00
s(dp29
g16
S'curve'
p30
sS'x'
F928
sg18
I00
sS'y'
F847
s(dp31
g16
S'line'
p32
sS'x'
F928
sg18
I00
sS'y'
F1026
s(dp33
g16
S'line'
p34
sS'x'
F1092
sg18
I00
sS'y'
F1026
s(dp35
g16
S'line'
p36
sS'x'
F1092
sg18
I00
sS'y'
F0
s(dp37
g16
S'line'
p38
sS'x'
F928
sg18
I00
sS'y'
F0
s(dp39
g16
S'line'
p40
sS'x'
F928
sg18
I00
sS'y'
F185
s(dp41
S'y'
F82
sS'x'
F881
sg18
I00
s(dp42
S'y'
F-22
sS'x'
F769
sg18
I00
stp43
s(dp44
g14
((dp45
g16
S'curve'
p46
sS'x'
F608
sg18
I01
sS'y'
F918
s(dp47
S'y'
F918
sS'x'
F359
sg18
I00
s(dp48
S'y'
F725
sS'x'
F270
sg18
I00
s(dp49
g16
S'curve'
p50
sS'x'
F270
sg18
I01
sS'y'
F516
s(dp51
S'y'
F308
sS'x'
F270
sg18
I00
s(dp52
S'y'
F112
sS'x'
F364
sg18
I00
s(dp53
g16
S'curve'
p54
sS'x'
F609
sg18
I01
sS'y'
F112
s(dp55
S'y'
F112
sS'x'
F813
sg18
I00
s(dp56
S'y'
F277
sS'x'
F934
sg18
I00
s(dp57
g16
S'curve'
p58
sS'x'
F934
sg18
I01
sS'y'
F526
s(dp59
S'y'
F734
sS'x'
F934
sg18
I00
s(dp60
S'y'
F918
sS'x'
F826
sg18
I00
stp61
stp62
sS'components'
p63
(tsS'anchors'
p64
(tsss."
AnchorPoint: "top" 593 1026 basechar 0
LayerCount: 2
Fore
SplineSet
615 128 m 0
 825 128 929 288 929 521 c 0
 929 738 823 902 613 902 c 0
 391 902 286 736 286 518 c 0
 286 300 391 128 615 128 c 0
589 -22 m 0
 274 -22 101 225 101 513 c 0
 101 811 288 1052 589 1052 c 0
 739 1052 864 970 923 863 c 1
 923 1026 l 1
 1105 1026 l 1
 1105 0 l 1
 921 0 l 1
 921 175 l 1
 863 55 743 -22 589 -22 c 0
EndSplineSet
EndChar

StartChar: acute
Encoding: 180 180 175
Width: 607
VWidth: 0
Flags: HW
PickledData: "(dp1
S'org.robofab.postScriptHintData'
p2
(dp3
s."
AnchorPoint: "top" 141 1026 mark 0
LayerCount: 2
Fore
SplineSet
73 1172 m 1
 309 1532 l 1
 546 1532 l 1
 227 1172 l 1
 73 1172 l 1
EndSplineSet
EndChar

StartChar: ae
Encoding: 230 230 179
Width: 1791
VWidth: 0
Flags: HW
PickledData: "(dp1
S'org.robofab.postScriptHintData'
p2
(dp3
sS'com.typemytype.robofont.layerData'
p4
(dp5
S'b'
(dp6
S'name'
p7
S'ae'
p8
sS'lib'
p9
(dp10
sS'unicodes'
p11
(tsS'width'
p12
F1790.05
sS'contours'
p13
(tsS'components'
p14
((dp15
S'transformation'
p16
(I1
I0
I0
I1
I642
I0
tp17
sS'baseGlyph'
p18
S'e'
stp19
sS'anchors'
p20
(tsss."
AnchorPoint: "top" 902 1026 basechar 0
LayerCount: 2
Fore
SplineSet
978 612 m 1
 1531 612 l 1
 1529 628 l 1
 1514 786 1420 905 1262 905 c 0
 1090 905 997 765 978 612 c 1
482 126 m 0
 703 126 789 302 791 485 c 1
 638 485 l 2
 429 485 269 446 269 294 c 0
 269 172 369 126 482 126 c 0
1284.71992291 -22.1385414795 m 0
 1097.2562717 -22.1385414795 949.893761271 73.8167661477 881 226 c 1
 815 84 667 -24 468 -24 c 0
 243 -24 86 90 86 285 c 0
 86 571 335 615 721 615 c 2
 789 615 l 1
 789 784 700 904 531 904 c 0
 402 904 275 853 209 822 c 1
 154 952 l 1
 181 967 333 1053 557 1053 c 0
 695 1053 846 979 898 840 c 1
 971.84029759 968.461887589 1098.46470288 1053.05390363 1257.76298712 1053.05390363 c 0
 1541.75697185 1053.05390363 1693 835.167635915 1693 523 c 1
 1693 513 1691 486 1691 486 c 1
 977 486 l 1
 977 459 l 1
 984.180775041 263.067423871 1079.77468594 127.700435232 1292.54254976 127.700435232 c 0
 1476.89288557 127.700435232 1608 239 1608 239 c 1
 1662 105 l 1
 1662 105 1524.26658006 -22.1385414795 1284.71992291 -22.1385414795 c 0
EndSplineSet
EndChar

StartChar: ampersand
Encoding: 38 38 185
Width: 1536
VWidth: 0
Flags: HW
PickledData: "(dp1
S'org.robofab.postScriptHintData'
p2
(dp3
sS'com.typemytype.robofont.layerData'
p4
(dp5
S'b'
(dp6
S'name'
p7
S'ampersand'
p8
sS'lib'
p9
(dp10
sS'unicodes'
p11
(tsS'width'
p12
F1539.95
sS'contours'
p13
(tsS'components'
p14
(tsS'anchors'
p15
(tsss."
LayerCount: 2
Fore
SplineSet
595 920 m 1
 697 983 800 1070 800 1175 c 0
 800 1284 713 1326 637 1326 c 0
 545 1326 473 1275 473 1175 c 0
 473 1081 517 997 595 920 c 1
627 138 m 0
 782 138 880 201 968 293 c 1
 561 729 l 1
 430 656 320 575 320 413 c 0
 320 253 444 138 627 138 c 0
629 -24 m 0
 346 -24 130 137 130 411 c 0
 130 632 288 744 459 846 c 1
 365 950 295 1045 295 1179 c 0
 295 1375 446 1476 630 1476 c 0
 803 1476 977 1384 977 1185 c 0
 977 1029 845 902 702 815 c 1
 1061 423 l 1
 1141 554 1190 735 1190 903 c 1
 1360 875 l 1
 1354 671 1288 450 1180 293 c 1
 1238 234 1354 134 1493 100 c 1
 1371 -9 l 1
 1250 10 1130 118 1075 174 c 1
 968 61 825 -24 629 -24 c 0
EndSplineSet
EndChar

StartChar: approxequal
Encoding: 8776 8776 187
Width: 1351
VWidth: 0
Flags: HW
PickledData: "(dp1
S'org.robofab.postScriptHintData'
p2
(dp3
sS'com.typemytype.robofont.layerData'
p4
(dp5
s."
LayerCount: 2
Fore
SplineSet
310 252 m 1
 175 288 l 1
 216 453 325 555 481 555 c 0
 573 555 660 512 739 469 c 0
 812 433 875 392 925 392 c 0
 1002 392 1049 453 1087 558 c 1
 1218 525 l 1
 1181 365 1088 257 920 257 c 0
 839 257 759 291 652 354 c 0
 589 390 530 418 479 418 c 0
 391 418 338 353 310 252 c 1
310 660 m 1
 173 691 l 1
 210 856 320 959 479 959 c 0
 566 959 640 926 731 872 c 0
 815 823 877 797 924 797 c 0
 1000 797 1049 856 1086 963 c 1
 1216 930 l 1
 1181 768 1085 663 918 663 c 0
 832 663 756 694 648 758 c 0
 584 796 528 825 476 825 c 0
 390 825 339 759 310 660 c 1
EndSplineSet
EndChar

StartChar: asciicircum
Encoding: 94 94 190
Width: 1628
VWidth: 0
Flags: HW
PickledData: "(dp1
S'org.robofab.postScriptHintData'
p2
(dp3
sS'com.typemytype.robofont.layerData'
p4
(dp5
S'b'
(dp6
S'name'
p7
S'asciicircum'
p8
sS'lib'
p9
(dp10
sS'unicodes'
p11
(tsS'width'
p12
F1623.3499999999999
sS'contours'
p13
(tsS'components'
p14
(tsS'anchors'
p15
(tsss."
LayerCount: 2
Fore
SplineSet
271 563 m 1
 753 1456 l 1
 868 1456 l 1
 1357 563 l 1
 1179 563 l 1
 809 1256 l 1
 452 563 l 1
 271 563 l 1
EndSplineSet
EndChar

StartChar: asciitilde
Encoding: 126 126 191
Width: 1253
VWidth: 0
Flags: HW
PickledData: "(dp1
S'org.robofab.postScriptHintData'
p2
(dp3
sS'com.typemytype.robofont.layerData'
p4
(dp5
s."
LayerCount: 2
Fore
SplineSet
262 373 m 1
 127 437 l 1
 157 580 252 691 422 691 c 0
 501 691 597 652 682 617 c 0
 741 595 831 554 873 554 c 0
 953 554 1006 641 1027 732 c 1
 1174 687 l 1
 1137 522 1036 402 873 402 c 0
 811 402 728 436 646 472 c 0
 588 495 484 540 426 540 c 0
 330 540 284 467 262 373 c 1
EndSplineSet
EndChar

StartChar: asterisk
Encoding: 42 42 192
Width: 1112
VWidth: 0
Flags: HW
PickledData: "(dp1
S'org.robofab.postScriptHintData'
p2
(dp3
sS'com.typemytype.robofont.guides'
p4
((dp5
S'y'
I1149
sS'x'
I567
sS'magnetic'
p6
I5
sS'angle'
p7
I0
sS'isGlobal'
p8
I00
stp9
sS'com.typemytype.robofont.layerData'
p10
(dp11
S'b'
(dp12
S'name'
p13
S'asterisk'
p14
sS'lib'
p15
(dp16
sS'unicodes'
p17
(tsS'width'
p18
F1107.9000000000001
sS'contours'
p19
(tsS'components'
p20
(tsS'anchors'
p21
(tsss."
LayerCount: 2
Fore
SplineSet
718 711 m 1
 556 974 l 1
 397 716 l 1
 259 806 l 1
 453 1044 l 1
 183 1133 l 1
 238 1275 l 1
 491 1155 l 1
 461 1457 l 1
 631 1457 l 1
 616 1155 l 1
 851 1275 l 1
 919 1133 l 1
 656 1044 l 1
 858 798 l 1
 718 711 l 1
EndSplineSet
EndChar

StartChar: at
Encoding: 64 64 193
Width: 1768
VWidth: 0
Flags: HW
PickledData: "(dp1
S'org.robofab.postScriptHintData'
p2
(dp3
sS'com.typemytype.robofont.layerData'
p4
(dp5
S'b'
(dp6
S'name'
p7
S'at'
p8
sS'lib'
p9
(dp10
sS'unicodes'
p11
(tsS'width'
p12
F1771.2
sS'contours'
p13
(tsS'components'
p14
(tsS'anchors'
p15
(tsss."
LayerCount: 2
Fore
SplineSet
1097.05009765 821.783328069 m 0
 1097.05009765 935.346956852 1038.61311861 1010.03061845 940.471974268 1010.03061845 c 0
 769.397719219 1010.03061845 653 793.644306405 653 596 c 0
 653 482 718 406 816 406 c 0
 971.818399551 406 1097.05009765 604.028101221 1097.05009765 821.783328069 c 0
924.629200122 1142.02991096 m 0
 1034.24885213 1142.02991096 1121.85902162 1092.58740993 1146 992 c 1
 1174 1114 l 1
 1329 1114 l 1
 1221 605 l 2
 1204 528 1197 485 1197 443 c 0
 1197 401 1220 359 1270 359 c 0
 1395 359 1530 550 1530 802 c 0
 1530 1150 1262 1355 937 1355 c 0
 563 1355 262 1109 262 676 c 0
 262 254 571 34 935 34 c 0
 1116 34 1303 89 1431 194 c 1
 1502 112 l 1
 1372 -20 1151 -88 925 -88 c 0
 457 -88 108 204 108 677 c 0
 108 1170 478 1478 933 1478 c 0
 1349 1478 1658 1199 1658 798 c 0
 1658 504 1480 258 1280 258 c 0
 1157.9746234 258 1087.64809868 326.316339982 1087.64809868 446.98244322 c 0
 1087.64809868 451.901652956 1087.76497842 456.907865812 1088 462 c 1
 1045 353 937 266 796 266 c 0
 638.951068031 266 480.926527225 386.975495907 480.926527225 613.508291393 c 0
 480.926527225 916.481426495 705.933955555 1142.02991096 924.629200122 1142.02991096 c 0
EndSplineSet
EndChar

StartChar: b
Encoding: 98 98 195
Width: 1274
VWidth: 0
Flags: HW
PickledData: "(dp1
S'org.robofab.postScriptHintData'
p2
(dp3
sS'com.typemytype.robofont.layerData'
p4
(dp5
S'b'
(dp6
S'name'
p7
S'b'
sS'lib'
p8
(dp9
sS'unicodes'
p10
(tsS'width'
p11
F1270.0999999999999
sS'contours'
p12
(tsS'components'
p13
(tsS'anchors'
p14
(tsss."
AnchorPoint: "top" 707 1026 basechar 0
LayerCount: 2
Fore
SplineSet
679 128 m 0
 879 128 980 288 980 524 c 0
 980 744 872 902 678 902 c 0
 474 902 349 743 349 516 c 0
 349 287 472 128 679 128 c 0
703 -22 m 0
 532 -22 403 68 353 174 c 1
 352 0 l 1
 164 0 l 1
 167 100 171 224 171 270 c 2
 171 1486 l 1
 356 1486 l 1
 356 852 l 1
 399 947 519 1052 706 1052 c 0
 991 1052 1172 843 1172 526 c 0
 1172 192 973 -22 703 -22 c 0
EndSplineSet
EndChar

StartChar: backslash
Encoding: 92 92 196
Width: 834
VWidth: 0
Flags: HW
PickledData: "(dp1
S'org.robofab.postScriptHintData'
p2
(dp3
sS'com.typemytype.robofont.layerData'
p4
(dp5
s."
LayerCount: 2
Fore
SplineSet
612 13 m 1
 53 1456 l 1
 220 1456 l 1
 784 13 l 1
 612 13 l 1
EndSplineSet
EndChar

StartChar: bar
Encoding: 124 124 197
Width: 950
VWidth: 0
Flags: HW
PickledData: "(dp1
S'org.robofab.postScriptHintData'
p2
(dp3
sS'com.typemytype.robofont.layerData'
p4
(dp5
s."
LayerCount: 2
Fore
SplineSet
387 -482 m 1
 387 1535 l 1
 563 1535 l 1
 563 -482 l 1
 387 -482 l 1
EndSplineSet
EndChar

StartChar: braceleft
Encoding: 123 123 199
Width: 789
VWidth: 0
Flags: HW
PickledData: "(dp1
S'org.robofab.postScriptHintData'
p2
(dp3
sS'com.typemytype.robofont.layerData'
p4
(dp5
s."
LayerCount: 2
Fore
SplineSet
504 1130 m 2
 504 868 l 2
 504 737 427 658 329 624 c 1
 433 581 504 489 504 354 c 2
 504 98 l 2
 504 -43 565 -78 699 -78 c 1
 699 -221 l 1
 413 -219 318 -104 318 83 c 2
 318 329 l 2
 318 475 270 553 126 565 c 1
 126 691 l 1
 259 701 316 775 317 910 c 1
 317 1155 l 2
 317 1336 396 1475 700 1475 c 1
 700 1332 l 1
 545 1331 504 1262 504 1130 c 2
EndSplineSet
EndChar

StartChar: braceright
Encoding: 125 125 200
Width: 787
VWidth: 0
Flags: HW
PickledData: "(dp1
S'org.robofab.postScriptHintData'
p2
(dp3
sS'com.typemytype.robofont.layerData'
p4
(dp5
s."
LayerCount: 2
Fore
SplineSet
107 -221 m 1
 107 -77 l 1
 263 -77 304 -7 304 125 c 2
 304 387 l 2
 304 518 381 597 479 631 c 1
 375 674 304 766 304 901 c 2
 304 1157 l 2
 304 1298 243 1333 109 1333 c 1
 109 1475 l 1
 395 1473 490 1359 490 1172 c 2
 490 926 l 2
 490 780 538 702 682 690 c 1
 682 564 l 1
 549 554 491 480 490 345 c 1
 490 100 l 2
 490 -81 412 -221 107 -221 c 1
EndSplineSet
EndChar

StartChar: bracketleft
Encoding: 91 91 201
Width: 660
VWidth: 0
Flags: HW
PickledData: "(dp1
S'org.robofab.postScriptHintData'
p2
(dp3
sS'com.typemytype.robofont.layerData'
p4
(dp5
s."
LayerCount: 2
Fore
SplineSet
172 -227 m 1
 172 1470 l 1
 582 1470 l 1
 582 1331 l 1
 353 1331 l 1
 353 -88 l 1
 583 -88 l 1
 583 -227 l 1
 172 -227 l 1
EndSplineSet
EndChar

StartChar: bracketright
Encoding: 93 93 202
Width: 660
VWidth: 0
Flags: HW
PickledData: "(dp1
S'org.robofab.postScriptHintData'
p2
(dp3
sS'com.typemytype.robofont.layerData'
p4
(dp5
s."
LayerCount: 2
Fore
SplineSet
124 -227 m 1
 124 -88 l 1
 351 -88 l 1
 351 1331 l 1
 122 1331 l 1
 122 1470 l 1
 532 1470 l 1
 532 -227 l 1
 124 -227 l 1
EndSplineSet
EndChar

StartChar: breve
Encoding: 728 728 203
Width: 615
VWidth: 0
Flags: HW
PickledData: "(dp1
S'org.robofab.postScriptHintData'
p2
(dp3
sS'com.typemytype.robofont.layerData'
p4
(dp5
S'b'
(dp6
S'name'
p7
S'breve'
p8
sS'lib'
p9
(dp10
sS'unicodes'
p11
(tsS'width'
p12
F621.60000000000002
sS'contours'
p13
(tsS'components'
p14
(tsS'anchors'
p15
(tsss."
AnchorPoint: "top" 315 1026 mark 0
LayerCount: 2
Fore
SplineSet
310 1180 m 0
 139 1180 44 1259 32 1440 c 1
 163 1440 l 1
 170 1341 226 1312 310 1312 c 0
 393 1312 444 1345 454 1440 c 1
 583 1440 l 1
 571 1261 475 1180 310 1180 c 0
EndSplineSet
EndChar

StartChar: brokenbar
Encoding: 166 166 204
Width: 500
VWidth: 0
Flags: HW
PickledData: "(dp1
S'org.robofab.postScriptHintData'
p2
(dp3
sS'com.typemytype.robofont.layerData'
p4
(dp5
s."
LayerCount: 2
Fore
SplineSet
197 648 m 1
 197 1535 l 1
 357 1535 l 1
 357 648 l 1
 197 648 l 1
198 -482 m 1
 198 399 l 1
 358 399 l 1
 358 -482 l 1
 198 -482 l 1
EndSplineSet
EndChar

StartChar: bullet
Encoding: 8226 8226 205
Width: 989
VWidth: 0
Flags: HW
PickledData: "(dp1
S'org.robofab.postScriptHintData'
p2
(dp3
sS'com.typemytype.robofont.layerData'
p4
(dp5
S'b'
(dp6
S'name'
p7
S'bullet'
p8
sS'lib'
p9
(dp10
sS'unicodes'
p11
(tsS'width'
p12
F989.64999999999998
sS'contours'
p13
(tsS'components'
p14
(tsS'anchors'
p15
(tsss."
LayerCount: 2
Fore
SplineSet
501 378 m 0
 310 378 176 522 176 691 c 0
 176 864 317 1010 501 1010 c 0
 689 1010 831 861 831 691 c 0
 831 518 687 378 501 378 c 0
EndSplineSet
EndChar

StartChar: c
Encoding: 99 99 207
Width: 1064
VWidth: 0
Flags: HW
PickledData: "(dp1
S'org.robofab.postScriptHintData'
p2
(dp3
sS'com.typemytype.robofont.layerData'
p4
(dp5
S'b'
(dp6
S'name'
p7
S'c'
sS'lib'
p8
(dp9
sS'unicodes'
p10
(tsS'width'
p11
F1035.55
sS'contours'
p12
((dp13
S'points'
p14
((dp15
S'segmentType'
p16
S'curve'
p17
sS'x'
F605
sS'smooth'
p18
I01
sS'y'
F-22
s(dp19
S'y'
F-22
sS'x'
F302
sg18
I00
s(dp20
S'y'
F180
sS'x'
F98
sg18
I00
s(dp21
g16
S'curve'
p22
sS'x'
F98
sg18
I01
sS'y'
F503
s(dp23
S'y'
F840
sS'x'
F98
sg18
I00
s(dp24
S'y'
F1052
sS'x'
F301
sg18
I00
s(dp25
g16
S'curve'
p26
sS'x'
F624
sg18
I01
sS'y'
F1052
s(dp27
S'y'
F1052
sS'x'
F750
sg18
I00
s(dp28
S'y'
F1001
sS'x'
F871
sg18
I00
s(dp29
g16
S'curve'
p30
sS'x'
F938
sg18
I00
sS'y'
F922
s(dp31
g16
S'line'
p32
sS'x'
F890
sg18
I00
sS'y'
F805
s(dp33
S'y'
F874
sS'x'
F825
sg18
I00
s(dp34
S'y'
F918
sS'x'
F721
sg18
I00
s(dp35
g16
S'curve'
p36
sS'x'
F619
sg18
I01
sS'y'
F918
s(dp37
S'y'
F918
sS'x'
F406
sg18
I00
s(dp38
S'y'
F756
sS'x'
F268
sg18
I00
s(dp39
g16
S'curve'
p40
sS'x'
F268
sg18
I01
sS'y'
F505
s(dp41
S'y'
F260
sS'x'
F268
sg18
I00
s(dp42
S'y'
F112
sS'x'
F407
sg18
I00
s(dp43
g16
S'curve'
p44
sS'x'
F611
sg18
I01
sS'y'
F112
s(dp45
S'y'
F112
sS'x'
F716
sg18
I00
s(dp46
S'y'
F145
sS'x'
F827
sg18
I00
s(dp47
g16
S'curve'
p48
sS'x'
F901
sg18
I00
sS'y'
F202
s(dp49
g16
S'line'
p50
sS'x'
F953
sg18
I00
sS'y'
F87
s(dp51
S'y'
F19
sS'x'
F873
sg18
I00
s(dp52
S'y'
F-22
sS'x'
F747
sg18
I00
stp53
stp54
sS'components'
p55
(tsS'anchors'
p56
(tsss."
AnchorPoint: "bot" 619 0 basechar 0
AnchorPoint: "top" 602 1026 basechar 0
LayerCount: 2
Fore
SplineSet
624 -22 m 0
 302 -22 101 202 101 507 c 0
 101 830 310 1052 628 1052 c 0
 767 1052 887 1009 967 930 c 1
 902 808 l 1
 840 862 749 901 641 901 c 0
 438 901 291 765 291 508 c 0
 291 276 425 128 638 128 c 0
 760 128 857 177 918 224 c 1
 976 91 l 1
 882 18 766 -22 624 -22 c 0
EndSplineSet
EndChar

StartChar: caron
Encoding: 711 711 209
Width: 699
VWidth: 0
Flags: HW
PickledData: "(dp1
S'org.robofab.postScriptHintData'
p2
(dp3
s."
AnchorPoint: "top" 349 1026 mark 0
LayerCount: 2
Fore
SplineSet
268 1154 m 1
 21 1505 l 1
 185 1505 l 1
 347 1275 l 1
 510 1505 l 1
 678 1505 l 1
 432 1154 l 1
 268 1154 l 1
EndSplineSet
EndChar

StartChar: caron.alt
Encoding: 65537 -1 210
Width: 600
VWidth: 0
Flags: HW
PickledData: "(dp1
S'org.robofab.postScriptHintData'
p2
(dp3
s."
AnchorPoint: "caron.alt" 48 1026 mark 0
LayerCount: 2
Fore
SplineSet
325 994 m 1
 434 1468 l 1
 643 1468 l 1
 475 994 l 1
 325 994 l 1
EndSplineSet
EndChar

StartChar: cedilla
Encoding: 184 184 215
Width: 529
VWidth: 0
Flags: HW
PickledData: "(dp1
S'org.robofab.postScriptHintData'
p2
(dp3
sS'com.typemytype.robofont.layerData'
p4
(dp5
S'b'
(dp6
S'name'
p7
S'cedilla'
p8
sS'lib'
p9
(dp10
sS'unicodes'
p11
(tsS'width'
p12
I529
sS'contours'
p13
(tsS'components'
p14
(tsS'anchors'
p15
(tsss."
AnchorPoint: "bot" 217 0 mark 0
LayerCount: 2
Fore
SplineSet
221 -447 m 0
 156 -447 77 -430 45 -419 c 1
 58 -322 l 1
 83 -333 155 -349 212 -349 c 0
 213.153859104 -349.016722596 214.300167787 -349.025055835 215.438855904 -349.025055835 c 0
 282.392952941 -349.025055835 323 -320.214038002 323 -274 c 0
 323 -235 283 -187 163 -187 c 2
 141 -187 l 1
 173 9 l 1
 270 9 l 1
 250 -119 l 1
 387 -132 478 -189 478 -279 c 0
 478 -389.058916336 366.907957767 -447.012715519 224.655861031 -447.012715519 c 0
 223.439502295 -447.012715519 222.220865294 -447.008478231 221 -447 c 0
EndSplineSet
EndChar

StartChar: cent
Encoding: 162 162 216
Width: 1030
VWidth: 0
Flags: HW
PickledData: "(dp1
S'org.robofab.postScriptHintData'
p2
(dp3
sS'com.typemytype.robofont.layerData'
p4
(dp5
S'b'
(dp6
S'name'
p7
S'cent'
p8
sS'lib'
p9
(dp10
sS'unicodes'
p11
(tsS'width'
p12
F1033.2
sS'contours'
p13
(tsS'components'
p14
(tsS'anchors'
p15
(tsss."
LayerCount: 2
Fore
SplineSet
669 -20.6156069046 m 1
 669 -213 l 1
 586 -213 l 1
 586 -20.9370143351 l 1
 286.263884045 -3.97664182223 101 214.18238902 101 507 c 0
 101 815.555431719 291.725004348 1031.94232067 586 1050.67890106 c 1
 586 1252 l 1
 669 1252 l 1
 669 1050.72387821 l 1
 790.537555597 1043.06508165 894.978468447 1001.12126241 967 930 c 1
 902 808 l 1
 845.434553907 857.266678855 764.730231369 894.047731962 669 900.117224091 c 1
 669 129.060647146 l 1
 776.463356449 136.436926449 862.260815604 181.053415301 918 224 c 1
 976 91 l 1
 892.128288944 25.8655860945 790.742068365 -12.9970635271 669 -20.6156069046 c 1
586 131.098467702 m 1
 586 897.49779212 l 1
 411.98074086 874.714159747 291 741.148473221 291 508 c 0
 291 295.499200537 403.421652599 153.471675838 586 131.098467702 c 1
EndSplineSet
EndChar

StartChar: circumflex
Encoding: 710 710 217
Width: 699
VWidth: 0
Flags: HW
PickledData: "(dp1
S'org.robofab.postScriptHintData'
p2
(dp3
sS'com.typemytype.robofont.layerData'
p4
(dp5
S'b'
(dp6
S'name'
p7
S'circumflex'
p8
sS'lib'
p9
(dp10
sS'unicodes'
p11
(tsS'width'
p12
I699
sS'contours'
p13
(tsS'components'
p14
(tsS'anchors'
p15
(tsss."
AnchorPoint: "top" 346 1026 mark 0
LayerCount: 2
Fore
SplineSet
34 1154 m 1
 268 1501 l 1
 430 1501 l 1
 666 1154 l 1
 510 1154 l 1
 348 1372 l 1
 184 1154 l 1
 34 1154 l 1
EndSplineSet
EndChar

StartChar: colon
Encoding: 58 58 218
Width: 541
VWidth: 0
Flags: HW
PickledData: "(dp1
S'org.robofab.postScriptHintData'
p2
(dp3
sS'com.typemytype.robofont.layerData'
p4
(dp5
S'b'
(dp6
S'name'
p7
S'colon'
p8
sS'lib'
p9
(dp10
sS'unicodes'
p11
(tsS'width'
p12
F544.60000000000002
sS'contours'
p13
(tsS'components'
p14
(tsS'anchors'
p15
(tsss."
LayerCount: 2
Fore
SplineSet
173 832 m 1
 173 1058 l 1
 391 1058 l 1
 391 832 l 1
 173 832 l 1
173 1 m 1
 173 227 l 1
 391 227 l 1
 391 1 l 1
 173 1 l 1
EndSplineSet
EndChar

StartChar: comma
Encoding: 44 44 219
Width: 487
VWidth: 0
Flags: HW
PickledData: "(dp1
S'org.robofab.postScriptHintData'
p2
(dp3
sS'com.typemytype.robofont.layerData'
p4
(dp5
S'b'
(dp6
S'name'
p7
S'comma'
p8
sS'lib'
p9
(dp10
sS'unicodes'
p11
(tsS'width'
p12
F491.10000000000002
sS'contours'
p13
(tsS'components'
p14
(tsS'anchors'
p15
(tsss."
LayerCount: 2
Fore
SplineSet
72 -265 m 1
 180 222 l 1
 389 222 l 1
 222 -265 l 1
 72 -265 l 1
EndSplineSet
EndChar

StartChar: copyright
Encoding: 169 169 220
Width: 1728
VWidth: 0
Flags: HW
PickledData: "(dp1
S'org.robofab.postScriptHintData'
p2
(dp3
sS'com.typemytype.robofont.layerData'
p4
(dp5
S'b'
(dp6
S'name'
p7
S'copyright'
p8
sS'lib'
p9
(dp10
sS'unicodes'
p11
(tsS'width'
p12
I1733
sS'contours'
p13
(tsS'components'
p14
(tsS'anchors'
p15
(tsss."
LayerCount: 2
Fore
SplineSet
863 -25 m 0
 448 -25 108 312 108 728 c 0
 108 1144 448 1483 863 1483 c 0
 1280 1483 1621 1144 1621 728 c 0
 1621 312 1280 -25 863 -25 c 0
865 75 m 0
 1218 75 1503 371 1503 725 c 0
 1503 1080 1218 1381 865 1381 c 0
 510 1381 225 1080 225 725 c 0
 225 371 510 75 865 75 c 0
886 286 m 0
 640 286 452 459 452 718 c 0
 452 992 630 1173 889 1173 c 0
 1000 1173 1099 1137 1164 1072 c 1
 1111 970 l 1
 1059 1014 982 1047 898 1047 c 0
 747 1047 611 948 611 719 c 0
 611 520 731 411 893 411 c 0
 980 411 1063 442 1124 490 c 1
 1174 381 l 1
 1092 319 995 286 886 286 c 0
EndSplineSet
EndChar

StartChar: currency
Encoding: 164 164 221
Width: 1218
VWidth: 0
Flags: HW
PickledData: "(dp1
S'org.robofab.postScriptHintData'
p2
(dp3
s."
LayerCount: 2
Fore
SplineSet
609 712 m 0
 783 712 911 850 911 1024 c 0
 911 1198 783 1333 609 1333 c 0
 435 1333 307 1198 307 1024 c 0
 307 850 435 712 609 712 c 0
171 545 m 1
 120 596 l 1
 307 783 l 1
 252 849 219 933 219 1026 c 0
 219 1123 255 1211 314 1278 c 1
 119 1473 l 1
 170 1524 l 1
 367 1328 l 1
 433 1380 518 1411 610 1411 c 0
 702 1411 786 1380 853 1329 c 1
 1048 1524 l 1
 1099 1473 l 1
 906 1280 l 1
 966 1212 1002 1124 1002 1026 c 0
 1002 933 969 848 913 781 c 1
 1099 596 l 1
 1048 545 l 1
 862 731 l 1
 794 675 706 641 610 641 c 0
 514 641 426 675 358 732 c 1
 171 545 l 1
EndSplineSet
EndChar

StartChar: d
Encoding: 100 100 222
Width: 1264
VWidth: 0
Flags: HW
PickledData: "(dp1
S'org.robofab.postScriptHintData'
p2
(dp3
sS'com.typemytype.robofont.layerData'
p4
(dp5
S'b'
(dp6
S'name'
p7
S'd'
sS'lib'
p8
(dp9
sS'unicodes'
p10
(tsS'width'
p11
F1265.05
sS'contours'
p12
(tsS'components'
p13
(tsS'anchors'
p14
(tsss."
AnchorPoint: "caron.alt" 898 1026 basechar 0
AnchorPoint: "top" 553 1026 basechar 0
LayerCount: 2
Fore
SplineSet
597 128 m 0
 803 128 912 287 912 522 c 0
 912 741 800 902 600 902 c 0
 401 902 292 742 292 514 c 0
 292 289 396 128 597 128 c 0
570 -22 m 0
 299 -22 101 184 101 510 c 0
 101 824 277 1052 580 1052 c 0
 747 1052 867 962 908 872 c 1
 908 1486 l 1
 1093 1486 l 1
 1093 266 l 1
 1094 204 1096 126 1100 0 c 1
 913 0 l 1
 909 174 l 1
 872 78 757 -22 570 -22 c 0
EndSplineSet
EndChar

StartChar: dagger
Encoding: 8224 8224 223
Width: 1022
VWidth: 0
Flags: HW
PickledData: "(dp1
S'org.robofab.postScriptHintData'
p2
(dp3
sS'com.typemytype.robofont.layerData'
p4
(dp5
s."
LayerCount: 2
Fore
SplineSet
445 0 m 1
 445 903 l 1
 117 903 l 1
 117 1034 l 1
 445 1034 l 1
 445 1458 l 1
 603 1458 l 1
 603 1034 l 1
 938 1034 l 1
 938 903 l 1
 597 903 l 1
 597 0 l 1
 445 0 l 1
EndSplineSet
EndChar

StartChar: daggerdbl
Encoding: 8225 8225 224
Width: 1086
VWidth: 0
Flags: HW
PickledData: "(dp1
S'org.robofab.postScriptHintData'
p2
(dp3
sS'com.typemytype.robofont.layerData'
p4
(dp5
S'b'
(dp6
S'name'
p7
S'daggerdbl'
p8
sS'lib'
p9
(dp10
sS'unicodes'
p11
(tsS'width'
p12
F1092.6500000000001
sS'contours'
p13
(tsS'components'
p14
(tsS'anchors'
p15
(tsss."
LayerCount: 2
Fore
SplineSet
127 1034 m 1
 462 1034 l 1
 462 1459 l 1
 626 1459 l 1
 626 1034 l 1
 961 1034 l 1
 961 919 l 1
 626 919 l 1
 626 510 l 1
 954 510 l 1
 954 399 l 1
 626 399 l 1
 626 0 l 1
 462 0 l 1
 462 399 l 1
 123 399 l 1
 123 510 l 1
 462 510 l 1
 462 919 l 1
 127 919 l 1
 127 1034 l 1
EndSplineSet
EndChar

StartChar: degree
Encoding: 176 176 228
Width: 854
VWidth: 0
Flags: HW
PickledData: "(dp1
S'org.robofab.postScriptHintData'
p2
(dp3
sS'com.typemytype.robofont.layerData'
p4
(dp5
S'b'
(dp6
S'name'
p7
S'degree'
p8
sS'lib'
p9
(dp10
sS'unicodes'
p11
(tsS'width'
p12
F856.60000000000002
sS'contours'
p13
(tsS'components'
p14
(tsS'anchors'
p15
(tsss."
LayerCount: 2
Fore
SplineSet
427 854 m 0
 255 854 123 988 123 1152 c 0
 123 1318 255 1450 427 1450 c 0
 600 1450 731 1318 731 1152 c 0
 731 988 599 854 427 854 c 0
427 968 m 0
 539 968 607 1053 607 1153 c 0
 607 1253 538 1336 427 1336 c 0
 317 1336 247 1253 247 1153 c 0
 247 1053 315 968 427 968 c 0
EndSplineSet
EndChar

StartChar: dieresis
Encoding: 168 168 229
Width: 743
VWidth: 0
Flags: HW
PickledData: "(dp1
S'org.robofab.postScriptHintData'
p2
(dp3
s."
AnchorPoint: "top" 371 1026 mark 0
LayerCount: 2
Fore
SplineSet
480 1182 m 1
 480 1371 l 1
 666 1371 l 1
 666 1182 l 1
 480 1182 l 1
77 1182 m 1
 77 1371 l 1
 264 1371 l 1
 264 1182 l 1
 77 1182 l 1
EndSplineSet
EndChar

StartChar: divide
Encoding: 247 247 230
Width: 1286
VWidth: 0
Flags: HW
PickledData: "(dp1
S'org.robofab.postScriptHintData'
p2
(dp3
sS'com.typemytype.robofont.layerData'
p4
(dp5
s."
LayerCount: 2
Fore
SplineSet
524 865 m 1
 524 1090 l 1
 761 1090 l 1
 761 865 l 1
 524 865 l 1
157 476 m 1
 157 632 l 1
 1122 632 l 1
 1122 476 l 1
 157 476 l 1
525 11 m 1
 525 237 l 1
 762 237 l 1
 762 11 l 1
 525 11 l 1
EndSplineSet
EndChar

StartChar: dollar
Encoding: 36 36 232
Width: 1197
VWidth: 0
Flags: HW
PickledData: "(dp1
S'org.robofab.postScriptHintData'
p2
(dp3
sS'com.typemytype.robofont.layerData'
p4
(dp5
S'b'
(dp6
S'name'
p7
S'dollar'
p8
sS'lib'
p9
(dp10
sS'unicodes'
p11
(tsS'width'
p12
F1200.0999999999999
sS'contours'
p13
(tsS'components'
p14
(tsS'anchors'
p15
(tsss."
LayerCount: 2
Fore
SplineSet
590 -203 m 1
 675 -203 l 1
 675 -19.2505598504 l 1
 915.304451757 0.879699628497 1101.00787286 131.706527441 1101.00787286 383.685095602 c 0
 1101.00787286 614.572187605 1007.52783601 726.965717336 675 826.908425549 c 1
 675 1319.90925183 l 1
 810.97698017 1311.39481558 915.659341635 1254.49596975 971 1201 c 1
 1066 1330 l 1
 1007.72488564 1387.35011255 903.245839934 1468.65781912 675 1480.53110115 c 1
 675 1628 l 1
 590 1628 l 1
 590 1481.57237977 l 1
 328.499029612 1473.22148948 134 1342.65132554 134 1098 c 0
 134 857 271 757 534 681 c 0
 546.611585362 676.796138213 569.68237815 670.428302475 590 664.712245554 c 1
 590 139.102091383 l 1
 423.094841915 142.501703178 275.769193971 229.996366785 214 280 c 1
 129 142 l 1
 185.569598771 87.3810770489 354.39071407 -16.7046158978 590 -21.8053371352 c 1
 590 -203 l 1
675 143.939491256 m 1
 675 637.810201765 l 1
 861.491142325 572.463336315 902.062506512 511.885336209 902.062506512 389.501856517 c 0
 902.062506512 251.711588653 826.881711585 165.260833837 675 143.939491256 c 1
590 851.023908522 m 1
 383.667076943 909.899905796 337 966.067590516 337 1104 c 0
 337 1236.6705417 440.447037105 1306.62122627 590 1318.99805086 c 1
 590 851.023908522 l 1
EndSplineSet
EndChar

StartChar: dotaccent
Encoding: 729 729 233
Width: 524
VWidth: 0
Flags: HW
PickledData: "(dp1
S'org.robofab.postScriptHintData'
p2
(dp3
sS'com.typemytype.robofont.layerData'
p4
(dp5
S'b'
(dp6
S'name'
p7
S'dotaccent'
p8
sS'lib'
p9
(dp10
sS'unicodes'
p11
(tsS'width'
p12
F524
sS'contours'
p13
(tsS'components'
p14
(tsS'anchors'
p15
(tsss."
AnchorPoint: "top" 265 1026 mark 0
LayerCount: 2
Fore
SplineSet
168 1256 m 1
 168 1438 l 1
 356 1438 l 1
 356 1256 l 1
 168 1256 l 1
EndSplineSet
EndChar

StartChar: dotlessi
Encoding: 305 305 234
Width: 533
VWidth: 0
Flags: HW
PickledData: "(dp1
S'org.robofab.postScriptHintData'
p2
(dp3
sS'com.typemytype.robofont.layerData'
p4
(dp5
s."
AnchorPoint: "top" 268 1026 basechar 0
LayerCount: 2
Fore
SplineSet
177 0 m 1
 176 1026 l 1
 361 1026 l 1
 362 0 l 1
 177 0 l 1
EndSplineSet
EndChar

StartChar: dotlessj
Encoding: 567 567 235
Width: 503
VWidth: 0
Flags: HW
PickledData: "(dp1
S'org.robofab.postScriptHintData'
p2
(dp3
s."
AnchorPoint: "top" 259 1026 basechar 0
LayerCount: 2
Fore
SplineSet
21 -423 m 0
 -17 -423 -59 -420 -106 -411 c 1
 -106 -260 l 1
 -67 -269 -39 -272 -18 -272 c 0
 106 -272 169 -176 169 36 c 2
 169 1026 l 1
 343 1026 l 1
 343 104 l 2
 343 -127 313 -423 21 -423 c 0
EndSplineSet
EndChar

StartChar: e
Encoding: 101 101 238
Width: 1166
VWidth: 0
Flags: HW
PickledData: "(dp1
S'org.robofab.postScriptHintData'
p2
(dp3
sS'com.typemytype.robofont.guides'
p4
(tsS'com.typemytype.robofont.layerData'
p5
(dp6
S'b'
(dp7
S'name'
p8
S'e'
sS'lib'
p9
(dp10
sS'unicodes'
p11
(tsS'width'
p12
F1169.75
sS'contours'
p13
(tsS'components'
p14
(tsS'anchors'
p15
(tsssS'com.fontlab.hintData'
p16
(dp17
S'vhints'
p18
((dp19
S'position'
p20
I106
sg12
I195
stp21
sS'hhints'
p22
((dp23
g20
I-22
sg12
I154
s(dp24
g20
I486
sg12
I131
s(dp25
g20
I901
sg12
I151
stp26
ss."
HStem: -22 154 486 131 901 151
VStem: 106 195
AnchorPoint: "bot" 625 0 basechar 0
AnchorPoint: "top" 591 1026 basechar 0
LayerCount: 2
Fore
SplineSet
296 613 m 1
 885 613 l 1
 871 803 769 906 611 906 c 0
 444 906 323 796 296 613 c 1
634 -22 m 0
 306 -22 101 190 101 510 c 0
 101 822 298 1052 606 1052 c 0
 902 1052 1054 835 1054 536 c 0
 1054 531 1053 507 1051 487 c 1
 291 487 l 1
 295 252 439 128 644 128 c 0
 764 128 875 166 970 242 c 1
 1025 106 l 1
 917 22 783 -22 634 -22 c 0
EndSplineSet
EndChar

StartChar: eight
Encoding: 56 56 247
Width: 1232
VWidth: 0
Flags: HW
PickledData: "(dp1
S'org.robofab.postScriptHintData'
p2
(dp3
sS'com.typemytype.robofont.layerData'
p4
(dp5
S'b'
(dp6
S'name'
p7
S'eight'
p8
sS'lib'
p9
(dp10
sS'unicodes'
p11
(tsS'width'
p12
F1235.45
sS'contours'
p13
(tsS'components'
p14
(tsS'anchors'
p15
(tsss."
LayerCount: 2
Fore
SplineSet
619 843 m 1
 784 879 883 975 883 1115 c 0
 883 1256 760 1333 620 1333 c 0
 478 1333 356 1258 356 1113 c 0
 356 975 455 878 619 843 c 1
619 131 m 0
 790 131 912 217 912 384 c 0
 912 535 788 646 621 682 c 1
 453 646 328 539 328 382 c 0
 328 219 450 131 619 131 c 0
620 -22 m 0
 363 -22 139 122 139 380 c 0
 139 560 251 697 437 763 c 1
 279 824 172 942 172 1110 c 0
 172 1344 368 1482 619 1482 c 0
 875 1482 1068 1343 1068 1107 c 0
 1068 939 964 821 804 763 c 1
 986 698 1100 556 1100 377 c 0
 1100 120 873 -22 620 -22 c 0
EndSplineSet
EndChar

StartChar: ellipsis
Encoding: 8230 8230 249
Width: 1620
VWidth: 0
Flags: HW
PickledData: "(dp1
S'org.robofab.postScriptHintData'
p2
(dp3
s."
LayerCount: 2
Fore
SplineSet
1219 -11 m 1
 1219 214 l 1
 1456 214 l 1
 1456 -11 l 1
 1219 -11 l 1
684 -11 m 1
 684 214 l 1
 921 214 l 1
 921 -11 l 1
 684 -11 l 1
148 -11 m 1
 148 214 l 1
 386 214 l 1
 386 -11 l 1
 148 -11 l 1
EndSplineSet
EndChar

StartChar: emdash
Encoding: 8212 8212 251
Width: 2171
VWidth: 0
Flags: HW
PickledData: "(dp1
S'org.robofab.postScriptHintData'
p2
(dp3
s."
LayerCount: 2
Fore
SplineSet
16 480 m 1
 16 634 l 1
 2149 634 l 1
 2149 480 l 1
 16 480 l 1
EndSplineSet
EndChar

StartChar: endash
Encoding: 8211 8211 252
Width: 1103
VWidth: 0
Flags: HW
PickledData: "(dp1
S'org.robofab.postScriptHintData'
p2
(dp3
sS'com.typemytype.robofont.layerData'
p4
(dp5
s."
LayerCount: 2
Fore
SplineSet
3 488 m 1
 3 634 l 1
 1097 634 l 1
 1097 488 l 1
 3 488 l 1
EndSplineSet
EndChar

StartChar: eng
Encoding: 331 331 253
Width: 1235
VWidth: 0
Flags: HW
PickledData: "(dp1
S'org.robofab.postScriptHintData'
p2
(dp3
sS'com.typemytype.robofont.layerData'
p4
(dp5
s."
LayerCount: 2
Fore
SplineSet
602 -408 m 1
 602 -269 l 1
 834 -269 895 -145 895 100 c 2
 895 549 l 2
 895 769 863 900 667 900 c 0
 494 900 362 749 361 643 c 1
 361 0 l 1
 176 0 l 1
 176 742 l 2
 176 896 166 1026 166 1026 c 1
 358 1026 l 1
 359 882 l 1
 434 995 563 1051 703 1051 c 0
 984 1051 1081 869 1081 559 c 2
 1081 130 l 2
 1081 -210 951 -408 602 -408 c 1
EndSplineSet
EndChar

StartChar: equal
Encoding: 61 61 255
Width: 1290
VWidth: 0
Flags: HW
PickledData: "(dp1
S'org.robofab.postScriptHintData'
p2
(dp3
sS'com.typemytype.robofont.layerData'
p4
(dp5
S'b'
(dp6
S'name'
p7
S'equal'
p8
sS'lib'
p9
(dp10
sS'unicodes'
p11
(tsS'width'
p12
I1229
sS'contours'
p13
(tsS'components'
p14
(tsS'anchors'
p15
(tsss."
LayerCount: 2
Fore
SplineSet
171 683 m 1
 171 837 l 1
 1118 837 l 1
 1118 683 l 1
 171 683 l 1
172 292 m 1
 172 445 l 1
 1120 445 l 1
 1120 292 l 1
 172 292 l 1
EndSplineSet
EndChar

StartChar: estimated
Encoding: 8494 8494 256
Width: 1206
VWidth: 0
Flags: HW
PickledData: "(dp1
S'org.robofab.postScriptHintData'
p2
(dp3
s."
LayerCount: 2
Fore
SplineSet
316 713 m 1
 886 713 l 1
 886 1037 749 1141 609 1141 c 0
 473 1141 318 1036 316 713 c 1
627 114 m 0
 342 114 106 294 106 652 c 0
 106 1050 362 1199 611 1199 c 0
 846 1199 1064 1075 1064 700 c 0
 1064 689 1063 671 1059 655 c 1
 316 655 l 1
 315.987776178 652.970845569 315.981678651 650.948601897 315.981678651 648.933260308 c 0
 315.981678651 321.208589436 477.222382187 176 676 176 c 0
 778 176 904 218 1029 299 c 1
 1056 247 l 1
 920 158 769 114 627 114 c 0
EndSplineSet
EndChar

StartChar: eth
Encoding: 240 240 257
Width: 1223
VWidth: 0
Flags: HW
PickledData: "(dp1
S'org.robofab.postScriptHintData'
p2
(dp3
sS'com.typemytype.robofont.layerData'
p4
(dp5
S'b'
(dp6
S'name'
p7
S'eth'
p8
sS'lib'
p9
(dp10
sS'unicodes'
p11
(tsS'width'
p12
F1222.55
sS'contours'
p13
(tsS'components'
p14
(tsS'anchors'
p15
(tsss."
LayerCount: 2
Fore
SplineSet
601 138 m 0
 788 138 903 274 903 475 c 0
 903 642 755 752 596 752 c 0
 421 752 299 640 299 452 c 0
 299 257 429 138 601 138 c 0
597 -22 m 0
 295 -22 107 187 107 454 c 0
 107 721 309 905 592 905 c 0
 759 905 880 813 927 726 c 1
 924 821 847 1067 682 1211 c 1
 461 1069 l 1
 395 1171 l 1
 581 1290 l 1
 489 1351 384 1399 268 1427 c 1
 339 1552 l 1
 468 1523 600 1464 718 1377 c 1
 934 1516 l 1
 1000 1414 l 1
 815 1296 l 1
 986 1136 1105 912 1105 623 c 0
 1105 208 920 -22 597 -22 c 0
EndSplineSet
EndChar

StartChar: exclam
Encoding: 33 33 259
Width: 582
VWidth: 0
Flags: HW
PickledData: "(dp1
S'org.robofab.postScriptHintData'
p2
(dp3
sS'com.typemytype.robofont.layerData'
p4
(dp5
S'b'
(dp6
S'name'
p7
S'exclam'
p8
sS'lib'
p9
(dp10
sS'unicodes'
p11
(tsS'width'
p12
F590
sS'contours'
p13
(tsS'components'
p14
(tsS'anchors'
p15
(tsss."
LayerCount: 2
Fore
SplineSet
249 377 m 1
 194 1456 l 1
 412 1456 l 1
 357 377 l 1
 249 377 l 1
211 0 m 1
 211 220 l 1
 397 220 l 1
 397 0 l 1
 211 0 l 1
EndSplineSet
EndChar

StartChar: exclamdown
Encoding: 161 161 260
Width: 572
VWidth: 0
Flags: HW
PickledData: "(dp1
S'org.robofab.postScriptHintData'
p2
(dp3
sS'com.typemytype.robofont.layerData'
p4
(dp5
S'b'
(dp6
S'name'
p7
S'exclamdown'
p8
sS'lib'
p9
(dp10
sS'unicodes'
p11
(tsS'width'
p12
F614.5
sS'contours'
p13
(tsS'components'
p14
(tsS'anchors'
p15
(tsss."
LayerCount: 2
Fore
SplineSet
194 1140 m 257
 380 1140 l 257
 380 920 l 257
 194 920 l 257
 194 1140 l 257
232 763 m 257
 340 763 l 257
 395 -316 l 257
 177 -316 l 257
 232 763 l 257
EndSplineSet
EndChar

StartChar: f
Encoding: 102 102 261
Width: 727
VWidth: 0
Flags: HW
PickledData: "(dp1
S'org.robofab.postScriptHintData'
p2
(dp3
sS'com.typemytype.robofont.layerData'
p4
(dp5
S'b'
(dp6
S'name'
p7
S'f'
sS'lib'
p8
(dp9
sS'unicodes'
p10
(tsS'width'
p11
F733.10000000000002
sS'contours'
p12
(tsS'components'
p13
(tsS'anchors'
p14
(tsss."
AnchorPoint: "top" 358 1456 basechar 0
LayerCount: 2
Fore
SplineSet
252 0 m 1
 252 903 l 1
 69 903 l 1
 69 1026 l 1
 252 1026 l 1
 252 1110 l 2
 252 1371 295 1485 645 1485 c 2
 692 1485 l 1
 688 1342 l 1
 452 1342 436 1300 436 1125 c 2
 436 1026 l 1
 681 1026 l 1
 681 903 l 1
 436 903 l 1
 436 0 l 1
 252 0 l 1
EndSplineSet
EndChar

StartChar: f_f
Encoding: 64256 64256 262
Width: 1349
VWidth: 0
Flags: HW
PickledData: "(dp1
S'org.robofab.postScriptHintData'
p2
(dp3
sS'com.typemytype.robofont.layerData'
p4
(dp5
s."
LayerCount: 2
Fore
SplineSet
1062 913 m 1
 1062 0 l 1
 892 0 l 1
 892 913 l 1
 420 913 l 1
 420 0 l 1
 250 0 l 1
 250 913 l 1
 68 913 l 1
 68 1026 l 1
 250 1026 l 1
 250 1115 l 2
 250 1370 295 1485 635 1485 c 2
 682 1485 l 1
 681 1351 l 1
 438 1351 420 1301 420 1136 c 2
 420 1026 l 1
 892 1026 l 1
 892 1115 l 2
 892 1370 937 1485 1277 1485 c 2
 1324 1485 l 1
 1323 1351 l 1
 1080 1351 1062 1301 1062 1136 c 2
 1062 1026 l 1
 1310 1026 l 1
 1310 913 l 1
 1062 913 l 1
EndSplineSet
EndChar

StartChar: f_f_i
Encoding: 64259 64259 263
Width: 1830
VWidth: 0
Flags: HW
PickledData: "(dp1
S'org.robofab.postScriptHintData'
p2
(dp3
sS'com.typemytype.robofont.layerData'
p4
(dp5
s."
LayerCount: 2
Fore
SplineSet
1656 1295 m 1
 1487 1295 l 1
 1487 1456 l 1
 1656 1456 l 1
 1656 1295 l 1
1656 0 m 1
 1487 0 l 1
 1487 913 l 1
 1045 913 l 1
 1045 0 l 1
 874 0 l 1
 874 913 l 1
 420 913 l 1
 420 0 l 1
 250 0 l 1
 250 913 l 1
 68 913 l 1
 68 1026 l 1
 250 1026 l 1
 250 1114 l 2
 250 1369 295 1485 635 1485 c 2
 682 1485 l 1
 681 1350 l 1
 438 1350 420 1300 420 1135 c 2
 420 1026 l 1
 874 1026 l 1
 874 1114 l 2
 874 1369 918 1485 1259 1485 c 2
 1305 1485 l 1
 1303 1350 l 1
 1061 1350 1045 1300 1045 1135 c 2
 1045 1026 l 1
 1656 1026 l 1
 1656 0 l 1
EndSplineSet
EndChar

StartChar: f_f_l
Encoding: 64260 64260 264
Width: 1896
VWidth: 0
Flags: HW
PickledData: "(dp1
S'org.robofab.postScriptHintData'
p2
(dp3
sS'com.typemytype.robofont.layerData'
p4
(dp5
s."
AnchorPoint: "top" 358 1456 basechar 0
LayerCount: 2
Fore
SplineSet
251 0 m 1
 251 913 l 1
 68 913 l 1
 68 1026 l 1
 251 1026 l 1
 251 1107 l 2
 251 1368 295 1485 645 1485 c 2
 693 1485 l 1
 690 1342 l 1
 454 1342 436 1296 436 1125 c 2
 436 1026 l 1
 680 1026 l 1
 680 913 l 1
 436 913 l 1
 436 0 l 1
 251 0 l 1
EndSplineSet
Refer: 269 64258 N 1 0 0 1 562 0 2
EndChar

StartChar: fi
Encoding: 64257 64257 266
Width: 1224
VWidth: 0
Flags: HW
PickledData: "(dp1
S'org.robofab.postScriptHintData'
p2
(dp3
sS'com.typemytype.robofont.layerData'
p4
(dp5
S'b'
(dp6
S'name'
p7
S'fi'
p8
sS'lib'
p9
(dp10
sS'unicodes'
p11
(tsS'width'
p12
F1237.6500000000001
sS'contours'
p13
((dp14
S'points'
p15
((dp16
S'segmentType'
p17
S'line'
p18
sS'x'
F249
sS'smooth'
p19
I00
sS'y'
F0
s(dp20
g17
S'line'
p21
sS'x'
F249
sg19
I00
sS'y'
F919
s(dp22
g17
S'line'
p23
sS'x'
F68
sg19
I00
sS'y'
F919
s(dp24
g17
S'line'
p25
sS'x'
F68
sg19
I00
sS'y'
F1026
s(dp26
g17
S'line'
p27
sS'x'
F249
sg19
I00
sS'y'
F1026
s(dp28
g17
S'line'
p29
sS'x'
F249
sg19
I01
sS'y'
F1127
s(dp30
S'y'
F1378
sS'x'
F249
sg19
I00
s(dp31
S'y'
F1492
sS'x'
F295
sg19
I00
s(dp32
g17
S'curve'
p33
sS'x'
F630
sg19
I01
sS'y'
F1492
s(dp34
g17
S'line'
p35
sS'x'
F676
sg19
I00
sS'y'
F1492
s(dp36
g17
S'line'
p37
sS'x'
F676
sg19
I00
sS'y'
F1364
s(dp38
S'y'
F1364
sS'x'
F431
sg19
I00
s(dp39
S'y'
F1311
sS'x'
F413
sg19
I00
s(dp40
g17
S'curve'
p41
sS'x'
F413
sg19
I01
sS'y'
F1150
s(dp42
g17
S'line'
p43
sS'x'
F413
sg19
I00
sS'y'
F1026
s(dp44
g17
S'line'
p45
sS'x'
F662
sg19
I00
sS'y'
F1026
s(dp46
g17
S'line'
p47
sS'x'
F662
sg19
I00
sS'y'
F919
s(dp48
g17
S'line'
p49
sS'x'
F413
sg19
I00
sS'y'
F919
s(dp50
g17
S'line'
p51
sS'x'
F413
sg19
I00
sS'y'
F0
stp52
s(dp53
g15
((dp54
g17
S'line'
p55
sS'x'
F869
sg19
I00
sS'y'
F0
s(dp56
g17
S'line'
p57
sS'x'
F869
sg19
I00
sS'y'
F1026
s(dp58
g17
S'line'
p59
sS'x'
F1033
sg19
I00
sS'y'
F1026
s(dp60
g17
S'line'
p61
sS'x'
F1033
sg19
I00
sS'y'
F0
stp62
s(dp63
g15
((dp64
g17
S'line'
p65
sS'x'
F869
sg19
I00
sS'y'
F1307
s(dp66
g17
S'line'
p67
sS'x'
F869
sg19
I00
sS'y'
F1462
s(dp68
g17
S'line'
p69
sS'x'
F1033
sg19
I00
sS'y'
F1462
s(dp70
g17
S'line'
p71
sS'x'
F1033
sg19
I00
sS'y'
F1307
stp72
stp73
sS'components'
p74
(tsS'anchors'
p75
(tsss."
LayerCount: 2
Fore
SplineSet
250 0 m 1
 250 912 l 1
 69 912 l 1
 69 1026 l 1
 250 1026 l 1
 250 1114 l 2
 250 1369 295 1485 637 1485 c 2
 684 1485 l 1
 683 1349 l 1
 441 1349 424 1300 424 1134 c 2
 424 1026 l 1
 914 1026 l 1
 914 912 l 1
 424 912 l 1
 424 0 l 1
 250 0 l 1
EndSplineSet
Refer: 295 105 N 1 0 0 1 704 0 2
EndChar

StartChar: five
Encoding: 53 53 267
Width: 1231
VWidth: 0
Flags: HW
PickledData: "(dp1
S'org.robofab.postScriptHintData'
p2
(dp3
sS'com.typemytype.robofont.layerData'
p4
(dp5
s."
LayerCount: 2
Fore
SplineSet
603 -23 m 0
 445 -23 283 29 162 147 c 1
 253 289 l 1
 355 183 484 139 601 139 c 0
 787 139 911 266 911 469 c 0
 911 636 815 773 645 773 c 0
 555 773 459 738 417 673 c 1
 237 690 l 1
 241 1456 l 1
 1022 1456 l 1
 1022 1293 l 1
 416 1293 l 1
 400 839 l 1
 461 908 565 940 667 940 c 0
 928 940 1107 738 1107 465 c 0
 1107 161 888 -23 603 -23 c 0
EndSplineSet
EndChar

StartChar: fl
Encoding: 64258 64258 269
Width: 1265
VWidth: 0
Flags: HW
PickledData: "(dp1
S'org.robofab.postScriptHintData'
p2
(dp3
sS'com.typemytype.robofont.layerData'
p4
(dp5
S'b'
(dp6
S'name'
p7
S'fl'
p8
sS'lib'
p9
(dp10
sS'unicodes'
p11
(tsS'width'
p12
F1252.7
sS'contours'
p13
(tsS'components'
p14
((dp15
S'transformation'
p16
(I1
I0
I0
I1
I20
I0
tp17
sS'baseGlyph'
p18
S'f'
s(dp19
g16
(I1
I0
I0
I1
I714
I0
tp20
sg18
S'l'
stp21
sS'anchors'
p22
(tsss."
LayerCount: 2
Fore
SplineSet
268 0 m 1
 268 913 l 1
 69 913 l 1
 69 1026 l 1
 268 1026 l 1
 268 1105 l 2
 268 1364 356 1466 735 1466 c 2
 1093 1466 l 1
 1093 0 l 1
 920 0 l 1
 920 1331 l 1
 741 1331 l 2
 484 1331 441 1285 441 1132 c 2
 441 1026 l 1
 688 1026 l 1
 688 913 l 1
 441 913 l 1
 441 0 l 1
 268 0 l 1
EndSplineSet
EndChar

StartChar: florin
Encoding: 402 402 270
Width: 1070
VWidth: 0
Flags: HW
PickledData: "(dp1
S'org.robofab.postScriptHintData'
p2
(dp3
sS'com.typemytype.robofont.layerData'
p4
(dp5
S'b'
(dp6
S'name'
p7
S'florin'
p8
sS'lib'
p9
(dp10
sS'unicodes'
p11
(tsS'width'
p12
F1073.0999999999999
sS'contours'
p13
(tsS'components'
p14
(tsS'anchors'
p15
(tsss."
LayerCount: 2
Fore
SplineSet
201 -299 m 0
 180 -299 139 -294 96 -282 c 1
 110 -157 l 1
 129 -162 157 -167 181 -167 c 0
 267 -167 333 -114 359 34 c 2
 500 815 l 1
 347 815 l 1
 369 935 l 1
 521 935 l 1
 556 1126 l 1
 585 1294 649 1469 891 1469 c 0
 979 1469 1050 1435 1050 1435 c 1
 1034 1313 l 1
 998 1324 956 1333 918 1333 c 0
 813 1333 762 1278 738 1157 c 2
 693 935 l 1
 907 935 l 1
 884 815 l 1
 672 815 l 1
 541 86 l 1
 498 -163 437 -299 201 -299 c 0
EndSplineSet
EndChar

StartChar: foundryicon
Encoding: 65542 -1 271
Width: 1347
VWidth: 0
Flags: HW
PickledData: "(dp1
S'org.robofab.postScriptHintData'
p2
(dp3
s."
LayerCount: 2
Fore
SplineSet
280 2 m 1
 423 461 l 1
 34 755 l 1
 519 755 l 1
 669 1215 l 1
 828 755 l 1
 1313 755 l 1
 922 461 l 1
 1066 2 l 1
 669 278 l 1
 280 2 l 1
485 405 m 1
 591 405 l 1
 591 552 l 1
 761 405 l 1
 867 405 l 1
 867 672 l 1
 761 672 l 1
 761 523 l 1
 591 672 l 1
 485 672 l 1
 485 405 l 1
EndSplineSet
EndChar

StartChar: four
Encoding: 52 52 272
Width: 1231
VWidth: 0
Flags: HW
PickledData: "(dp1
S'org.robofab.postScriptHintData'
p2
(dp3
sS'com.typemytype.robofont.layerData'
p4
(dp5
S'b'
(dp6
S'name'
p7
S'four'
p8
sS'lib'
p9
(dp10
sS'unicodes'
p11
(tsS'width'
p12
F1234.0999999999999
sS'contours'
p13
(tsS'components'
p14
(tsS'anchors'
p15
(tsss."
LayerCount: 2
Fore
SplineSet
305 527 m 1
 751 527 l 1
 751 1272 l 1
 606.608809409 1019.39119059 454.317967719 774.682032281 305 527 c 1
752 0 m 1
 752 385 l 1
 105 385 l 1
 105 513 l 1
 702 1456 l 1
 936 1456 l 1
 936 527 l 1
 1153 527 l 1
 1153 385 l 1
 935 385 l 1
 935 0 l 1
 752 0 l 1
EndSplineSet
EndChar

StartChar: foursuperior
Encoding: 8308 8308 273
Width: 1167
VWidth: 0
Flags: HW
PickledData: "(dp1
S'org.robofab.postScriptHintData'
p2
(dp3
sS'com.typemytype.robofont.layerData'
p4
(dp5
s."
LayerCount: 2
Fore
SplineSet
429 952 m 1
 668 952 l 1
 668 1291 l 1
 429 952 l 1
670 658 m 1
 670 846 l 1
 290 846 l 1
 290 938 l 1
 658 1456 l 1
 796 1456 l 1
 796 952 l 1
 903 952 l 1
 902 846 l 1
 795 846 l 1
 795 658 l 1
 670 658 l 1
EndSplineSet
EndChar

StartChar: fraction
Encoding: 8260 8260 274
Width: 1073
VWidth: 0
Flags: HW
PickledData: "(dp1
S'org.robofab.postScriptHintData'
p2
(dp3
sS'com.typemytype.robofont.layerData'
p4
(dp5
S'b'
(dp6
S'name'
p7
S'fraction'
p8
sS'lib'
p9
(dp10
sS'unicodes'
p11
(tsS'width'
p12
F1077.8
sS'contours'
p13
(tsS'components'
p14
(tsS'anchors'
p15
(tsss."
LayerCount: 2
Fore
SplineSet
24 0 m 1
 924 1456 l 1
 1097 1456 l 1
 199 0 l 1
 24 0 l 1
EndSplineSet
EndChar

StartChar: g
Encoding: 103 103 275
Width: 1267
VWidth: 0
Flags: HW
PickledData: "(dp1
S'org.robofab.postScriptHintData'
p2
(dp3
sS'com.typemytype.robofont.layerData'
p4
(dp5
S'b'
(dp6
S'name'
p7
S'g'
sS'lib'
p8
(dp9
sS'unicodes'
p10
(tsS'width'
p11
I1254
sS'contours'
p12
((dp13
S'points'
p14
((dp15
S'segmentType'
p16
S'curve'
p17
sS'x'
F580
sS'smooth'
p18
I01
sS'y'
F134
s(dp19
S'y'
F134
sS'x'
F799
sg18
I00
s(dp20
S'y'
F295
sS'x'
F920
sg18
I00
s(dp21
g16
S'curve'
p22
sS'x'
F920
sg18
I01
sS'y'
F550
s(dp23
S'y'
F775
sS'x'
F920
sg18
I00
s(dp24
S'y'
F918
sS'x'
F796
sg18
I00
s(dp25
g16
S'curve'
p26
sS'x'
F600
sg18
I01
sS'y'
F918
s(dp27
S'y'
F918
sS'x'
F399
sg18
I00
s(dp28
S'y'
F762
sS'x'
F268
sg18
I00
s(dp29
g16
S'curve'
p30
sS'x'
F268
sg18
I01
sS'y'
F515
s(dp31
S'y'
F282
sS'x'
F268
sg18
I00
s(dp32
S'y'
F134
sS'x'
F389
sg18
I00
stp33
s(dp34
g14
((dp35
g16
S'curve'
p36
sS'x'
F534
sg18
I01
sS'y'
F-420
s(dp37
S'y'
F-420
sS'x'
F408
sg18
I00
s(dp38
S'y'
F-381
sS'x'
F289
sg18
I00
s(dp39
g16
S'curve'
p40
sS'x'
F189
sg18
I00
sS'y'
F-331
s(dp41
g16
S'line'
p42
sS'x'
F216
sg18
I00
sS'y'
F-187
s(dp43
S'y'
F-238
sS'x'
F300
sg18
I00
s(dp44
S'y'
F-282
sS'x'
F416
sg18
I00
s(dp45
g16
S'curve'
p46
sS'x'
F528
sg18
I01
sS'y'
F-282
s(dp47
S'y'
F-282
sS'x'
F790
sg18
I00
s(dp48
S'y'
F-183
sS'x'
F920
sg18
I00
s(dp49
g16
S'curve'
p50
sS'x'
F920
sg18
I01
sS'y'
F49
s(dp51
g16
S'line'
p52
sS'x'
F920
sg18
I00
sS'y'
F273
s(dp53
g16
S'line'
p54
sS'x'
F948
sg18
I00
sS'y'
F253
s(dp55
S'y'
F139
sS'x'
F905
sg18
I00
s(dp56
S'y'
F0
sS'x'
F802
sg18
I00
s(dp57
g16
S'curve'
p58
sS'x'
F579
sg18
I01
sS'y'
F0
s(dp59
S'y'
F0
sS'x'
F298
sg18
I00
s(dp60
S'y'
F201
sS'x'
F98
sg18
I00
s(dp61
g16
S'curve'
p62
sS'x'
F98
sg18
I01
sS'y'
F511
s(dp63
S'y'
F843
sS'x'
F98
sg18
I00
s(dp64
S'y'
F1052
sS'x'
F284
sg18
I00
s(dp65
g16
S'curve'
p66
sS'x'
F579
sg18
I01
sS'y'
F1052
s(dp67
S'y'
F1052
sS'x'
F820
sg18
I00
s(dp68
S'y'
F900
sS'x'
F903
sg18
I00
s(dp69
g16
S'curve'
p70
sS'x'
F958
sg18
I00
sS'y'
F798
s(dp71
g16
S'line'
p72
sS'x'
F919
sg18
I00
sS'y'
F787
s(dp73
g16
S'line'
p74
sS'x'
F926
sg18
I00
sS'y'
F1026
s(dp75
g16
S'line'
p76
sS'x'
F1090
sg18
I00
sS'y'
F1026
s(dp77
S'y'
F1026
sS'x'
F1090
sg18
I00
s(dp78
S'y'
F857
sS'x'
F1084
sg18
I00
s(dp79
g16
S'curve'
p80
sS'x'
F1084
sg18
I01
sS'y'
F773
s(dp81
g16
S'line'
p82
sS'x'
F1084
sg18
I01
sS'y'
F143
s(dp83
S'y'
F-255
sS'x'
F1084
sg18
I00
s(dp84
S'y'
F-420
sS'x'
F903
sg18
I00
stp85
stp86
sS'components'
p87
(tsS'anchors'
p88
(tsss."
AnchorPoint: "top" 552 1026 basechar 0
LayerCount: 2
Fore
SplineSet
594 158 m 0
 809 158 912 313 912 532 c 0
 912 754 801 902 607 902 c 0
 408 902 292 743 292 518 c 0
 292 291 401 158 594 158 c 0
571 -418 m 0
 437 -418 314 -391 192 -331 c 1
 221 -172 l 1
 340 -240 448 -269 564 -269 c 0
 776 -269 908 -158 908 85 c 2
 908 192 l 1
 857 100 753 14 583 14 c 0
 304 14 101 203 101 516 c 0
 101 827 271 1052 582 1052 c 0
 749 1052 854 968 908 874 c 1
 911 1026 l 1
 1101 1026 l 1
 1101 1026 1090 860 1090 750 c 2
 1090 140 l 2
 1090 -179 937 -418 571 -418 c 0
EndSplineSet
EndChar

StartChar: germandbls
Encoding: 223 223 282
Width: 1251
VWidth: 0
Flags: HW
PickledData: "(dp1
S'org.robofab.postScriptHintData'
p2
(dp3
sS'com.typemytype.robofont.layerData'
p4
(dp5
S'b'
(dp6
S'name'
p7
S'germandbls'
p8
sS'lib'
p9
(dp10
sS'unicodes'
p11
(tsS'width'
p12
F1250.95145088
sS'contours'
p13
(tsS'components'
p14
(tsS'anchors'
p15
(tsss."
LayerCount: 2
Fore
SplineSet
761.491957649 124.054291967 m 0
 888.317041015 124.054291967 981 193.763224135 981 331 c 0
 981 521 833 635 556 751 c 1
 556 891 l 1
 755 960 824 1047 824 1174 c 0
 824 1285 736 1355 602 1355 c 0
 436 1355 348 1227 348 1028 c 2
 348 0 l 1
 167 0 l 1
 166 1026 l 2
 166 1337 331 1503 603 1503 c 0
 855 1503 1015 1374 1015 1181 c 0
 1015 1024 935 924 769 854 c 0
 755 846 718 832 702 827 c 1
 718 823 755 811 771 805 c 0
 978 730 1177 595 1177 343 c 0
 1177 118 1008 -24 799 -24 c 0
 636 -24 497 29 477 37 c 1
 506 182 l 1
 524.567077531 174.573168987 650.002429161 124.054291967 761.491957649 124.054291967 c 0
EndSplineSet
EndChar

StartChar: grave
Encoding: 96 96 283
Width: 597
VWidth: 0
Flags: HW
PickledData: "(dp1
S'org.robofab.postScriptHintData'
p2
(dp3
sS'com.typemytype.robofont.layerData'
p4
(dp5
s."
AnchorPoint: "top" 463 1026 mark 0
LayerCount: 2
Fore
SplineSet
383 1173 m 1
 46 1533 l 1
 286 1533 l 1
 536 1173 l 1
 383 1173 l 1
EndSplineSet
EndChar

StartChar: greater
Encoding: 62 62 284
Width: 1256
VWidth: 0
Flags: HW
PickledData: "(dp1
S'org.robofab.postScriptHintData'
p2
(dp3
sS'com.typemytype.robofont.layerData'
p4
(dp5
S'b'
(dp6
S'name'
p7
S'greater'
p8
sS'lib'
p9
(dp10
sS'unicodes'
p11
(tsS'width'
p12
F1268.05
sS'contours'
p13
(tsS'components'
p14
(tsS'anchors'
p15
(tsss."
LayerCount: 2
Fore
SplineSet
215 68 m 1
 215 242 l 1
 914 560 l 1
 220 903 l 1
 220 1075 l 1
 1153 602 l 1
 1153 504 l 1
 215 68 l 1
EndSplineSet
EndChar

StartChar: greaterequal
Encoding: 8805 8805 285
Width: 1350
VWidth: 0
Flags: HW
PickledData: "(dp1
S'org.robofab.postScriptHintData'
p2
(dp3
sS'com.typemytype.robofont.layerData'
p4
(dp5
S'b'
(dp6
S'name'
p7
S'greaterequal'
p8
sS'lib'
p9
(dp10
sS'unicodes'
p11
(tsS'width'
p12
F1350.3499999999999
sS'contours'
p13
(tsS'components'
p14
(tsS'anchors'
p15
(tsss."
LayerCount: 2
Fore
SplineSet
188 0 m 1
 188 130 l 1
 1163 130 l 1
 1163 0 l 1
 188 0 l 1
199 214 m 1
 199 387 l 1
 903 708 l 1
 203 1049 l 1
 203 1220 l 1
 1135 753 l 1
 1135 657 l 1
 199 214 l 1
EndSplineSet
EndChar

StartChar: guillemotleft
Encoding: 171 171 286
Width: 1118
VWidth: 0
Flags: HW
PickledData: "(dp1
S'org.robofab.postScriptHintData'
p2
(dp3
sS'com.typemytype.robofont.layerData'
p4
(dp5
S'b'
(dp6
S'name'
p7
S'guillemotright'
p8
sS'lib'
p9
(dp10
sS'unicodes'
p11
(tsS'width'
p12
F1122.45
sS'contours'
p13
(tsS'components'
p14
(tsS'anchors'
p15
(tsss."
LayerCount: 2
Fore
SplineSet
832 170 m 1
 561 543 l 1
 838 918 l 1
 1001 918 l 1
 752 543 l 1
 993 170 l 1
 832 170 l 1
403 170 m 1
 132 543 l 1
 408 918 l 1
 570 918 l 1
 323 543 l 1
 562 170 l 1
 403 170 l 1
EndSplineSet
EndChar

StartChar: guillemotright
Encoding: 187 187 287
Width: 1118
VWidth: 0
Flags: HW
PickledData: "(dp1
S'org.robofab.postScriptHintData'
p2
(dp3
sS'com.typemytype.robofont.layerData'
p4
(dp5
S'b'
(dp6
S'name'
p7
S'guillemotright'
p8
sS'lib'
p9
(dp10
sS'unicodes'
p11
(tsS'width'
p12
F1122.45
sS'contours'
p13
(tsS'components'
p14
(tsS'anchors'
p15
(tsss."
LayerCount: 2
Fore
SplineSet
565 168 m 1
 812 543 l 1
 573 916 l 1
 732 916 l 1
 1003 543 l 1
 727 168 l 1
 565 168 l 1
135 168 m 1
 382 543 l 1
 143 916 l 1
 303 916 l 1
 574 543 l 1
 297 168 l 1
 135 168 l 1
EndSplineSet
EndChar

StartChar: guilsinglleft
Encoding: 8249 8249 288
Width: 685
VWidth: 0
Flags: HW
PickledData: "(dp1
S'org.robofab.postScriptHintData'
p2
(dp3
sS'com.typemytype.robofont.layerData'
p4
(dp5
S'b'
(dp6
S'name'
p7
S'guilsinglleft'
p8
sS'lib'
p9
(dp10
sS'unicodes'
p11
(tsS'width'
p12
F688.39999999999998
sS'contours'
p13
(tsS'components'
p14
(tsS'anchors'
p15
(tsss."
LayerCount: 2
Fore
SplineSet
409 168 m 1
 138 541 l 1
 415 916 l 1
 577 916 l 1
 329 541 l 1
 569 168 l 1
 409 168 l 1
EndSplineSet
EndChar

StartChar: guilsinglright
Encoding: 8250 8250 289
Width: 685
VWidth: 0
Flags: HW
PickledData: "(dp1
S'org.robofab.postScriptHintData'
p2
(dp3
sS'com.typemytype.robofont.layerData'
p4
(dp5
S'b'
(dp6
S'name'
p7
S'guilsinglleft'
p8
sS'lib'
p9
(dp10
sS'unicodes'
p11
(tsS'width'
p12
F688.39999999999998
sS'contours'
p13
(tsS'components'
p14
(tsS'anchors'
p15
(tsss."
LayerCount: 2
Fore
SplineSet
133 167 m 1
 380 543 l 1
 141 915 l 1
 300 915 l 1
 571 542 l 1
 295 167 l 1
 133 167 l 1
EndSplineSet
EndChar

StartChar: h
Encoding: 104 104 290
Width: 1237
VWidth: 0
Flags: HW
PickledData: "(dp1
S'org.robofab.postScriptHintData'
p2
(dp3
sS'com.typemytype.robofont.layerData'
p4
(dp5
S'b'
(dp6
S'name'
p7
S'h'
sS'lib'
p8
(dp9
sS'unicodes'
p10
(tsS'width'
p11
F1237.95
sS'contours'
p12
((dp13
S'points'
p14
((dp15
S'segmentType'
p16
S'line'
p17
sS'x'
F178
sS'smooth'
p18
I00
sS'y'
F0
s(dp19
g16
S'line'
p20
sS'x'
F178
sg18
I01
sS'y'
F779
s(dp21
S'y'
F902
sS'x'
F178
sg18
I00
s(dp22
S'y'
F1026
sS'x'
F172
sg18
I00
s(dp23
g16
S'curve'
p24
sS'x'
F172
sg18
I00
sS'y'
F1026
s(dp25
g16
S'line'
p26
sS'x'
F339
sg18
I00
sS'y'
F1026
s(dp27
g16
S'line'
p28
sS'x'
F343
sg18
I00
sS'y'
F864
s(dp29
S'y'
F976
sS'x'
F423
sg18
I00
s(dp30
S'y'
F1051
sS'x'
F548
sg18
I00
s(dp31
g16
S'curve'
p32
sS'x'
F700
sg18
I01
sS'y'
F1051
s(dp33
S'y'
F1051
sS'x'
F999
sg18
I00
s(dp34
S'y'
F844
sS'x'
F1082
sg18
I00
s(dp35
g16
S'curve'
p36
sS'x'
F1082
sg18
I01
sS'y'
F550
s(dp37
g16
S'line'
p38
sS'x'
F1082
sg18
I00
sS'y'
F0
s(dp39
g16
S'line'
p40
sS'x'
F917
sg18
I00
sS'y'
F0
s(dp41
g16
S'line'
p42
sS'x'
F917
sg18
I01
sS'y'
F531
s(dp43
S'y'
F764
sS'x'
F917
sg18
I00
s(dp44
S'y'
F917
sS'x'
F886
sg18
I00
s(dp45
g16
S'curve'
p46
sS'x'
F670
sg18
I01
sS'y'
F917
s(dp47
S'y'
F917
sS'x'
F471
sg18
I00
s(dp48
S'y'
F742
sS'x'
F344
sg18
I00
s(dp49
g16
S'curve'
p50
sS'x'
F343
sg18
I00
sS'y'
F652
s(dp51
g16
S'line'
p52
sS'x'
F343
sg18
I00
sS'y'
F0
stp53
stp54
sS'components'
p55
(tsS'anchors'
p56
(tsss."
AnchorPoint: "top" 698 1026 basechar 0
LayerCount: 2
Fore
SplineSet
166 0 m 1
 166 1486 l 1
 350 1486 l 1
 350 865 l 1
 412 977 554 1052 699 1052 c 0
 962 1052 1079 857 1079 619 c 2
 1079 0 l 1
 894 0 l 1
 894 614 l 2
 894 814 829 902 674 902 c 0
 506 902 350 769 350 622 c 2
 350 0 l 1
 166 0 l 1
EndSplineSet
EndChar

StartChar: hungarumlaut
Encoding: 733 733 293
Width: 969
VWidth: 0
Flags: HW
PickledData: "(dp1
S'org.robofab.postScriptHintData'
p2
(dp3
s."
AnchorPoint: "top" 281 1026 mark 0
LayerCount: 2
Fore
SplineSet
407 1160 m 1
 648 1532 l 1
 856 1532 l 1
 544 1160 l 1
 407 1160 l 1
83 1160 m 1
 295 1532 l 1
 494 1532 l 1
 216 1160 l 1
 83 1160 l 1
EndSplineSet
EndChar

StartChar: hyphen
Encoding: 45 45 294
Width: 679
VWidth: 0
Flags: HW
PickledData: "(dp1
S'org.robofab.postScriptHintData'
p2
(dp3
sS'com.typemytype.robofont.layerData'
p4
(dp5
S'b'
(dp6
S'name'
p7
S'hyphen'
p8
sS'lib'
p9
(dp10
sS'unicodes'
p11
(tsS'width'
p12
F683.5
sS'contours'
p13
(tsS'components'
p14
(tsS'anchors'
p15
(tsss."
LayerCount: 2
Fore
SplineSet
61 487 m 1
 61 629 l 1
 617 629 l 1
 617 487 l 1
 61 487 l 1
EndSplineSet
EndChar

StartChar: i
Encoding: 105 105 295
Width: 520
VWidth: 0
Flags: HW
PickledData: "(dp1
S'org.robofab.postScriptHintData'
p2
(dp3
sS'com.typemytype.robofont.layerData'
p4
(dp5
S'b'
(dp6
S'name'
p7
S'i'
sS'lib'
p8
(dp9
sS'unicodes'
p10
(tsS'width'
p11
F521.10000000000002
sS'contours'
p12
(tsS'components'
p13
(tsS'anchors'
p14
(tsss."
LayerCount: 2
Fore
SplineSet
173 1285 m 1
 173 1456 l 1
 355 1456 l 1
 355 1285 l 1
 173 1285 l 1
172 0 m 1
 172 1026 l 1
 355 1026 l 1
 355 0 l 1
 172 0 l 1
EndSplineSet
EndChar

StartChar: increment
Encoding: 8710 8710 307
Width: 1309
VWidth: 0
Flags: HW
PickledData: "(dp1
S'org.robofab.postScriptHintData'
p2
(dp3
sS'com.typemytype.robofont.layerData'
p4
(dp5
S'b'
(dp6
S'name'
p7
S'uni2206'
p8
sS'lib'
p9
(dp10
sS'unicodes'
p11
(tsS'width'
p12
F1312.25
sS'contours'
p13
(tsS'components'
p14
(tsS'anchors'
p15
(tsss."
LayerCount: 2
Fore
SplineSet
254 142 m 1
 1047 142 l 1
 657 1237 l 1
 254 142 l 1
56 0 m 1
 56 84 l 1
 584 1455 l 1
 738 1455 l 1
 1249 84 l 1
 1249 0 l 1
 56 0 l 1
EndSplineSet
EndChar

StartChar: infinity
Encoding: 8734 8734 308
Width: 1728
VWidth: 0
Flags: HW
PickledData: "(dp1
S'org.robofab.postScriptHintData'
p2
(dp3
s."
LayerCount: 2
Fore
SplineSet
1268 363 m 0
 1416 363 1482 476 1482 621 c 0
 1482 732 1393 826 1263 826 c 0
 1132 826 1018 714 936 595 c 1
 1054 443 1145 363 1268 363 c 0
468 363 m 0
 596 363 702 466 794 591 c 1
 702 724 596 826 458 826 c 0
 316 826 236 720 236 595 c 0
 236 477 326 363 468 363 c 0
461 235 m 0
 244 235 96 410 96 616 c 0
 96 803 266 952 456 952 c 0
 621 952 748 853 865 699 c 1
 976 849 1098 952 1267 952 c 0
 1487 952 1627 804 1627 597 c 0
 1627 383 1459 235 1265 235 c 0
 1117 235 996 317 863 488 c 1
 748 338 623 235 461 235 c 0
EndSplineSet
EndChar

StartChar: integral
Encoding: 8747 8747 309
Width: 749
VWidth: 0
Flags: HW
PickledData: "(dp1
S'org.robofab.postScriptHintData'
p2
(dp3
sS'com.typemytype.robofont.layerData'
p4
(dp5
S'b'
(dp6
S'name'
p7
S'integral'
p8
sS'lib'
p9
(dp10
sS'unicodes'
p11
(tsS'width'
p12
F754
sS'contours'
p13
(tsS'components'
p14
(tsS'anchors'
p15
(tsss."
LayerCount: 2
Fore
SplineSet
181 -305 m 0
 91 -305 36 -283 36 -283 c 1
 36 -139 l 1
 36 -139 115 -154 169 -154 c 0
 293 -154 316 -83 316 50 c 2
 316 1189 l 2
 316 1406 373 1567 600 1567 c 0
 688 1567 740 1545 740 1545 c 1
 740 1399 l 1
 740 1399 687 1416 630 1416 c 0
 506 1416 485 1345 485 1212 c 2
 485 73 l 2
 485 -145 409 -305 181 -305 c 0
EndSplineSet
EndChar

StartChar: j
Encoding: 106 106 312
Width: 503
VWidth: 0
Flags: HW
PickledData: "(dp1
S'org.robofab.postScriptHintData'
p2
(dp3
sS'com.typemytype.robofont.layerData'
p4
(dp5
S'b'
(dp6
S'name'
p7
S'j'
sS'lib'
p8
(dp9
sS'unicodes'
p10
(tsS'width'
p11
F536.89999999999998
sS'contours'
p12
((dp13
S'points'
p14
((dp15
S'segmentType'
p16
S'curve'
p17
sS'x'
F65
sS'smooth'
p18
I01
sS'y'
F-410
s(dp19
S'y'
F-410
sS'x'
F-24
sg18
I00
s(dp20
S'y'
F-390
sS'x'
F-117
sg18
I00
s(dp21
g16
S'curve'
p22
sS'x'
F-117
sg18
I00
sS'y'
F-390
s(dp23
g16
S'line'
p24
sS'x'
F-102
sg18
I00
sS'y'
F-267
s(dp25
S'y'
F-267
sS'x'
F-102
sg18
I00
s(dp26
S'y'
F-280
sS'x'
F-44
sg18
I00
s(dp27
g16
S'curve'
p28
sS'x'
F19
sg18
I01
sS'y'
F-280
s(dp29
S'y'
F-280
sS'x'
F153
sg18
I00
s(dp30
S'y'
F-208
sS'x'
F177
sg18
I00
s(dp31
g16
S'curve'
p32
sS'x'
F177
sg18
I01
sS'y'
F-2
s(dp33
g16
S'line'
p34
sS'x'
F177
sg18
I00
sS'y'
F1026
s(dp35
g16
S'line'
p36
sS'x'
F341
sg18
I00
sS'y'
F1026
s(dp37
g16
S'line'
p38
sS'x'
F341
sg18
I01
sS'y'
F-6
s(dp39
S'y'
F-274
sS'x'
F341
sg18
I00
s(dp40
S'y'
F-410
sS'x'
F246
sg18
I00
stp41
s(dp42
g14
((dp43
g16
S'line'
p44
sS'x'
F177
sg18
I00
sS'y'
F1307
s(dp45
g16
S'line'
p46
sS'x'
F177
sg18
I00
sS'y'
F1462
s(dp47
g16
S'line'
p48
sS'x'
F341
sg18
I00
sS'y'
F1462
s(dp49
g16
S'line'
p50
sS'x'
F341
sg18
I00
sS'y'
F1307
stp51
stp52
sS'components'
p53
(tsS'anchors'
p54
(tsss."
LayerCount: 2
Fore
SplineSet
163 1277 m 1
 163 1456 l 1
 346 1456 l 1
 346 1277 l 1
 163 1277 l 1
EndSplineSet
Refer: 235 567 N 1 0 0 1 0 0 2
EndChar

StartChar: k
Encoding: 107 107 315
Width: 1111
VWidth: 0
Flags: HW
PickledData: "(dp1
S'org.robofab.postScriptHintData'
p2
(dp3
sS'com.typemytype.robofont.layerData'
p4
(dp5
S'b'
(dp6
S'name'
p7
S'k'
sS'lib'
p8
(dp9
sS'unicodes'
p10
(tsS'width'
p11
F1078.6500000000001
sS'contours'
p12
(tsS'components'
p13
(tsS'anchors'
p14
(tsss."
AnchorPoint: "bot" 599 0 basechar 0
AnchorPoint: "top" 696 1026 basechar 0
LayerCount: 2
Fore
SplineSet
174 0 m 1
 174 1486 l 1
 358 1486 l 1
 358 587 l 1
 803 1026 l 1
 1055 1026 l 1
 535 537 l 1
 1091 0 l 1
 847 0 l 1
 358 485 l 1
 358 0 l 1
 174 0 l 1
EndSplineSet
EndChar

StartChar: kgreenlandic
Encoding: 312 312 318
Width: 1082
VWidth: 0
Flags: HW
PickledData: "(dp1
S'org.robofab.postScriptHintData'
p2
(dp3
sS'com.typemytype.robofont.layerData'
p4
(dp5
s."
LayerCount: 2
Fore
SplineSet
170 0 m 1
 170 1026 l 1
 355 1026 l 1
 355 571 l 1
 794 1026 l 1
 1038 1026 l 1
 517 517 l 1
 1075 0 l 1
 838 0 l 1
 355 455 l 1
 355 0 l 1
 170 0 l 1
EndSplineSet
EndChar

StartChar: l
Encoding: 108 108 319
Width: 526
VWidth: 0
Flags: HW
PickledData: "(dp1
S'org.robofab.postScriptHintData'
p2
(dp3
sS'com.typemytype.robofont.layerData'
p4
(dp5
S'b'
(dp6
S'name'
p7
S'l'
sS'lib'
p8
(dp9
sS'unicodes'
p10
(tsS'width'
p11
F521.79999999999995
sS'contours'
p12
(tsS'components'
p13
(tsS'anchors'
p14
(tsss."
AnchorPoint: "caron.alt" 253 1026 basechar 0
AnchorPoint: "top" 268 1456 basechar 0
LayerCount: 2
Fore
SplineSet
177 0 m 1
 177 1486 l 1
 361 1486 l 1
 361 0 l 1
 177 0 l 1
EndSplineSet
EndChar

StartChar: less
Encoding: 60 60 324
Width: 1255
VWidth: 0
Flags: HW
PickledData: "(dp1
S'org.robofab.postScriptHintData'
p2
(dp3
sS'com.typemytype.robofont.layerData'
p4
(dp5
S'b'
(dp6
S'name'
p7
S'less'
p8
sS'lib'
p9
(dp10
sS'unicodes'
p11
(tsS'width'
p12
F1267.3499999999999
sS'contours'
p13
(tsS'components'
p14
(tsS'anchors'
p15
(tsss."
LayerCount: 2
Fore
SplineSet
1038 67 m 1
 105 534 l 1
 105 630 l 1
 1042 1072 l 1
 1042 900 l 1
 337 579 l 1
 1038 238 l 1
 1038 67 l 1
EndSplineSet
EndChar

StartChar: lessequal
Encoding: 8804 8804 325
Width: 1350
VWidth: 0
Flags: HW
PickledData: "(dp1
S'org.robofab.postScriptHintData'
p2
(dp3
sS'com.typemytype.robofont.layerData'
p4
(dp5
S'b'
(dp6
S'name'
p7
S'lessequal'
p8
sS'lib'
p9
(dp10
sS'unicodes'
p11
(tsS'width'
p12
F1350.3499999999999
sS'contours'
p13
(tsS'components'
p14
(tsS'anchors'
p15
(tsss."
LayerCount: 2
Fore
SplineSet
168 0 m 1
 168 130 l 1
 1143 130 l 1
 1143 0 l 1
 168 0 l 1
1122 215 m 1
 189 680 l 1
 189 776 l 1
 1127 1220 l 1
 1127 1047 l 1
 421 726 l 1
 1122 384 l 1
 1122 215 l 1
EndSplineSet
EndChar

StartChar: logicalnot
Encoding: 172 172 327
Width: 1464
VWidth: 0
Flags: HW
PickledData: "(dp1
S'org.robofab.postScriptHintData'
p2
(dp3
sS'com.typemytype.robofont.layerData'
p4
(dp5
S'b'
(dp6
S'name'
p7
S'logicalnot'
p8
sS'lib'
p9
(dp10
sS'unicodes'
p11
(tsS'width'
p12
F1463.2
sS'contours'
p13
(tsS'components'
p14
(tsS'anchors'
p15
(tsss."
LayerCount: 2
Fore
SplineSet
1079 234 m 1
 1079 646 l 1
 197 646 l 1
 197 802 l 1
 1249 802 l 1
 1249 234 l 1
 1079 234 l 1
EndSplineSet
EndChar

StartChar: lozenge
Encoding: 9674 9674 329
Width: 1248
VWidth: 0
Flags: HW
PickledData: "(dp1
S'org.robofab.postScriptHintData'
p2
(dp3
sS'com.typemytype.robofont.layerData'
p4
(dp5
s."
LayerCount: 2
Fore
SplineSet
610 132 m 1
 954 710 l 1
 619 1282 l 1
 274 710 l 1
 610 132 l 1
550 -42 m 1
 102 710 l 1
 557 1463 l 1
 677 1463 l 1
 1128 711 l 1
 669 -42 l 1
 550 -42 l 1
EndSplineSet
EndChar

StartChar: lslash
Encoding: 322 322 330
Width: 503
VWidth: 0
Flags: HW
PickledData: "(dp1
S'org.robofab.postScriptHintData'
p2
(dp3
s."
LayerCount: 2
Fore
SplineSet
156 0 m 1
 156 698 l 1
 1 598 l 1
 1 756 l 1
 156 856 l 1
 156 1483 l 1
 341 1483 l 1
 341 977 l 1
 495 1077 l 1
 495 919 l 1
 341 817 l 1
 341 0 l 1
 156 0 l 1
EndSplineSet
EndChar

StartChar: m
Encoding: 109 109 331
Width: 1881
VWidth: 0
Flags: HW
PickledData: "(dp1
S'org.robofab.postScriptHintData'
p2
(dp3
sS'com.typemytype.robofont.guides'
p4
(tsS'com.typemytype.robofont.layerData'
p5
(dp6
S'b'
(dp7
S'name'
p8
S'm'
sS'lib'
p9
(dp10
sS'unicodes'
p11
(tsS'width'
p12
F1873.95
sS'contours'
p13
(tsS'components'
p14
(tsS'anchors'
p15
(tsss."
AnchorPoint: "top" 997 1026 basechar 0
LayerCount: 2
Fore
SplineSet
177 0 m 1
 177 758 l 2
 177 871 169 967 166 1026 c 1
 357 1026 l 1
 359 860 l 1
 415 982 548 1052 687 1052 c 0
 832 1052 949 973 999 830 c 1
 1073 967 1204 1052 1366 1052 c 0
 1603 1052 1722 892 1722 628 c 2
 1722 0 l 1
 1538 0 l 1
 1538 613 l 2
 1538 787 1483 902 1350 902 c 0
 1186 902 1052 767 1044 592 c 1
 1044 0 l 1
 860 0 l 1
 860 629 l 2
 860 780 807 902 659 902 c 0
 494 902 372 775 362 625 c 1
 362 0 l 1
 177 0 l 1
EndSplineSet
EndChar

StartChar: macron
Encoding: 175 175 332
Width: 720
VWidth: 0
Flags: HW
PickledData: "(dp1
S'org.robofab.postScriptHintData'
p2
(dp3
sS'com.typemytype.robofont.layerData'
p4
(dp5
S'b'
(dp6
S'name'
p7
S'macron'
p8
sS'lib'
p9
(dp10
sS'unicodes'
p11
(tsS'width'
p12
F723
sS'contours'
p13
(tsS'components'
p14
(tsS'anchors'
p15
(tsss."
AnchorPoint: "top" 341 1026 mark 0
LayerCount: 2
Fore
SplineSet
68 1242 m 1
 68 1366 l 1
 652 1366 l 1
 652 1242 l 1
 68 1242 l 1
EndSplineSet
EndChar

StartChar: minus
Encoding: 8722 8722 335
Width: 1287
VWidth: 0
Flags: HW
PickledData: "(dp1
S'org.robofab.postScriptHintData'
p2
(dp3
s."
LayerCount: 2
Fore
SplineSet
174 443 m 1
 174 595 l 1
 1113 595 l 1
 1113 443 l 1
 174 443 l 1
EndSplineSet
EndChar

StartChar: mu
Encoding: 956 956 336
Width: 1235
VWidth: 0
Flags: HW
PickledData: "(dp1
S'org.robofab.postScriptHintData'
p2
(dp3
s."
LayerCount: 2
Fore
SplineSet
343 -276 m 1
 160 -276 l 1
 160 1026 l 1
 343 1026 l 1
 343 392 l 2
 343 214 430 127 586 127 c 0
 771 127 873 246 873 403 c 2
 873 1026 l 1
 1057 1026 l 1
 1057 254 l 2
 1057 175 1063 39 1066 0 c 1
 879 0 l 1
 874 165 l 1
 826 76 727 -23 555 -23 c 0
 469 -23 398 -5 343 30 c 1
 343 -276 l 1
EndSplineSet
EndChar

StartChar: multiply
Encoding: 215 215 337
Width: 1231
VWidth: 0
Flags: HW
PickledData: "(dp1
S'org.robofab.postScriptHintData'
p2
(dp3
sS'com.typemytype.robofont.layerData'
p4
(dp5
s."
LayerCount: 2
Fore
SplineSet
335 145 m 1
 218 262 l 1
 507 553 l 1
 218 842 l 1
 335 960 l 1
 625 670 l 1
 914 960 l 1
 1032 842 l 1
 742 553 l 1
 1032 263 l 1
 914 145 l 1
 625 433 l 1
 335 145 l 1
EndSplineSet
EndChar

StartChar: n
Encoding: 110 110 338
Width: 1244
VWidth: 0
Flags: HW
PickledData: "(dp1
S'org.robofab.postScriptHintData'
p2
(dp3
sS'com.typemytype.robofont.layerData'
p4
(dp5
S'b'
(dp6
S'name'
p7
S'n'
sS'lib'
p8
(dp9
sS'unicodes'
p10
(tsS'width'
p11
F1240.05
sS'contours'
p12
(tsS'components'
p13
(tsS'anchors'
p14
(tsss."
AnchorPoint: "bot" 671 0 basechar 0
AnchorPoint: "top" 685 1026 basechar 0
LayerCount: 2
Fore
SplineSet
177 0 m 1
 177 742 l 2
 177 896 166 1026 166 1026 c 1
 356 1026 l 1
 358 865 l 1
 430 986 571 1052 708 1052 c 0
 968 1052 1086 894 1086 578 c 2
 1086 0 l 1
 902 0 l 1
 902 577 l 2
 902 789 851 902 676 902 c 0
 520 902 373 778 362 643 c 1
 362 0 l 1
 177 0 l 1
EndSplineSet
EndChar

StartChar: nine
Encoding: 57 57 343
Width: 1232
VWidth: 0
Flags: HW
PickledData: "(dp1
S'org.robofab.postScriptHintData'
p2
(dp3
sS'com.typemytype.robofont.layerData'
p4
(dp5
S'b'
(dp6
S'name'
p7
S'nine'
p8
sS'lib'
p9
(dp10
sS'unicodes'
p11
(tsS'width'
p12
F1235.4000000000001
sS'contours'
p13
((dp14
S'points'
p15
((dp16
S'segmentType'
p17
S'curve'
p18
sS'x'
F314
sS'smooth'
p19
I01
sS'y'
F1010
s(dp20
S'y'
F827
sS'x'
F314
sg19
I00
s(dp21
S'y'
F687
sS'x'
F393
sg19
I00
s(dp22
g17
S'curve'
p23
sS'x'
F604
sg19
I01
sS'y'
F687
s(dp24
S'y'
F687
sS'x'
F784
sg19
I00
s(dp25
S'y'
F803
sS'x'
F908
sg19
I00
s(dp26
g17
S'curve'
p27
sS'x'
F908
sg19
I01
sS'y'
F991
s(dp28
S'y'
F1166
sS'x'
F908
sg19
I00
s(dp29
S'y'
F1334
sS'x'
F815
sg19
I00
s(dp30
g17
S'curve'
p31
sS'x'
F605
sg19
I01
sS'y'
F1334
s(dp32
S'y'
F1334
sS'x'
F419
sg19
I00
s(dp33
S'y'
F1196
sS'x'
F314
sg19
I00
stp34
s(dp35
g15
((dp36
g17
S'curve'
p37
sS'x'
F555
sg19
I01
sS'y'
F-24
s(dp38
S'y'
F-24
sS'x'
F434
sg19
I00
s(dp39
S'y'
F13
sS'x'
F304
sg19
I00
s(dp40
g17
S'curve'
p41
sS'x'
F175
sg19
I00
sS'y'
F79
s(dp42
g17
S'line'
p43
sS'x'
F232
sg19
I00
sS'y'
F211
s(dp44
S'y'
F152
sS'x'
F346
sg19
I00
s(dp45
S'y'
F124
sS'x'
F450
sg19
I00
s(dp46
g17
S'curve'
p47
sS'x'
F542
sg19
I01
sS'y'
F124
s(dp48
S'y'
F124
sS'x'
F773
sg19
I00
s(dp49
S'y'
F308
sS'x'
F920
sg19
I00
s(dp50
g17
S'curve'
p51
sS'x'
F920
sg19
I01
sS'y'
F657
s(dp52
g17
S'line'
p53
sS'x'
F920
sg19
I00
sS'y'
F722
s(dp54
S'y'
F600
sS'x'
F856
sg19
I00
s(dp55
S'y'
F544
sS'x'
F742
sg19
I00
s(dp56
g17
S'curve'
p57
sS'x'
F577
sg19
I01
sS'y'
F544
s(dp58
S'y'
F544
sS'x'
F298
sg19
I00
s(dp59
S'y'
F735
sS'x'
F138
sg19
I00
s(dp60
g17
S'curve'
p61
sS'x'
F138
sg19
I01
sS'y'
F1004
s(dp62
S'y'
F1275
sS'x'
F138
sg19
I00
s(dp63
S'y'
F1483
sS'x'
F311
sg19
I00
s(dp64
g17
S'curve'
p65
sS'x'
F613
sg19
I01
sS'y'
F1483
s(dp66
S'y'
F1483
sS'x'
F939
sg19
I00
s(dp67
S'y'
F1231
sS'x'
F1095
sg19
I00
s(dp68
g17
S'curve'
p69
sS'x'
F1095
sg19
I01
sS'y'
F774
s(dp70
S'y'
F203
sS'x'
F1095
sg19
I00
s(dp71
S'y'
F-24
sS'x'
F855
sg19
I00
stp72
stp73
sS'components'
p74
(tsS'anchors'
p75
(tsss."
LayerCount: 2
Fore
SplineSet
597 692 m 0
 779 692 900 813 900 984 c 0
 900 1156 810 1321 609 1321 c 0
 429 1321 325 1186 325 1004 c 0
 325 829 405 692 597 692 c 0
559 -22 m 0
 441 -22 325 9 207 71 c 1
 273 223 l 1
 360 169 452 139 546 139 c 0
 781 139 908 346 909 651 c 0
 910 656 910 698 910 701 c 1
 849 595 729 534 577 534 c 0
 306 534 131 723 131 1000 c 0
 131 1273 312 1482 608 1482 c 0
 936 1482 1100 1227 1100 772 c 0
 1100 270 897 -22 559 -22 c 0
EndSplineSet
EndChar

StartChar: notequal
Encoding: 8800 8800 345
Width: 1360
VWidth: 0
Flags: HW
PickledData: "(dp1
S'org.robofab.postScriptHintData'
p2
(dp3
sS'com.typemytype.robofont.layerData'
p4
(dp5
S'b'
(dp6
S'name'
p7
S'notequal'
p8
sS'lib'
p9
(dp10
sS'unicodes'
p11
(tsS'width'
p12
F1362.5
sS'contours'
p13
(tsS'components'
p14
(tsS'anchors'
p15
(tsss."
LayerCount: 2
Fore
SplineSet
481 43 m 1
 342 64 l 1
 466 319 l 1
 172 319 l 1
 172 456 l 1
 535 456 l 1
 670 714 l 1
 172 714 l 1
 172 852 l 1
 735 852 l 1
 869 1123 l 1
 1012 1102 l 1
 888 852 l 1
 1205 852 l 1
 1205 714 l 1
 823 714 l 1
 686 456 l 1
 1205 456 l 1
 1205 319 l 1
 619 319 l 1
 481 43 l 1
EndSplineSet
EndChar

StartChar: numbersign
Encoding: 35 35 347
Width: 1300
VWidth: 0
Flags: HW
PickledData: "(dp1
S'org.robofab.postScriptHintData'
p2
(dp3
sS'com.typemytype.robofont.layerData'
p4
(dp5
s."
LayerCount: 2
Fore
SplineSet
497 608 m 1
 752 608 l 1
 806 890 l 1
 554 890 l 1
 497 608 l 1
241 42 m 1
 327 483 l 1
 78 483 l 1
 88 608 l 1
 351 608 l 1
 404 890 l 1
 142 890 l 1
 153 1015 l 1
 428 1015 l 1
 508 1431 l 1
 658 1431 l 1
 578 1015 l 1
 831 1015 l 1
 910 1431 l 1
 1058 1431 l 1
 977 1015 l 1
 1214 1015 l 1
 1204 890 l 1
 954 890 l 1
 900 608 l 1
 1152 608 l 1
 1141 483 l 1
 876 483 l 1
 790 42 l 1
 643 42 l 1
 727 483 l 1
 475 483 l 1
 388 42 l 1
 241 42 l 1
EndSplineSet
EndChar

StartChar: o
Encoding: 111 111 348
Width: 1258
VWidth: 0
Flags: HW
PickledData: "(dp1
S'org.robofab.postScriptHintData'
p2
(dp3
sS'com.typemytype.robofont.layerData'
p4
(dp5
S'b'
(dp6
S'name'
p7
S'o'
sS'lib'
p8
(dp9
sS'unicodes'
p10
(tsS'width'
p11
F1259.2
sS'contours'
p12
(tsS'components'
p13
(tsS'anchors'
p14
(tsss."
AnchorPoint: "top" 633 1026 basechar 0
LayerCount: 2
Fore
SplineSet
631 -22 m 0
 292 -22 101 202 101 512 c 0
 101 828 295 1052 633 1052 c 0
 971 1052 1157 828 1157 512 c 0
 1157 203 967 -22 631 -22 c 0
631 128 m 0
 854 128 964 288 964 512 c 0
 964 741 850 902 630 902 c 0
 408 902 294 741 294 512 c 0
 294 288 406 128 631 128 c 0
EndSplineSet
EndChar

StartChar: oe
Encoding: 339 339 355
Width: 1978
VWidth: 0
Flags: HW
PickledData: "(dp1
S'org.robofab.postScriptHintData'
p2
(dp3
sS'com.typemytype.robofont.layerData'
p4
(dp5
S'b'
(dp6
S'name'
p7
S'oe'
p8
sS'lib'
p9
(dp10
sS'unicodes'
p11
(tsS'width'
p12
F1979.8
sS'contours'
p13
(tsS'components'
p14
((dp15
S'transformation'
p16
(I1
I0
I0
I1
I-6
I0
tp17
sS'baseGlyph'
p18
S'o'
s(dp19
g16
(I1
I0
I0
I1
I811
I0
tp20
sg18
S'e'
stp21
sS'anchors'
p22
(tsss."
LayerCount: 2
Fore
SplineSet
1115 615 m 1
 1692 615 l 1
 1692 639 l 1
 1674 791 1569 902 1413 902 c 0
 1246 902 1129 771 1115 615 c 1
624 128 m 0
 831 128 931 300 931 511 c 0
 931 736 832 902 620 902 c 0
 408 902 289 733 289 506 c 0
 289 294 399 128 624 128 c 0
620 -22 m 0
 288 -22 95 203 95 509 c 0
 95 817 283 1052 621 1052 c 0
 815 1052 949 961 1023 823 c 1
 1093 967 1221 1054 1412 1054 c 0
 1700 1054 1864 840 1864 524 c 2
 1864 471 l 1
 1113 471 l 1
 1114 469 1114 443 1115 440 c 0
 1126 253 1254 128 1455 128 c 0
 1636 128 1757 221 1777 235 c 1
 1833 101 l 1
 1812 85 1677 -22 1436 -22 c 0
 1261 -22 1090 67 1021 208 c 1
 956 66 797 -22 620 -22 c 0
EndSplineSet
EndChar

StartChar: ogonek
Encoding: 731 731 356
Width: 508
VWidth: 0
Flags: HW
PickledData: "(dp1
S'org.robofab.postScriptHintData'
p2
(dp3
s."
LayerCount: 2
Fore
SplineSet
280 -424 m 0
 154 -424 47 -366 47 -250 c 0
 47 -135 166 -37 264 15 c 1
 369 10 l 1
 277 -51 207 -153 207 -221 c 0
 207 -274 244 -307 321 -307 c 0
 364 -307 418 -294 454 -284 c 1
 454 -396 l 1
 397 -414 337 -424 280 -424 c 0
EndSplineSet
EndChar

StartChar: one
Encoding: 49 49 361
Width: 1231
VWidth: 0
Flags: HW
PickledData: "(dp1
S'org.robofab.postScriptHintData'
p2
(dp3
sS'com.typemytype.robofont.layerData'
p4
(dp5
S'b'
(dp6
S'name'
p7
S'one'
p8
sS'lib'
p9
(dp10
sS'unicodes'
p11
(tsS'width'
p12
F1234.0999999999999
sS'contours'
p13
(tsS'components'
p14
(tsS'anchors'
p15
(tsss."
LayerCount: 2
Fore
SplineSet
282 0 m 1
 282 150 l 1
 563 150 l 1
 563 1250 l 1
 479 1204 371 1161 266 1122 c 1
 266 1295 l 1
 369 1331 516 1403 605 1456 c 1
 755 1456 l 1
 755 150 l 1
 1019 150 l 1
 1019 0 l 1
 282 0 l 1
EndSplineSet
EndChar

StartChar: onehalf
Encoding: 189 189 362
Width: 2126
VWidth: 0
Flags: HW
PickledData: "(dp1
S'org.robofab.postScriptHintData'
p2
(dp3
sS'com.typemytype.robofont.layerData'
p4
(dp5
s."
LayerCount: 2
Fore
SplineSet
210 631 m 1
 210 744 l 1
 376 744 l 1
 376 1317 l 1
 196 1253 l 1
 197 1371 l 1
 221 1378 385 1446 401 1456 c 1
 518 1456 l 1
 518 742 l 1
 669 742 l 1
 669 631 l 1
 210 631 l 1
461 0 m 1
 1363 1456 l 1
 1521 1456 l 1
 623 0 l 1
 461 0 l 1
1572 840 m 0
 1732.46266241 840 1846.22937199 750.535782161 1846.22937199 592.053129487 c 0
 1846.22937199 457.486615852 1769.89546872 385.416192837 1640 272 c 1
 1474 124 l 1
 1841 124 l 1
 1841 0 l 1
 1283 0 l 1
 1283 126 l 1
 1555 377 l 2
 1660.03695898 473.596489064 1696.4709608 520.939572984 1696.4709608 589.141077517 c 0
 1696.4709608 664.223631514 1653.51701529 714 1564 714 c 0
 1486 714 1407 671 1358 597 c 1
 1284 692 l 1
 1344 786 1452 840 1572 840 c 0
EndSplineSet
EndChar

StartChar: onequarter
Encoding: 188 188 363
Width: 1970
VWidth: 0
Flags: HW
PickledData: "(dp1
S'org.robofab.postScriptHintData'
p2
(dp3
sS'com.typemytype.robofont.layerData'
p4
(dp5
s."
LayerCount: 2
Fore
SplineSet
1278 300 m 1
 1522 300 l 1
 1522 643 l 1
 1278 300 l 1
492 0 m 1
 1394 1456 l 1
 1553 1456 l 1
 654 0 l 1
 492 0 l 1
1524 0 m 1
 1524 190 l 1
 1146 190 l 1
 1146 285 l 1
 1515 800 l 1
 1661 800 l 1
 1661 300 l 1
 1771 300 l 1
 1771 190 l 1
 1659 190 l 1
 1659 0 l 1
 1524 0 l 1
212 631 m 1
 212 744 l 1
 378 744 l 1
 378 1317 l 1
 197 1253 l 1
 198 1371 l 1
 222 1378 386 1446 402 1456 c 1
 520 1456 l 1
 520 742 l 1
 670 742 l 1
 670 631 l 1
 212 631 l 1
EndSplineSet
EndChar

StartChar: onesuperior
Encoding: 185 185 364
Width: 1055
VWidth: 0
Flags: HW
PickledData: "(dp1
S'org.robofab.postScriptHintData'
p2
(dp3
sS'com.typemytype.robofont.layerData'
p4
(dp5
s."
LayerCount: 2
Fore
SplineSet
328 618 m 1
 328 736 l 1
 478 736 l 1
 478 1291 l 1
 455 1279 336 1235 309 1225 c 1
 309 1352 l 1
 346 1364 474 1418 498 1433 c 1
 608 1441 l 1
 608 733 l 1
 748 733 l 1
 748 618 l 1
 328 618 l 1
EndSplineSet
EndChar

StartChar: ordfeminine
Encoding: 170 170 366
Width: 791
VWidth: 0
Flags: HW
PickledData: "(dp1
S'org.robofab.postScriptHintData'
p2
(dp3
sS'com.typemytype.robofont.layerData'
p4
(dp5
S'b'
(dp6
S'name'
p7
S'ordfeminine'
p8
sS'lib'
p9
(dp10
sS'unicodes'
p11
(tsS'width'
p12
F797.10000000000002
sS'contours'
p13
(tsS'components'
p14
(tsS'anchors'
p15
(tsss."
LayerCount: 2
Fore
SplineSet
348 867 m 0
 466 867 546 949 546 1067 c 2
 546 1089 l 1
 326 1089 229 1089 229 974 c 0
 229 904 278 867 348 867 c 0
333 760 m 0
 195 760 91 839 91 969 c 0
 91 1099 183 1178 372 1178 c 2
 546 1178 l 1
 546 1214 l 2
 546 1324 504 1367 404 1367 c 0
 285 1367 170 1313 170 1313 c 1
 128 1414 l 1
 128 1414 248 1481 414 1481 c 0
 565 1481 692 1414 694 1229 c 0
 694 1220 693 917 693 917 c 2
 693 877 695 849 700 783 c 1
 559 783 l 1
 551 878 l 1
 518 814 439 760 333 760 c 0
EndSplineSet
EndChar

StartChar: ordmasculine
Encoding: 186 186 367
Width: 885
VWidth: 0
Flags: HW
PickledData: "(dp1
S'org.robofab.postScriptHintData'
p2
(dp3
sS'com.typemytype.robofont.layerData'
p4
(dp5
S'b'
(dp6
S'name'
p7
S'ordmasculine'
p8
sS'lib'
p9
(dp10
sS'unicodes'
p11
(tsS'width'
p12
F887.85000000000002
sS'contours'
p13
(tsS'components'
p14
(tsS'anchors'
p15
(tsss."
LayerCount: 2
Fore
SplineSet
447 752 m 0
 204 752 78 909 78 1111 c 0
 78 1310 211 1466 445 1466 c 0
 682 1466 810 1308 810 1107 c 0
 810 912 681 752 447 752 c 0
447 879 m 0
 576 879 658 968 658 1105 c 0
 658 1248 576 1336 445 1336 c 0
 317 1336 234 1248 234 1109 c 0
 234 965 310 879 447 879 c 0
EndSplineSet
EndChar

StartChar: oslash
Encoding: 248 248 368
Width: 1254
VWidth: 0
Flags: HW
PickledData: "(dp1
S'org.robofab.postScriptHintData'
p2
(dp3
sS'com.typemytype.robofont.layerData'
p4
(dp5
S'b'
(dp6
S'name'
p7
S'oslash'
p8
sS'lib'
p9
(dp10
sS'unicodes'
p11
(tsS'width'
p12
F1255
sS'contours'
p13
(tsS'components'
p14
(tsS'anchors'
p15
(tsss."
LayerCount: 2
Fore
SplineSet
631 -22 m 0
 967 -22 1157 203 1157 512 c 0
 1157 732.8996719 1066.10731755 908.841672912 895.936515861 994.734169423 c 1
 984 1189 l 1
 896 1227 l 1
 806.538309388 1029.33897334 l 1
 754.161959532 1044.15811279 696.241620068 1052 633 1052 c 0
 295 1052 101 828 101 512 c 0
 101 298.655177291 191.463668626 126.042687052 358.374824832 39.1446917147 c 1
 261 -176 l 1
 348 -214 l 1
 446.598727076 3.50631145751 l 1
 501.983436185 -13.1357811883 563.563360092 -22 631 -22 c 0
827.122039972 842.931166794 m 1
 917.683430076 776.304266054 964 657.965846864 964 512 c 0
 964 288 854 128 631 128 c 0
 586.664753867 128 546.716952427 134.212311071 511.148945005 145.902468304 c 1
 827.122039972 842.931166794 l 1
741.624206399 885.914585162 m 1
 426.504812402 189.674412283 l 1
 338.085951431 256.118983569 294 371.463505662 294 512 c 0
 294 741 408 902 630 902 c 0
 670.886329618 902 708.11151571 896.439206531 741.624206399 885.914585162 c 1
EndSplineSet
EndChar

StartChar: p
Encoding: 112 112 371
Width: 1263
VWidth: 0
Flags: HW
PickledData: "(dp1
S'org.robofab.postScriptHintData'
p2
(dp3
sS'com.typemytype.robofont.layerData'
p4
(dp5
S'b'
(dp6
S'name'
p7
S'p'
sS'lib'
p8
(dp9
sS'unicodes'
p10
(tsS'width'
p11
F1260.25
sS'contours'
p12
(tsS'components'
p13
(tsS'anchors'
p14
(tsss."
AnchorPoint: "top" 676 1026 basechar 0
LayerCount: 2
Fore
SplineSet
669 127 m 0
 867 127 971 289 971 516 c 0
 971 742 866 901 670 901 c 0
 468 901 355 736 355 503 c 0
 355 282 465 127 669 127 c 0
177 -428 m 1
 177 728 l 2
 177 814 170 942 166 1026 c 1
 359 1026 l 1
 360 842 l 1
 397 951 537 1051 704 1051 c 0
 986 1051 1162 828 1162 522 c 0
 1162 212 984 -23 700 -23 c 0
 530 -23 395 72 360 166 c 1
 360 -428 l 1
 177 -428 l 1
EndSplineSet
EndChar

StartChar: paragraph
Encoding: 182 182 372
Width: 1210
VWidth: 0
Flags: HW
PickledData: "(dp1
S'org.robofab.postScriptHintData'
p2
(dp3
sS'com.typemytype.robofont.layerData'
p4
(dp5
S'b'
(dp6
S'name'
p7
S'paragraph'
p8
sS'lib'
p9
(dp10
sS'unicodes'
p11
(tsS'width'
p12
F1211.95
sS'contours'
p13
(tsS'components'
p14
(tsS'anchors'
p15
(tsss."
LayerCount: 2
Fore
SplineSet
483 -179 m 1
 483 813 l 1
 293 818 130 929 130 1133 c 0
 130 1387 321 1456 599 1456 c 2
 1049 1456 l 1
 1049 1315 l 1
 945 1315 l 1
 945 -179 l 1
 810 -179 l 1
 810 1315 l 1
 619 1315 l 1
 619 -179 l 1
 483 -179 l 1
EndSplineSet
EndChar

StartChar: parenleft
Encoding: 40 40 373
Width: 635
VWidth: 0
Flags: HW
PickledData: "(dp1
S'org.robofab.postScriptHintData'
p2
(dp3
sS'com.typemytype.robofont.layerData'
p4
(dp5
S'b'
(dp6
S'name'
p7
S'parenleft'
p8
sS'lib'
p9
(dp10
sS'unicodes'
p11
(tsS'width'
p12
F639.35000000000002
sS'contours'
p13
(tsS'components'
p14
(tsS'anchors'
p15
(tsss."
LayerCount: 2
Fore
SplineSet
412 -173 m 1
 256 66 138 362 138 663 c 0
 138 978 241 1252 408 1516 c 1
 586 1516 l 1
 418 1249 322 960 322 665 c 0
 322 390 427 79 587 -173 c 1
 412 -173 l 1
EndSplineSet
EndChar

StartChar: parenright
Encoding: 41 41 374
Width: 635
VWidth: 0
Flags: HW
PickledData: "(dp1
S'org.robofab.postScriptHintData'
p2
(dp3
sS'com.typemytype.robofont.layerData'
p4
(dp5
S'b'
(dp6
S'name'
p7
S'parenright'
p8
sS'lib'
p9
(dp10
sS'unicodes'
p11
(tsS'width'
p12
F639.35000000000002
sS'contours'
p13
(tsS'components'
p14
(tsS'anchors'
p15
(tsss."
LayerCount: 2
Fore
SplineSet
49 -193 m 1
 218 74 314 363 314 659 c 0
 314 933 208 1243 49 1496 c 1
 224 1496 l 1
 380 1258 498 961 498 660 c 0
 498 345 395 70 228 -193 c 1
 49 -193 l 1
EndSplineSet
EndChar

StartChar: partialdiff
Encoding: 8706 8706 375
Width: 1164
VWidth: 0
Flags: HW
PickledData: "(dp1
S'org.robofab.postScriptHintData'
p2
(dp3
sS'com.typemytype.robofont.layerData'
p4
(dp5
S'b'
(dp6
S'name'
p7
S'partialdiff'
p8
sS'lib'
p9
(dp10
sS'unicodes'
p11
(tsS'width'
p12
F1163.95
sS'contours'
p13
(tsS'components'
p14
(tsS'anchors'
p15
(tsss."
LayerCount: 2
Fore
SplineSet
490 128 m 0
 702 128 822 336 861 652 c 1
 823 757 729 853 602 853 c 0
 411 853 263 652 263 418 c 0
 263 243 350 128 490 128 c 0
878.444444444 899.481481481 m 0
 878.444444444 1189.19187903 764.431079426 1373 560 1373 c 0
 452 1373 348 1332 279 1287 c 1
 267 1429 l 1
 349 1485 463 1524 581 1524 c 0
 884 1524 1071 1313 1071 845 c 0
 1071 415 878 -24 488 -24 c 0
 215 -24 74 171 74 422 c 0
 74 748 301 1002 582 1002 c 0
 747 1002 845 904 878 834 c 1
 878 840.666666667 878.444444444 874.444444444 878.444444444 899.481481481 c 0
EndSplineSet
EndChar

StartChar: percent
Encoding: 37 37 377
Width: 1869
VWidth: 0
Flags: HW
PickledData: "(dp1
S'org.robofab.postScriptHintData'
p2
(dp3
sS'com.typemytype.robofont.layerData'
p4
(dp5
S'b'
(dp6
S'name'
p7
S'percent'
p8
sS'lib'
p9
(dp10
sS'unicodes'
p11
(tsS'width'
p12
F1769.3
sS'contours'
p13
(tsS'components'
p14
(tsS'anchors'
p15
(tsss."
LayerCount: 2
Fore
SplineSet
1414 -19 m 0
 1193 -19 1068 142 1068 371 c 0
 1068 598 1195 765 1417 765 c 0
 1638 765 1760 600 1760 372 c 0
 1760 143 1634 -19 1414 -19 c 0
1416 104 m 0
 1545 104 1601 204 1601 372 c 0
 1601 541 1549 643 1417 643 c 0
 1281 643 1228 537 1228 371 c 0
 1228 200 1285 104 1416 104 c 0
440 0 m 1
 1285 1456 l 1
 1441 1456 l 1
 594 0 l 1
 440 0 l 1
455 692 m 0
 233 692 109 842 109 1081 c 0
 109 1317 235 1475 457 1475 c 0
 679 1475 801 1320 801 1082 c 0
 801 845 675 692 455 692 c 0
456 814 m 0
 585 814 641 914 641 1083 c 0
 641 1251 588 1353 457 1353 c 0
 322 1353 269 1248 269 1082 c 0
 269 911 325 814 456 814 c 0
EndSplineSet
EndChar

StartChar: period
Encoding: 46 46 378
Width: 543
VWidth: 0
Flags: HW
PickledData: "(dp1
S'org.robofab.postScriptHintData'
p2
(dp3
sS'com.typemytype.robofont.layerData'
p4
(dp5
s."
LayerCount: 2
Fore
SplineSet
151 0 m 1
 151 225 l 1
 386 225 l 1
 386 0 l 1
 151 0 l 1
EndSplineSet
EndChar

StartChar: periodcentered
Encoding: 183 183 379
Width: 509
VWidth: 0
Flags: HW
PickledData: "(dp1
S'org.robofab.postScriptHintData'
p2
(dp3
sS'com.typemytype.robofont.layerData'
p4
(dp5
S'b'
(dp6
S'name'
p7
S'middot'
p8
sS'lib'
p9
(dp10
sS'unicodes'
p11
(tsS'width'
p12
I509
sS'contours'
p13
(tsS'components'
p14
(tsS'anchors'
p15
(tsss."
LayerCount: 2
Fore
SplineSet
282 517 m 1
 282 717 l 1
 481 717 l 1
 481 517 l 1
 282 517 l 1
EndSplineSet
EndChar

StartChar: perthousand
Encoding: 8240 8240 380
Width: 2701
VWidth: 0
Flags: HW
PickledData: "(dp1
S'org.robofab.postScriptHintData'
p2
(dp3
sS'com.typemytype.robofont.layerData'
p4
(dp5
S'b'
(dp6
S'name'
p7
S'perthousand'
p8
sS'lib'
p9
(dp10
sS'unicodes'
p11
(tsS'width'
p12
F2581.1999999999998
sS'contours'
p13
(tsS'components'
p14
(tsS'anchors'
p15
(tsss."
LayerCount: 2
Fore
SplineSet
2247 -19 m 0
 2025 -19 1901 142 1901 371 c 0
 1901 598 2027 765 2249 765 c 0
 2471 765 2593 600 2593 372 c 0
 2593 143 2467 -19 2247 -19 c 0
2248 104 m 0
 2377 104 2433 204 2433 372 c 0
 2433 541 2381 643 2249 643 c 0
 2114 643 2061 537 2061 371 c 0
 2061 200 2117 104 2248 104 c 0
EndSplineSet
Refer: 377 37 N 1 0 0 1 0 0 2
EndChar

StartChar: pi
Encoding: 960 960 381
Width: 1288
VWidth: 0
Flags: HW
PickledData: "(dp1
S'org.robofab.postScriptHintData'
p2
(dp3
sS'com.typemytype.robofont.layerData'
p4
(dp5
S'b'
(dp6
S'name'
p7
S'pi'
p8
sS'lib'
p9
(dp10
sS'unicodes'
p11
(tsS'width'
p12
F1288
sS'contours'
p13
(tsS'components'
p14
(tsS'anchors'
p15
(tsss."
LayerCount: 2
Fore
SplineSet
180 0 m 1
 303 182 325 543 341 885 c 1
 235 883 150 862 90 824 c 1
 73 963 l 1
 131 1004 223 1026 362 1026 c 2
 1198 1026 l 1
 1198 885 l 1
 1002 885 l 1
 1002 284 l 2
 1002 215 1007 134 1105 134 c 0
 1124 134 1148 138 1181 145 c 1
 1183 0 l 1
 1139 -8 1092 -13 1056 -13 c 0
 912 -13 829 61 829 267 c 2
 829 885 l 1
 511 885 l 1
 507 790 479 160 370 0 c 1
 180 0 l 1
EndSplineSet
EndChar

StartChar: plus
Encoding: 43 43 382
Width: 1202
VWidth: 0
Flags: HW
PickledData: "(dp1
S'org.robofab.postScriptHintData'
p2
(dp3
sS'com.typemytype.robofont.layerData'
p4
(dp5
S'b'
(dp6
S'name'
p7
S'plus'
p8
sS'lib'
p9
(dp10
sS'unicodes'
p11
(tsS'width'
p12
F1206.9000000000001
sS'contours'
p13
(tsS'components'
p14
(tsS'anchors'
p15
(tsss."
LayerCount: 2
Fore
SplineSet
514 103 m 1
 514 518 l 1
 131 518 l 1
 131 674 l 1
 515 674 l 1
 515 1075 l 1
 686 1075 l 1
 686 674 l 1
 1072 674 l 1
 1072 518 l 1
 686 518 l 1
 686 103 l 1
 514 103 l 1
EndSplineSet
EndChar

StartChar: plusminus
Encoding: 177 177 383
Width: 1232
VWidth: 0
Flags: HW
PickledData: "(dp1
S'org.robofab.postScriptHintData'
p2
(dp3
sS'com.typemytype.robofont.layerData'
p4
(dp5
S'b'
(dp6
S'name'
p7
S'plusminus'
p8
sS'lib'
p9
(dp10
sS'unicodes'
p11
(tsS'width'
p12
F1234.75
sS'contours'
p13
(tsS'components'
p14
(tsS'anchors'
p15
(tsss."
LayerCount: 2
Fore
SplineSet
184 0 m 1
 184 132 l 1
 1057 132 l 1
 1057 0 l 1
 184 0 l 1
532 255 m 1
 532 594 l 1
 194 594 l 1
 194 749 l 1
 530 749 l 1
 530 1089 l 1
 700 1089 l 1
 700 749 l 1
 1034 749 l 1
 1034 594 l 1
 705 594 l 1
 705 255 l 1
 532 255 l 1
EndSplineSet
EndChar

StartChar: product
Encoding: 8719 8719 384
Width: 1559
VWidth: 0
Flags: HW
PickledData: "(dp1
S'org.robofab.postScriptHintData'
p2
(dp3
sS'com.typemytype.robofont.guides'
p4
(tsS'com.typemytype.robofont.layerData'
p5
(dp6
S'b'
(dp7
S'name'
p8
S'product'
p9
sS'lib'
p10
(dp11
sS'unicodes'
p12
(tsS'width'
p13
F1568
sS'contours'
p14
(tsS'components'
p15
(tsS'anchors'
p16
(tsss."
LayerCount: 2
Fore
SplineSet
276 -89 m 1
 276 1300 l 1
 111 1300 l 1
 111 1456 l 1
 1427 1456 l 1
 1427 1300 l 1
 1279 1300 l 1
 1279 -89 l 1
 1084 -89 l 1
 1084 1300 l 1
 467 1300 l 1
 467 -89 l 1
 276 -89 l 1
EndSplineSet
EndChar

StartChar: q
Encoding: 113 113 385
Width: 1259
VWidth: 0
Flags: HW
PickledData: "(dp1
S'org.robofab.postScriptHintData'
p2
(dp3
sS'com.typemytype.robofont.layerData'
p4
(dp5
S'b'
(dp6
S'name'
p7
S'q'
sS'lib'
p8
(dp9
sS'unicodes'
p10
(tsS'width'
p11
F1254.3
sS'contours'
p12
(tsS'components'
p13
(tsS'anchors'
p14
(tsss."
LayerCount: 2
Fore
SplineSet
596 129 m 0
 795 129 902 288 902 531 c 0
 902 750 792 901 603 901 c 0
 408 901 295 744 295 510 c 0
 295 283 403 129 596 129 c 0
899 -419 m 1
 899 150 l 1
 845 68 735 -22 574 -22 c 0
 284 -22 100 198 100 512 c 0
 100 832 285 1052 582 1052 c 0
 720 1052 835 986 899 884 c 1
 899 1026 l 1
 1090 1026 l 1
 1089 999 1083 818 1083 792 c 2
 1083 -419 l 1
 899 -419 l 1
EndSplineSet
EndChar

StartChar: question
Encoding: 63 63 386
Width: 1058
VWidth: 0
Flags: HW
PickledData: "(dp1
S'org.robofab.postScriptHintData'
p2
(dp3
sS'com.typemytype.robofont.layerData'
p4
(dp5
S'b'
(dp6
S'name'
p7
S'question'
p8
sS'lib'
p9
(dp10
sS'unicodes'
p11
(tsS'width'
p12
F1055.9000000000001
sS'contours'
p13
(tsS'components'
p14
(tsS'anchors'
p15
(tsss."
LayerCount: 2
Fore
SplineSet
343 -4 m 1
 343 217 l 1
 530 217 l 1
 530 -4 l 1
 343 -4 l 1
361 379 m 1
 361 521 l 2
 361 770 737 894 737 1123 c 0
 737 1264 625 1319 487 1319 c 0
 365 1319 246 1271 198 1245 c 1
 198 1411 l 1
 273 1448 397 1479 508 1479 c 0
 749 1479 928 1365 928 1130 c 0
 928 831 510 718 510 478 c 2
 510 379 l 1
 361 379 l 1
EndSplineSet
EndChar

StartChar: quotedbl
Encoding: 34 34 388
Width: 932
VWidth: 0
Flags: HW
PickledData: "(dp1
S'org.robofab.postScriptHintData'
p2
(dp3
sS'com.typemytype.robofont.layerData'
p4
(dp5
S'b'
(dp6
S'name'
p7
S'quotedbl'
p8
sS'lib'
p9
(dp10
sS'unicodes'
p11
(tsS'width'
p12
F785.64999999999998
sS'contours'
p13
(tsS'components'
p14
(tsS'anchors'
p15
(tsss."
LayerCount: 2
Fore
SplineSet
583 955 m 1
 540 1456 l 1
 730 1456 l 1
 697 955 l 1
 583 955 l 1
247 955 m 1
 205 1456 l 1
 394 1456 l 1
 360 955 l 1
 247 955 l 1
EndSplineSet
EndChar

StartChar: quotedblbase
Encoding: 8222 8222 389
Width: 960
VWidth: 0
Flags: HW
PickledData: "(dp1
S'org.robofab.postScriptHintData'
p2
(dp3
s."
LayerCount: 2
Fore
SplineSet
505 -327 m 1
 587 216 l 1
 785 216 l 1
 657 -327 l 1
 505 -327 l 1
155 -327 m 1
 237 216 l 1
 435 216 l 1
 307 -327 l 1
 155 -327 l 1
EndSplineSet
EndChar

StartChar: quotedblleft
Encoding: 8220 8220 390
Width: 1024
VWidth: 0
Flags: HW
PickledData: "(dp1
S'org.robofab.postScriptHintData'
p2
(dp3
sS'com.typemytype.robofont.layerData'
p4
(dp5
S'b'
(dp6
S'name'
p7
S'quotedblleft'
p8
sS'lib'
p9
(dp10
sS'unicodes'
p11
(tsS'width'
p12
F1024
sS'contours'
p13
(tsS'components'
p14
(tsS'anchors'
p15
(tsss."
LayerCount: 2
Fore
SplineSet
558 882 m 1
 707 1456 l 1
 857 1456 l 1
 764 882 l 1
 558 882 l 1
166 882 m 1
 321 1456 l 1
 470 1456 l 1
 377 882 l 1
 166 882 l 1
EndSplineSet
EndChar

StartChar: quotedblright
Encoding: 8221 8221 391
Width: 1024
VWidth: 0
Flags: HW
PickledData: "(dp1
S'org.robofab.postScriptHintData'
p2
(dp3
sS'com.typemytype.robofont.layerData'
p4
(dp5
S'b'
(dp6
S'name'
p7
S'quotedblright'
p8
sS'lib'
p9
(dp10
sS'unicodes'
p11
(tsS'width'
p12
F1024
sS'contours'
p13
(tsS'components'
p14
(tsS'anchors'
p15
(tsss."
LayerCount: 2
Fore
SplineSet
561 882 m 1
 653 1456 l 1
 858 1456 l 1
 712 882 l 1
 561 882 l 1
197 882 m 1
 287 1456 l 1
 493 1456 l 1
 347 882 l 1
 197 882 l 1
EndSplineSet
EndChar

StartChar: quoteleft
Encoding: 8216 8216 392
Width: 530
VWidth: 0
Flags: HW
PickledData: "(dp1
S'org.robofab.postScriptHintData'
p2
(dp3
sS'com.typemytype.robofont.layerData'
p4
(dp5
S'b'
(dp6
S'name'
p7
S'quoteleft'
p8
sS'lib'
p9
(dp10
sS'unicodes'
p11
(tsS'width'
p12
F518.5
sS'contours'
p13
(tsS'components'
p14
(tsS'anchors'
p15
(tsss."
LayerCount: 2
Fore
SplineSet
411 1456 m 1
 343 882 l 1
 123 882 l 1
 277 1456 l 1
 411 1456 l 1
EndSplineSet
EndChar

StartChar: quoteright
Encoding: 8217 8217 393
Width: 530
VWidth: 0
Flags: HW
PickledData: "(dp1
S'org.robofab.postScriptHintData'
p2
(dp3
sS'com.typemytype.robofont.layerData'
p4
(dp5
S'b'
(dp6
S'name'
p7
S'quoteright'
p8
sS'lib'
p9
(dp10
g4
(dp11
S'b'
(dp12
g7
S'quoteleft'
p13
sg9
(dp14
sS'unicodes'
p15
(tsS'width'
p16
I494
sS'contours'
p17
(tsS'components'
p18
(tsS'anchors'
p19
(tssssg15
(tsg16
F537.25
sg17
((dp20
S'points'
p21
((dp22
S'segmentType'
p23
S'line'
p24
sS'x'
F416
sS'smooth'
p25
I00
sS'y'
F888
s(dp26
g23
S'line'
p27
sS'x'
F300
sg25
I00
sS'y'
F888
s(dp28
g23
S'line'
p29
sS'x'
F150
sg25
I00
sS'y'
F1456
s(dp30
g23
S'line'
p31
sS'x'
F360
sg25
I00
sS'y'
F1456
stp32
stp33
sg18
(tsg19
(tsss."
LayerCount: 2
Fore
SplineSet
123 882 m 1
 191 1456 l 1
 411 1456 l 1
 257 882 l 1
 123 882 l 1
EndSplineSet
EndChar

StartChar: quotesinglbase
Encoding: 8218 8218 394
Width: 587
VWidth: 0
Flags: HW
PickledData: "(dp1
S'org.robofab.postScriptHintData'
p2
(dp3
sS'com.typemytype.robofont.layerData'
p4
(dp5
S'b'
(dp6
S'name'
p7
S'quotesinglbase'
p8
sS'lib'
p9
(dp10
sS'unicodes'
p11
(tsS'width'
p12
F595.70000000000005
sS'contours'
p13
(tsS'components'
p14
(tsS'anchors'
p15
(tsss."
LayerCount: 2
Fore
SplineSet
155 -327 m 1
 237 216 l 1
 435 216 l 1
 307 -327 l 1
 155 -327 l 1
EndSplineSet
EndChar

StartChar: quotesingle
Encoding: 39 39 395
Width: 509
VWidth: 0
Flags: HW
PickledData: "(dp1
S'org.robofab.postScriptHintData'
p2
(dp3
sS'com.typemytype.robofont.layerData'
p4
(dp5
S'b'
(dp6
S'name'
p7
S'quotesingle'
p8
sS'lib'
p9
(dp10
sS'unicodes'
p11
(tsS'width'
p12
F507.85000000000002
sS'contours'
p13
(tsS'components'
p14
(tsS'anchors'
p15
(tsss."
LayerCount: 2
Fore
SplineSet
199 936 m 1
 162 1456 l 1
 359 1456 l 1
 331 936 l 1
 199 936 l 1
EndSplineSet
EndChar

StartChar: r
Encoding: 114 114 396
Width: 803
VWidth: 0
Flags: HW
PickledData: "(dp1
S'org.robofab.postScriptHintData'
p2
(dp3
sS'com.typemytype.robofont.layerData'
p4
(dp5
S'b'
(dp6
S'name'
p7
S'r'
sS'lib'
p8
(dp9
sS'unicodes'
p10
(tsS'width'
p11
F818.89999999999998
sS'contours'
p12
(tsS'components'
p13
(tsS'anchors'
p14
(tsss."
AnchorPoint: "bot" 301 0 basechar 0
AnchorPoint: "top" 518 1026 basechar 0
LayerCount: 2
Fore
SplineSet
179 0 m 1
 179 774 l 2
 179 851 166 1026 166 1026 c 1
 361 1026 l 1
 363 866 l 1
 424 987 520 1050 637 1050 c 0
 671 1050 706 1047 741 1038 c 1
 740 875 l 1
 707 884 667 891 627 891 c 0
 475 891 365 784 365 571 c 2
 365 0 l 1
 179 0 l 1
EndSplineSet
EndChar

StartChar: radical
Encoding: 8730 8730 398
Width: 1314
VWidth: 0
Flags: HW
PickledData: "(dp1
S'org.robofab.postScriptHintData'
p2
(dp3
sS'com.typemytype.robofont.layerData'
p4
(dp5
s."
LayerCount: 2
Fore
SplineSet
671 -150 m 1
 346 676 l 2
 345 676 176 648 176 648 c 1
 150 777 l 1
 464 830 l 1
 735 98 l 1
 1132 1585 l 1
 1286 1585 l 1
 823 -150 l 1
 671 -150 l 1
EndSplineSet
EndChar

StartChar: registered
Encoding: 174 174 402
Width: 1728
VWidth: 0
Flags: HW
PickledData: "(dp1
S'org.robofab.postScriptHintData'
p2
(dp3
sS'com.typemytype.robofont.layerData'
p4
(dp5
S'b'
(dp6
S'name'
p7
S'registered'
p8
sS'lib'
p9
(dp10
sS'unicodes'
p11
(tsS'width'
p12
F1727.05
sS'contours'
p13
(tsS'components'
p14
(tsS'anchors'
p15
(tsss."
LayerCount: 2
Fore
SplineSet
863 -25 m 0
 448 -25 108 312 108 728 c 0
 108 1144 448 1483 863 1483 c 0
 1280 1483 1621 1144 1621 728 c 0
 1621 312 1280 -25 863 -25 c 0
865 75 m 0
 1218 75 1503 371 1503 725 c 0
 1503 1080 1218 1381 865 1381 c 0
 510 1381 225 1080 225 725 c 0
 225 371 510 75 865 75 c 0
706 777 m 1
 823 777 l 2
 983 777 1063 801 1063 914 c 0
 1063 1038 1015 1055 822 1055 c 2
 706 1055 l 1
 706 777 l 1
544 278 m 1
 544 1187 l 1
 827 1187 l 2
 1117 1187 1233 1094 1233 928 c 0
 1233 812 1191 715 1025 681 c 1
 1235 278 l 1
 1051 278 l 1
 867 660 l 1
 708 660 l 1
 708 278 l 1
 544 278 l 1
EndSplineSet
EndChar

StartChar: ring
Encoding: 730 730 403
Width: 628
VWidth: 0
Flags: HW
PickledData: "(dp1
S'org.robofab.postScriptHintData'
p2
(dp3
sS'com.typemytype.robofont.layerData'
p4
(dp5
S'b'
(dp6
S'name'
p7
S'ring'
p8
sS'lib'
p9
(dp10
sS'unicodes'
p11
(tsS'width'
p12
F633.35000000000002
sS'contours'
p13
(tsS'components'
p14
(tsS'anchors'
p15
(tsss."
AnchorPoint: "top" 315 1486 basechar 0
AnchorPoint: "top" 315 1026 mark 0
LayerCount: 2
Fore
SplineSet
315 1137 m 4
 203 1137 114 1220 114 1332 c 4
 114 1445 203 1527 315 1527 c 4
 427 1527 516 1445 516 1332 c 4
 516 1220 427 1137 315 1137 c 4
314 1222 m 4
 373 1222 420 1271 420 1332 c 4
 420 1393 373 1442 314 1442 c 4
 255 1442 208 1393 208 1332 c 4
 208 1271 255 1222 314 1222 c 4
EndSplineSet
EndChar

StartChar: s
Encoding: 115 115 405
Width: 978
VWidth: 0
Flags: HW
PickledData: "(dp1
S'org.robofab.postScriptHintData'
p2
(dp3
sS'com.typemytype.robofont.layerData'
p4
(dp5
S'b'
(dp6
S'name'
p7
S's'
sS'lib'
p8
(dp9
sS'unicodes'
p10
(tsS'width'
p11
F981.89999999999998
sS'contours'
p12
((dp13
S'points'
p14
((dp15
S'segmentType'
p16
S'curve'
p17
sS'x'
F498
sS'smooth'
p18
I01
sS'y'
F-23
s(dp19
S'y'
F-23
sS'x'
F282
sg18
I00
s(dp20
S'y'
F70
sS'x'
F145
sg18
I00
s(dp21
g16
S'curve'
p22
sS'x'
F116
sg18
I00
sS'y'
F94
s(dp23
g16
S'line'
p24
sS'x'
F160
sg18
I00
sS'y'
F222
s(dp25
S'y'
F189
sS'x'
F208
sg18
I00
s(dp26
S'y'
F109
sS'x'
F348
sg18
I00
s(dp27
g16
S'curve'
p28
sS'x'
F484
sg18
I01
sS'y'
F109
s(dp29
S'y'
F109
sS'x'
F589
sg18
I00
s(dp30
S'y'
F141
sS'x'
F711
sg18
I00
s(dp31
g16
S'curve'
p32
sS'x'
F711
sg18
I01
sS'y'
F272
s(dp33
S'y'
F395
sS'x'
F711
sg18
I00
s(dp34
S'y'
F426
sS'x'
F561
sg18
I00
s(dp35
g16
S'curve'
p36
sS'x'
F412
sg18
I00
sS'y'
F474
s(dp37
S'y'
F521
sS'x'
F262
sg18
I00
s(dp38
S'y'
F585
sS'x'
F112
sg18
I00
s(dp39
g16
S'curve'
p40
sS'x'
F112
sg18
I01
sS'y'
F771
s(dp41
S'y'
F970
sS'x'
F112
sg18
I00
s(dp42
S'y'
F1051
sS'x'
F318
sg18
I00
s(dp43
g16
S'curve'
p44
sS'x'
F488
sg18
I01
sS'y'
F1051
s(dp45
S'y'
F1051
sS'x'
F715
sg18
I00
s(dp46
S'y'
F991
sS'x'
F792
sg18
I00
s(dp47
g16
S'curve'
p48
sS'x'
F832
sg18
I00
sS'y'
F966
s(dp49
g16
S'line'
p50
sS'x'
F785
sg18
I00
sS'y'
F851
s(dp51
S'y'
F858
sS'x'
F772
sg18
I00
s(dp52
S'y'
F917
sS'x'
F667
sg18
I00
s(dp53
g16
S'curve'
p54
sS'x'
F504
sg18
I01
sS'y'
F917
s(dp55
S'y'
F917
sS'x'
F355
sg18
I00
s(dp56
S'y'
F882
sS'x'
F283
sg18
I00
s(dp57
g16
S'curve'
p58
sS'x'
F283
sg18
I01
sS'y'
F774
s(dp59
S'y'
F660
sS'x'
F283
sg18
I00
s(dp60
S'y'
F629
sS'x'
F433
sg18
I00
s(dp61
g16
S'curve'
p62
sS'x'
F582
sg18
I01
sS'y'
F581
s(dp63
S'y'
F533
sS'x'
F732
sg18
I00
s(dp64
S'y'
F468
sS'x'
F881
sg18
I00
s(dp65
g16
S'curve'
p66
sS'x'
F881
sg18
I01
sS'y'
F284
s(dp67
S'y'
F62
sS'x'
F881
sg18
I00
s(dp68
S'y'
F-23
sS'x'
F685
sg18
I00
stp69
stp70
sS'components'
p71
(tsS'anchors'
p72
(tsss."
AnchorPoint: "bot" 526 0 basechar 0
AnchorPoint: "top" 487 1026 basechar 0
LayerCount: 2
Fore
SplineSet
518 -22 m 0
 315 -22 176 62 126 102 c 1
 177 239 l 1
 239 193 367 129 503 129 c 0
 608 129 707 160 707 279 c 0
 707 369 641 395 482 449 c 2
 394 479 l 1
 243 533 129 594 129 767 c 0
 129 970 309 1051 498 1051 c 0
 662 1051 776 1003 840 962 c 1
 789 830 l 1
 746 853 636 902 519 902 c 0
 387 902 312 855 312 772 c 0
 312 694 352 672 474 628 c 0
 492 622 553 602 577 593 c 0
 755 530 881 475 881 286 c 0
 881 59 697 -22 518 -22 c 0
EndSplineSet
EndChar

StartChar: section
Encoding: 167 167 412
Width: 1069
VWidth: 0
Flags: HW
PickledData: "(dp1
S'org.robofab.postScriptHintData'
p2
(dp3
sS'com.typemytype.robofont.layerData'
p4
(dp5
S'b'
(dp6
S'name'
p7
S'section'
p8
sS'lib'
p9
(dp10
sS'unicodes'
p11
(tsS'width'
p12
F1071.6500000000001
sS'contours'
p13
(tsS'components'
p14
(tsS'anchors'
p15
(tsss."
LayerCount: 2
Fore
SplineSet
611 530 m 1
 669 566 723 629 723 701 c 0
 723 798 629 830 508 888 c 1
 444 859 363 800 363 727 c 0
 363 638 462 595 611 530 c 1
507 -75 m 0
 409 -75 300 -56 205 -19 c 1
 205 131 l 1
 313 86 413 65 495 65 c 0
 630.857640799 65 719.007424894 122.169892523 719.007424894 225.229240495 c 0
 719.007424894 307.387517835 618.970473617 346.485065315 412 444 c 0
 272 509 188 587 188 714 c 0
 188 821 280 914 384 958 c 1
 281 1023 214 1087 214 1201 c 0
 214 1396 390 1486 592 1486 c 0
 679 1486 761 1474 843 1446 c 1
 843 1311 l 1
 773 1337 692 1352 618 1352 c 0
 497 1352 394 1310 394 1208 c 0
 394 1134 464 1084 627 1008 c 0
 788 930 910 864 910 721 c 0
 910 614 825 523 731 464 c 1
 828 413 900 344 900 231 c 0
 900 25 722 -75 507 -75 c 0
EndSplineSet
EndChar

StartChar: semicolon
Encoding: 59 59 413
Width: 543
VWidth: 0
Flags: HW
PickledData: "(dp1
S'org.robofab.postScriptHintData'
p2
(dp3
sS'com.typemytype.robofont.layerData'
p4
(dp5
s."
LayerCount: 2
Fore
SplineSet
169 827 m 1
 169 1053 l 1
 395 1053 l 1
 395 827 l 1
 169 827 l 1
96 -265 m 1
 203 222 l 1
 413 222 l 1
 246 -265 l 1
 96 -265 l 1
EndSplineSet
EndChar

StartChar: seven
Encoding: 55 55 414
Width: 1231
VWidth: 0
Flags: HW
PickledData: "(dp1
S'org.robofab.postScriptHintData'
p2
(dp3
sS'com.typemytype.robofont.layerData'
p4
(dp5
s."
LayerCount: 2
Fore
SplineSet
354 0 m 1
 876 1295 l 1
 171 1295 l 1
 171 1456 l 1
 1092 1456 l 1
 1092 1312 l 1
 560 0 l 1
 354 0 l 1
EndSplineSet
EndChar

StartChar: six
Encoding: 54 54 415
Width: 1231
VWidth: 0
Flags: HW
PickledData: "(dp1
S'org.robofab.postScriptHintData'
p2
(dp3
sS'com.typemytype.robofont.layerData'
p4
(dp5
s."
LayerCount: 2
Fore
SplineSet
656 139 m 0
 834 139 938 279 938 463 c 0
 938 644 849 784 661 784 c 0
 475 784 355 654 355 503 c 0
 355 289 465 139 656 139 c 0
656 -22 m 0
 303 -22 140 268 140 694 c 0
 140 1126 326 1482 707 1482 c 0
 852 1482 971 1435 1049 1367 c 1
 984 1227 l 1
 912 1284 816 1321 709 1321 c 0
 449.501576179 1321 340 1036.7110189 340 761 c 1
 405 862 520 941 685 941 c 0
 947 941 1135 757 1135 466 c 0
 1135 189 952 -22 656 -22 c 0
EndSplineSet
EndChar

StartChar: slash
Encoding: 47 47 416
Width: 910
VWidth: 0
Flags: HW
PickledData: "(dp1
S'org.robofab.postScriptHintData'
p2
(dp3
sS'com.typemytype.robofont.layerData'
p4
(dp5
s."
LayerCount: 2
Fore
SplineSet
125 0 m 1
 655 1456 l 1
 826 1456 l 1
 292 0 l 1
 125 0 l 1
EndSplineSet
EndChar

StartChar: softhyphen
Encoding: 173 173 418
Width: 679
VWidth: 0
Flags: HW
PickledData: "(dp1
S'org.robofab.postScriptHintData'
p2
(dp3
s."
LayerCount: 2
Fore
SplineSet
61 487 m 1
 61 629 l 1
 617 629 l 1
 617 487 l 1
 61 487 l 1
EndSplineSet
EndChar

StartChar: sterling
Encoding: 163 163 420
Width: 1203
VWidth: 0
Flags: HW
PickledData: "(dp1
S'org.robofab.postScriptHintData'
p2
(dp3
sS'com.typemytype.robofont.layerData'
p4
(dp5
S'b'
(dp6
S'name'
p7
S'sterling'
p8
sS'lib'
p9
(dp10
sS'unicodes'
p11
(tsS'width'
p12
F1207.3
sS'contours'
p13
(tsS'components'
p14
(tsS'anchors'
p15
(tsss."
LayerCount: 2
Fore
SplineSet
801.679045594 1323.18547557 m 0
 600.856457912 1323.18547557 525 1204.46790871 525 982 c 2
 525 820 l 1
 888 820 l 1
 888 696 l 1
 527 696 l 1
 527 589 l 2
 527 363 439 214 385 157 c 1
 1042 157 l 1
 1042 0 l 1
 155 0 l 1
 155 150 l 1
 262 229 338 380 338 591 c 2
 338 696 l 1
 147 696 l 1
 147 820 l 1
 336 820 l 1
 336 939 l 2
 336 1242 427 1480 782 1480 c 0
 919 1480 1001 1447 1058 1405 c 1
 1008 1265 l 1
 964.870557146 1290.87766571 897.857721768 1323.18547557 801.679045594 1323.18547557 c 0
EndSplineSet
EndChar

StartChar: summation
Encoding: 8721 8721 421
Width: 1193
VWidth: 0
Flags: HW
PickledData: "(dp1
S'org.robofab.postScriptHintData'
p2
(dp3
sS'com.typemytype.robofont.layerData'
p4
(dp5
S'b'
(dp6
S'name'
p7
S'summation'
p8
sS'lib'
p9
(dp10
sS'unicodes'
p11
(tsS'width'
p12
F1198.3
sS'contours'
p13
(tsS'components'
p14
(tsS'anchors'
p15
(tsss."
LayerCount: 2
Fore
SplineSet
132 -110 m 1
 132 -14 l 1
 628 681 l 1
 152 1358 l 1
 152 1455 l 1
 1053 1455 l 1
 1053 1308 l 1
 381 1308 l 1
 826 688 l 1
 355 40 l 1
 1095 40 l 1
 1095 -110 l 1
 132 -110 l 1
EndSplineSet
EndChar

StartChar: t
Encoding: 116 116 422
Width: 803
VWidth: 0
Flags: HW
PickledData: "(dp1
S'org.robofab.postScriptHintData'
p2
(dp3
sS'com.typemytype.robofont.layerData'
p4
(dp5
S'b'
(dp6
S'name'
p7
S't'
sS'lib'
p8
(dp9
sS'unicodes'
p10
(tsS'width'
p11
F763.89999999999998
sS'contours'
p12
(tsS'components'
p13
(tsS'anchors'
p14
(tsss."
AnchorPoint: "bot" 532 6 basechar 0
AnchorPoint: "caron.alt" 260 1280 basechar 0
AnchorPoint: "top" 328 1347 basechar 0
LayerCount: 2
Fore
SplineSet
704 0 m 1
 619 0 l 1
 328 3 240 87 240 355 c 2
 240 903 l 1
 43 903 l 1
 43 1026 l 1
 244 1026 l 1
 244 1290 l 1
 424 1343 l 1
 424 1026 l 1
 702 1026 l 1
 702 903 l 1
 424 903 l 1
 424 345 l 2
 424 169 472 144 704 144 c 1
 704 0 l 1
EndSplineSet
EndChar

StartChar: thorn
Encoding: 254 254 427
Width: 1236
VWidth: 0
Flags: HW
PickledData: "(dp1
S'org.robofab.postScriptHintData'
p2
(dp3
sS'com.typemytype.robofont.layerData'
p4
(dp5
s."
LayerCount: 2
Fore
SplineSet
639 126 m 0
 844 126 941 304 941 519 c 0
 941 727 856 900 644 900 c 0
 413 900 335 706 335 498 c 0
 335 283 440 126 639 126 c 0
154 -419 m 1
 154 1458 l 1
 337 1458 l 1
 337 879 l 1
 399 987 525 1051 665 1051 c 0
 979 1051 1137 819 1137 523 c 0
 1137 228 978 -22 665 -22 c 0
 532 -22 403 31 337 138 c 1
 337 -419 l 1
 154 -419 l 1
EndSplineSet
EndChar

StartChar: three
Encoding: 51 51 428
Width: 1231
VWidth: 0
Flags: HW
PickledData: "(dp1
S'org.robofab.postScriptHintData'
p2
(dp3
sS'com.typemytype.robofont.layerData'
p4
(dp5
S'b'
(dp6
S'name'
p7
S'three'
p8
sS'lib'
p9
(dp10
sS'unicodes'
p11
(tsS'width'
p12
F1234.0999999999999
sS'contours'
p13
((dp14
S'points'
p15
((dp16
S'segmentType'
p17
S'curve'
p18
sS'x'
F344
sS'smooth'
p19
I01
sS'y'
F1010
s(dp20
S'y'
F827
sS'x'
F344
sg19
I00
s(dp21
S'y'
F687
sS'x'
F423
sg19
I00
s(dp22
g17
S'curve'
p23
sS'x'
F634
sg19
I01
sS'y'
F687
s(dp24
S'y'
F687
sS'x'
F814
sg19
I00
s(dp25
S'y'
F803
sS'x'
F938
sg19
I00
s(dp26
g17
S'curve'
p27
sS'x'
F938
sg19
I01
sS'y'
F991
s(dp28
S'y'
F1166
sS'x'
F938
sg19
I00
s(dp29
S'y'
F1334
sS'x'
F845
sg19
I00
s(dp30
g17
S'curve'
p31
sS'x'
F635
sg19
I01
sS'y'
F1334
s(dp32
S'y'
F1334
sS'x'
F449
sg19
I00
s(dp33
S'y'
F1196
sS'x'
F344
sg19
I00
stp34
s(dp35
g15
((dp36
g17
S'curve'
p37
sS'x'
F594
sg19
I01
sS'y'
F-24
s(dp38
S'y'
F-24
sS'x'
F473
sg19
I00
s(dp39
S'y'
F-1
sS'x'
F367
sg19
I00
s(dp40
g17
S'curve'
p41
sS'x'
F238
sg19
I00
sS'y'
F65
s(dp42
g17
S'line'
p43
sS'x'
F287
sg19
I00
sS'y'
F197
s(dp44
S'y'
F138
sS'x'
F401
sg19
I00
s(dp45
S'y'
F124
sS'x'
F489
sg19
I00
s(dp46
g17
S'curve'
p47
sS'x'
F581
sg19
I01
sS'y'
F124
s(dp48
S'y'
F124
sS'x'
F812
sg19
I00
s(dp49
S'y'
F308
sS'x'
F950
sg19
I00
s(dp50
g17
S'curve'
p51
sS'x'
F950
sg19
I01
sS'y'
F657
s(dp52
g17
S'line'
p53
sS'x'
F950
sg19
I00
sS'y'
F722
s(dp54
S'y'
F600
sS'x'
F886
sg19
I00
s(dp55
S'y'
F544
sS'x'
F772
sg19
I00
s(dp56
g17
S'curve'
p57
sS'x'
F607
sg19
I01
sS'y'
F544
s(dp58
S'y'
F544
sS'x'
F328
sg19
I00
s(dp59
S'y'
F735
sS'x'
F168
sg19
I00
s(dp60
g17
S'curve'
p61
sS'x'
F168
sg19
I01
sS'y'
F1004
s(dp62
S'y'
F1275
sS'x'
F168
sg19
I00
s(dp63
S'y'
F1483
sS'x'
F341
sg19
I00
s(dp64
g17
S'curve'
p65
sS'x'
F643
sg19
I01
sS'y'
F1483
s(dp66
S'y'
F1483
sS'x'
F969
sg19
I00
s(dp67
S'y'
F1231
sS'x'
F1125
sg19
I00
s(dp68
g17
S'curve'
p69
sS'x'
F1125
sg19
I01
sS'y'
F774
s(dp70
S'y'
F203
sS'x'
F1125
sg19
I00
s(dp71
S'y'
F-24
sS'x'
F894
sg19
I00
stp72
stp73
sS'components'
p74
(tsS'anchors'
p75
(tsss."
LayerCount: 2
Fore
SplineSet
582 -22 m 0
 357 -22 202 67 179 81 c 1
 232 227 l 1
 275 206 417 139 565 139 c 0
 760 139 885 242 885 410 c 0
 885 594.923375262 740.268812424 683.033320998 503.994393776 683.033320998 c 0
 501.341114806 683.033320998 498.676291774 683.02220989 496 683 c 2
 419 682 l 1
 417 845 l 1
 492 845 l 2
 729 845 850 915 850 1107 c 0
 850 1248 714 1321 561 1321 c 0
 401 1321 288 1252 222 1189 c 1
 134 1317 l 1
 244 1426 380 1482 583 1482 c 0
 822 1482 1038 1353 1038 1109 c 0
 1038 949 948 806 768 767 c 1
 961 731 1074 588 1074 403 c 0
 1074 138 858 -22 582 -22 c 0
EndSplineSet
EndChar

StartChar: threequarters
Encoding: 190 190 429
Width: 2126
VWidth: 0
Flags: HW
PickledData: "(dp1
S'org.robofab.postScriptHintData'
p2
(dp3
sS'com.typemytype.robofont.layerData'
p4
(dp5
s."
LayerCount: 2
Fore
SplineSet
1289 300 m 1
 1533 300 l 1
 1533 643 l 1
 1289 300 l 1
528 0 m 1
 1431 1456 l 1
 1590 1456 l 1
 691 0 l 1
 528 0 l 1
1535 0 m 1
 1535 190 l 1
 1157 190 l 1
 1157 285 l 1
 1526 800 l 1
 1672 800 l 1
 1672 300 l 1
 1782 300 l 1
 1782 190 l 1
 1670 190 l 1
 1670 0 l 1
 1535 0 l 1
474 603 m 0
 376 603 278 636 207 697 c 1
 264 792 l 1
 331 741 402 715 466 715 c 0
 559 715 624 776 624 859 c 0
 624 943 554 989 436 989 c 2
 357 989 l 1
 357 1100 l 1
 432 1100 l 2
 534 1100 602 1148 602 1224 c 0
 602 1301 545 1349 462 1349 c 0
 395 1349 325 1323 261 1274 c 1
 205 1362 l 1
 276 1422 378 1458 477 1458 c 0
 623 1458 743 1381 743 1236 c 0
 743 1163 699 1091 599 1057 c 1
 711 1024 766 946 766 857 c 0
 766 692 633 603 474 603 c 0
EndSplineSet
EndChar

StartChar: threesuperior
Encoding: 179 179 430
Width: 1064
VWidth: 0
Flags: HW
PickledData: "(dp1
S'org.robofab.postScriptHintData'
p2
(dp3
sS'com.typemytype.robofont.layerData'
p4
(dp5
s."
LayerCount: 2
Fore
SplineSet
540 601 m 0
 442 601 342 634 275 696 c 1
 331 793 l 1
 393 742 469 715 533 715 c 0
 628 715 692 768 692 854 c 0
 692 943 619 989 495 989 c 2
 422 989 l 1
 422 1102 l 1
 490 1102 l 2
 598 1102 670 1141 670 1223 c 0
 670 1302 617 1341 533 1341 c 0
 463 1341 390 1314 330 1265 c 1
 274 1357 l 1
 340 1418 443 1456 541 1456 c 0
 686 1456 804 1377 804 1231 c 0
 804 1156 767 1080 656 1051 c 1
 771 1023 826 943 826 851 c 0
 826 691 699 601 540 601 c 0
EndSplineSet
EndChar

StartChar: tilde
Encoding: 732 732 431
Width: 667
VWidth: 0
Flags: HW
PickledData: "(dp1
S'org.robofab.postScriptHintData'
p2
(dp3
sS'com.typemytype.robofont.layerData'
p4
(dp5
S'b'
(dp6
S'name'
p7
S'tilde'
p8
sS'lib'
p9
(dp10
sS'unicodes'
p11
(tsS'width'
p12
F672.35000000000002
sS'contours'
p13
(tsS'components'
p14
(tsS'anchors'
p15
(tsss."
AnchorPoint: "top" 331 1026 mark 0
LayerCount: 2
Fore
SplineSet
487.461040858 1174.92953416 m 0
 395.374164389 1174.92953416 266.179086306 1276 195 1276 c 0
 155 1276 131 1246 125 1183 c 1
 7 1183 l 1
 7 1323 76 1416 187 1416 c 0
 291.425698685 1416 408.947121802 1314.9713223 478.430863993 1314.9713223 c 0
 519.642692577 1314.9713223 536.038126093 1340.42972847 538 1414 c 1
 660 1414 l 1
 660 1267.33575328 600.89750564 1174.92953416 487.461040858 1174.92953416 c 0
EndSplineSet
EndChar

StartChar: trademark
Encoding: 8482 8482 432
Width: 1869
VWidth: 0
Flags: HW
PickledData: "(dp1
S'org.robofab.postScriptHintData'
p2
(dp3
sS'com.typemytype.robofont.layerData'
p4
(dp5
S'b'
(dp6
S'name'
p7
S'trademark'
p8
sS'lib'
p9
(dp10
sS'unicodes'
p11
(tsS'width'
p12
F1869
sS'contours'
p13
(tsS'components'
p14
(tsS'anchors'
p15
(tsss."
LayerCount: 2
Fore
SplineSet
321 690 m 1
 321 1341 l 1
 71 1341 l 1
 71 1460 l 1
 708 1460 l 1
 708 1341 l 1
 461 1341 l 1
 461 690 l 1
 321 690 l 1
828 690 m 1
 828 1460 l 1
 990 1460 l 1
 1249 877 l 1
 1517 1460 l 1
 1671 1460 l 1
 1671 690 l 1
 1547 690 l 1
 1547 1264 l 1
 1290 690 l 1
 1203 690 l 1
 950 1259 l 1
 950 690 l 1
 828 690 l 1
EndSplineSet
EndChar

StartChar: two
Encoding: 50 50 433
Width: 1238
VWidth: 0
Flags: HW
PickledData: "(dp1
S'org.robofab.postScriptHintData'
p2
(dp3
sS'com.typemytype.robofont.layerData'
p4
(dp5
S'b'
(dp6
S'name'
p7
S'two'
p8
sS'lib'
p9
(dp10
sS'unicodes'
p11
(tsS'width'
p12
F1244.5
sS'contours'
p13
(tsS'components'
p14
(tsS'anchors'
p15
(tsss."
LayerCount: 2
Fore
SplineSet
599 1482 m 0
 873.653191897 1482 1049.16348796 1301.00698372 1049.16348796 1045.51245109 c 0
 1049.16348796 845.042905766 940.027265826 688.808983729 762 501 c 2
 438 158 l 1
 1043 158 l 1
 1043 0 l 1
 209 0 l 1
 209 150 l 1
 652 620 l 2
 804.215328742 781.669696987 862.57632463 897.75300373 862.57632463 1030.78579965 c 0
 862.57632463 1203.99881438 767.612981303 1320 588 1320 c 0
 406 1320 249 1211 225 1198 c 1
 163 1347 l 1
 188 1361 357 1482 599 1482 c 0
EndSplineSet
EndChar

StartChar: twosuperior
Encoding: 178 178 434
Width: 1114
VWidth: 0
Flags: HW
PickledData: "(dp1
S'org.robofab.postScriptHintData'
p2
(dp3
sS'com.typemytype.robofont.layerData'
p4
(dp5
s."
LayerCount: 2
Fore
SplineSet
309 619 m 1
 309 719 l 1
 583 985 l 2
 685 1083 725 1157 725 1224 c 0
 725 1291 677 1336 588 1336 c 0
 508 1336 433 1294 391 1212 c 1
 314 1295 l 1
 365 1397 470 1456 595 1456 c 0
 750 1456 862 1369 862 1226 c 0
 862 1112 784 1008 661 894 c 2
 483 728 l 1
 859 728 l 1
 859 619 l 1
 309 619 l 1
EndSplineSet
EndChar

StartChar: u
Encoding: 117 117 435
Width: 1234
VWidth: 0
Flags: HW
PickledData: "(dp1
S'org.robofab.postScriptHintData'
p2
(dp3
sS'com.typemytype.robofont.layerData'
p4
(dp5
S'b'
(dp6
S'name'
p7
S'u'
sS'lib'
p8
(dp9
sS'unicodes'
p10
(tsS'width'
p11
F1227.2
sS'contours'
p12
(tsS'components'
p13
(tsS'anchors'
p14
(tsss."
AnchorPoint: "top" 608 1026 basechar 0
LayerCount: 2
Fore
SplineSet
555 -23 m 0
 282 -23 160 151 160 392 c 2
 160 1026 l 1
 343 1026 l 1
 343 392 l 2
 343 214 430 127 586 127 c 0
 771 127 873 246 873 403 c 2
 873 1026 l 1
 1057 1026 l 1
 1057 254 l 2
 1057 175 1063 39 1066 0 c 1
 879 0 l 1
 874 165 l 1
 826 76 727 -23 555 -23 c 0
EndSplineSet
EndChar

StartChar: underscore
Encoding: 95 95 446
Width: 941
VWidth: 0
Flags: HW
PickledData: "(dp1
S'org.robofab.postScriptHintData'
p2
(dp3
sS'com.typemytype.robofont.layerData'
p4
(dp5
s."
LayerCount: 2
Fore
SplineSet
-5 -268 m 1
 -5 -123 l 1
 946 -123 l 1
 946 -268 l 1
 -5 -268 l 1
EndSplineSet
EndChar

StartChar: uni0307
Encoding: 775 775 459
Width: 524
VWidth: 0
Flags: HW
PickledData: "(dp1
S'org.robofab.postScriptHintData'
p2
(dp3
s."
AnchorPoint: "top" 261 1026 mark 0
LayerCount: 2
Fore
SplineSet
171 1268 m 1
 171 1447 l 1
 353 1447 l 1
 353 1268 l 1
 171 1268 l 1
EndSplineSet
EndChar

StartChar: uni030F
Encoding: 783 783 460
Width: 969
VWidth: 0
Flags: HW
PickledData: "(dp1
S'org.robofab.postScriptHintData'
p2
(dp3
s."
AnchorPoint: "top" 591 1026 mark 0
LayerCount: 2
Fore
SplineSet
718 1174 m 1
 435 1567 l 1
 615 1567 l 1
 840 1174 l 1
 718 1174 l 1
376 1174 m 1
 68 1567 l 1
 248 1567 l 1
 500 1174 l 1
 376 1174 l 1
EndSplineSet
EndChar

StartChar: uni0311
Encoding: 785 785 461
Width: 615
VWidth: 0
Flags: HW
PickledData: "(dp1
S'org.robofab.postScriptHintData'
p2
(dp3
sS'com.typemytype.robofont.layerData'
p4
(dp5
s."
AnchorPoint: "top" 315 1026 mark 0
LayerCount: 2
Fore
SplineSet
305 1440 m 0
 476 1440 571 1361 583 1180 c 1
 452 1180 l 1
 445 1279 389 1308 305 1308 c 0
 222 1308 171 1275 161 1180 c 1
 32 1180 l 1
 44 1359 140 1440 305 1440 c 0
EndSplineSet
EndChar

StartChar: uni0312
Encoding: 786 786 462
Width: 600
VWidth: 0
Flags: HW
PickledData: "(dp1
S'org.robofab.postScriptHintData'
p2
(dp3
s."
AnchorPoint: "top" 291 1026 mark 0
LayerCount: 2
Fore
SplineSet
501 1681 m 1
 393 1192 l 1
 184 1192 l 1
 351 1681 l 1
 501 1681 l 1
EndSplineSet
EndChar

StartChar: uni0326
Encoding: 806 806 463
Width: 540
VWidth: 0
Flags: HW
PickledData: "(dp1
S'org.robofab.postScriptHintData'
p2
(dp3
s."
AnchorPoint: "bot" 329 0 mark 0
LayerCount: 2
Fore
SplineSet
111 -607 m 1
 220 -134 l 1
 429 -134 l 1
 261 -607 l 1
 111 -607 l 1
EndSplineSet
EndChar

StartChar: uni2015
Encoding: 8213 8213 464
Width: 4097
VWidth: 0
Flags: HW
PickledData: "(dp1
S'org.robofab.postScriptHintData'
p2
(dp3
s."
LayerCount: 2
Fore
SplineSet
62 480 m 1
 62 630 l 1
 4034 630 l 1
 4034 480 l 1
 62 480 l 1
EndSplineSet
EndChar

StartChar: v
Encoding: 118 118 469
Width: 1056
VWidth: 0
Flags: HW
PickledData: "(dp1
S'org.robofab.postScriptHintData'
p2
(dp3
sS'com.typemytype.robofont.layerData'
p4
(dp5
S'b'
(dp6
S'name'
p7
S'v'
sS'lib'
p8
(dp9
sS'unicodes'
p10
(tsS'width'
p11
F1056.8
sS'contours'
p12
(tsS'components'
p13
(tsS'anchors'
p14
(tsss."
LayerCount: 2
Fore
SplineSet
441 0 m 1
 11 1026 l 1
 212 1026 l 1
 319.970245063 747.303578396 431.520177288 472.186843955 536 190 c 1
 633.135735005 476.197598328 745.436060852 747.230605814 850 1026 c 1
 1047 1026 l 1
 617 0 l 1
 441 0 l 1
EndSplineSet
EndChar

StartChar: w
Encoding: 119 119 470
Width: 1636
VWidth: 0
Flags: HW
PickledData: "(dp1
S'org.robofab.postScriptHintData'
p2
(dp3
sS'com.typemytype.robofont.layerData'
p4
(dp5
S'b'
(dp6
S'name'
p7
S'w'
sS'lib'
p8
(dp9
sS'unicodes'
p10
(tsS'width'
p11
F1634.0999999999999
sS'contours'
p12
(tsS'components'
p13
(tsS'anchors'
p14
(tsss."
AnchorPoint: "top" 839 1026 basechar 0
LayerCount: 2
Fore
SplineSet
372 0 m 1
 31 1026 l 1
 227 1026 l 1
 309.091234201 756.091234201 389.977907267 484.977907267 473 216 c 1
 563.318977693 486.681022307 655.073540092 755.926459908 746 1026 c 1
 925 1026 l 1
 1013.08985265 755.756519313 1100.14653032 484.479863651 1189 215 c 1
 1269.39867528 483.934658051 1346.83606866 755.830598009 1426 1026 c 1
 1605 1026 l 1
 1264 0 l 1
 1091 0 l 1
 1002.75411089 267.754110887 912.999148869 533.999148869 826 803 c 1
 734.22155145 533.111781883 637.834888272 267.831778394 544 0 c 1
 372 0 l 1
EndSplineSet
EndChar

StartChar: x
Encoding: 120 120 475
Width: 1066
VWidth: 0
Flags: HW
PickledData: "(dp1
S'org.robofab.postScriptHintData'
p2
(dp3
sS'com.fontlab.hintData'
p4
(dp5
S'hhints'
p6
((dp7
S'position'
p8
I0
sS'width'
p9
I21
s(dp10
g8
I1006
sg9
I20
stp11
ssS'com.typemytype.robofont.layerData'
p12
(dp13
S'b'
(dp14
S'name'
p15
S'x'
sS'lib'
p16
(dp17
sS'unicodes'
p18
(tsg9
F1062.8499999999999
sS'contours'
p19
(tsS'components'
p20
(tsS'anchors'
p21
(tsss."
HStem: 0 21<45 240 240 240 819 1019 1019 1019> 1006 20<269 269 817 1011 817 817>
LayerCount: 2
Fore
SplineSet
45 0 m 1
 434 512 l 1
 68 1027 l 1
 269 1026 l 1
 533 645 l 1
 817 1026 l 1
 1011 1026 l 1
 636 524 l 1
 1019 0 l 1
 819 0 l 1
 535 392 l 1
 240 0 l 1
 45 0 l 1
EndSplineSet
EndChar

StartChar: y
Encoding: 121 121 476
Width: 1065
VWidth: 0
Flags: HW
PickledData: "(dp1
S'org.robofab.postScriptHintData'
p2
(dp3
sS'com.typemytype.robofont.layerData'
p4
(dp5
S'b'
(dp6
S'name'
p7
S'y'
sS'lib'
p8
(dp9
sS'unicodes'
p10
(tsS'width'
p11
F1065.05
sS'contours'
p12
(tsS'components'
p13
(tsS'anchors'
p14
(tsss."
AnchorPoint: "top" 550 1026 basechar 0
LayerCount: 2
Fore
SplineSet
209 -433 m 1
 134 -307 l 1
 329 -242 410 -143 443 -44 c 2
 460 8 l 1
 41 1026 l 1
 234 1026 l 1
 551 206 l 1
 848 1026 l 1
 1033 1026 l 1
 619 -54 l 1
 547 -245 403 -385 209 -433 c 1
EndSplineSet
EndChar

StartChar: yen
Encoding: 165 165 480
Width: 1221
VWidth: 0
Flags: HW
PickledData: "(dp1
S'org.robofab.postScriptHintData'
p2
(dp3
sS'com.typemytype.robofont.layerData'
p4
(dp5
S'b'
(dp6
S'name'
p7
S'yen'
p8
sS'lib'
p9
(dp10
sS'unicodes'
p11
(tsS'width'
p12
F1225.45
sS'contours'
p13
(tsS'components'
p14
(tsS'anchors'
p15
(tsss."
LayerCount: 2
Fore
SplineSet
178 281 m 1
 178 397 l 1
 509 397 l 1
 509 558 l 1
 178 558 l 1
 178 678 l 1
 450.426757812 678 l 1
 8 1456 l 1
 220 1456 l 1
 609 743 l 1
 1000 1456 l 1
 1213 1456 l 1
 759.314453125 678 l 1
 1032 678 l 1
 1032 558 l 1
 701 558 l 1
 701 397 l 1
 1033 397 l 1
 1033 281 l 1
 701 281 l 1
 701 0 l 1
 509 0 l 1
 509 281 l 1
 178 281 l 1
EndSplineSet
EndChar

StartChar: z
Encoding: 122 122 484
Width: 969
VWidth: 0
Flags: HW
PickledData: "(dp1
S'org.robofab.postScriptHintData'
p2
(dp3
sS'com.typemytype.robofont.layerData'
p4
(dp5
S'b'
(dp6
S'name'
p7
S'z'
sS'lib'
p8
(dp9
sS'unicodes'
p10
(tsS'width'
p11
F971.85000000000002
sS'contours'
p12
(tsS'components'
p13
(tsS'anchors'
p14
(tsss."
AnchorPoint: "top" 506 1026 basechar 0
LayerCount: 2
Fore
SplineSet
104 0 m 1
 104 100 l 1
 640 877 l 1
 120 877 l 1
 120 1026 l 1
 877 1026 l 1
 877 928 l 1
 342 148 l 1
 893 148 l 1
 893 0 l 1
 104 0 l 1
EndSplineSet
EndChar

StartChar: zero
Encoding: 48 48 488
Width: 1231
VWidth: 0
Flags: HW
PickledData: "(dp1
S'org.robofab.postScriptHintData'
p2
(dp3
sS'com.typemytype.robofont.layerData'
p4
(dp5
s."
LayerCount: 2
Fore
SplineSet
620 -22 m 0
 294 -22 124 277 124 732 c 0
 124 1205 294 1482 621 1482 c 0
 947 1482 1107 1198 1107 732 c 0
 1107 277 947 -22 620 -22 c 0
623 139 m 0
 833 139 909 381 909 732 c 0
 909 1069 833 1321 622 1321 c 0
 404 1321 320 1069 320 732 c 0
 320 381 405 139 623 139 c 0
EndSplineSet
EndChar

